<svg width="728" height="108" viewBox="0 0 728 108" fill="none" xmlns="http://www.w3.org/2000/svg">
<path fill-rule="evenodd" clip-rule="evenodd" d="M21.1328 4.73505C27.3383 1.90606 35.1851 0.5 44.6402 0.5C50.8628 0.5 57.0248 1.28546 63.1452 2.86589C69.269 4.44721 74.6108 6.71693 79.1732 9.69112L79.5185 9.91621L73.1146 25.6869L72.6147 25.3898C68.041 22.6714 63.333 20.6501 58.4801 19.3428C53.6173 18.0328 48.9611 17.38 44.5002 17.38C39.3361 17.38 35.1421 18.0163 31.8883 19.2572C28.6074 20.5047 26.2813 22.1458 24.8359 24.1522C23.3756 26.1793 22.6502 28.3975 22.6502 30.84C22.6502 33.8463 23.7055 36.2245 25.788 38.0324C27.9215 39.8848 30.7432 41.346 34.2746 42.4113C37.8407 43.4871 41.8185 44.5141 46.2186 45.4919C50.6414 46.4747 55.0141 47.6281 59.3366 48.9519L59.3376 48.9522C63.6805 50.2924 67.6857 52.017 71.3514 54.1477L71.4807 54.2228L71.491 54.2435C75.129 56.3841 78.055 59.2048 80.2823 62.7119C82.5563 66.2928 83.6702 70.7331 83.6702 76.28C83.6702 81.8562 82.1524 87.03 79.1107 91.7604C76.0581 96.5078 71.3947 100.295 65.1562 103.116C58.9016 105.944 51.0356 107.35 41.5802 107.35C33.4914 107.35 25.7707 106.183 18.4201 103.867C11.0686 101.554 5.15574 98.5682 0.682415 94.886L0.388672 94.6442L7.4141 78.8609L7.91867 79.2565C11.9879 82.4467 17.0275 85.1229 23.0669 87.2586C29.0943 89.39 35.258 90.46 41.5702 90.46C46.9309 90.46 51.2278 89.8823 54.4832 88.7287C57.757 87.5686 60.113 86.0235 61.6057 84.1127C63.098 82.1897 63.8502 80.0176 63.8502 77.58C63.8502 74.5867 62.7772 72.1999 60.6466 70.3912C58.4486 68.5338 55.6019 67.0417 52.0697 65.9268C48.5074 64.8024 44.5531 63.7763 40.2059 62.849C35.8301 61.9156 31.4549 60.7616 27.0803 59.387C22.6885 58.007 18.6541 56.2527 14.9991 54.1224C11.2995 51.982 8.31998 49.1049 6.07651 45.5055C3.80314 41.8844 2.69018 37.3648 2.69018 31.72C2.69018 26.0454 4.20706 20.8315 7.24936 16.09C10.3012 11.3438 14.9339 7.55645 21.1328 4.73505ZM44.6402 1.5C35.2753 1.5 27.5821 2.89395 21.5476 5.64496C15.4866 8.40354 11.0189 12.0766 8.09074 16.6304C5.15321 21.2088 3.69018 26.2348 3.69018 31.72C3.69018 37.235 4.77714 41.5553 6.92363 44.9741L6.92452 44.9755C9.08083 48.4354 11.9409 51.1979 15.5006 53.2572L15.502 53.258C19.0868 55.3475 23.0521 57.0731 27.3801 58.433C31.7254 59.7984 36.0702 60.9443 40.4145 61.871C44.7873 62.8037 48.773 63.8376 52.3707 64.9732C55.998 66.1181 58.9711 67.6659 61.2929 69.6281L61.2938 69.6288C63.6631 71.6402 64.8502 74.3133 64.8502 77.58C64.8502 80.2421 64.0225 82.6297 62.3952 84.7265L62.3942 84.7278C60.7469 86.8367 58.2031 88.4715 54.8172 89.6713C51.4126 90.8777 46.9894 91.46 41.5702 91.46C35.1424 91.46 28.866 90.37 22.7335 88.2014C16.8584 86.1238 11.8865 83.5309 7.80833 80.4344L1.61258 94.3537C5.92495 97.8231 11.6148 100.677 18.7202 102.913C25.9696 105.197 33.589 106.35 41.5802 106.35C50.9448 106.35 58.6588 104.956 64.7442 102.204C70.8457 99.4454 75.3422 95.7722 78.2696 91.2196C81.2079 86.65 82.6702 81.6638 82.6702 76.28C82.6702 70.8669 81.584 66.6271 79.4381 63.248C77.2717 59.8367 74.4207 57.1026 70.8589 55.0323L70.7297 54.9572L70.7199 54.9375C67.1607 52.8827 63.2693 51.2121 59.0436 49.908C54.7462 48.5919 50.3989 47.4452 46.0017 46.4681C41.5819 45.4859 37.5797 44.4529 33.9858 43.3687C30.3571 42.274 27.3988 40.7553 25.1324 38.7876C22.8148 36.7755 21.6502 34.1137 21.6502 30.84C21.6502 28.1825 22.4447 25.7607 24.0245 23.5677C25.619 21.3543 28.1332 19.6153 31.532 18.3228C34.9383 17.0237 39.2642 16.38 44.5002 16.38C49.0592 16.38 53.8031 17.0472 58.7402 18.3772C63.5098 19.6621 68.1351 21.6217 72.6247 24.2355L78.2811 10.3056C73.8992 7.50858 68.7758 5.35265 62.8952 3.83413C56.8555 2.27455 50.7775 1.5 44.6402 1.5Z" fill="#A168C8" fill-opacity="0.34"/>
<path fill-rule="evenodd" clip-rule="evenodd" d="M101.62 1.97H177.74V19.14H121.73V44.75H171.42V61.48H121.73V88.7H179.8V105.87H101.62V1.97ZM102.62 2.97V104.87H178.8V89.7H120.73V60.48H170.42V45.75H120.73V18.14H176.74V2.97H102.62Z" fill="#A168C8" fill-opacity="0.34"/>
<path fill-rule="evenodd" clip-rule="evenodd" d="M200.109 1.97H276.229V19.14H220.219V44.75H269.909V61.48H220.219V88.7H278.289V105.87H200.109V1.97ZM201.109 2.97V104.87H277.289V89.7H219.219V60.48H268.909V45.75H219.219V18.14H275.229V2.97H201.109Z" fill="#A168C8" fill-opacity="0.34"/>
<path fill-rule="evenodd" clip-rule="evenodd" d="M298.6 1.97H315.068L371.07 70.8622V1.97H390.89V105.87H374.421L318.56 37.01V105.87H298.6V1.97ZM299.6 2.97V104.87H317.56V34.19L374.898 104.87H389.89V2.97H372.07V73.6777L314.592 2.97H299.6Z" fill="#A168C8" fill-opacity="0.34"/>
<path fill-rule="evenodd" clip-rule="evenodd" d="M417.67 1.97H463.3C474.336 1.97 484.145 4.11311 492.704 8.41319C501.253 12.7229 507.926 18.7859 512.677 26.6101C517.441 34.4388 519.81 43.5513 519.81 53.92C519.81 64.2891 517.431 73.4013 512.677 81.2295C507.926 89.0639 501.254 95.1268 492.705 99.4267C484.145 103.727 474.336 105.87 463.3 105.87H417.67V1.97ZM418.67 2.97V104.87H463.3C474.204 104.87 483.855 102.753 492.255 98.5333C500.646 94.3132 507.174 88.3762 511.822 80.7107C516.469 73.0589 518.81 64.1309 518.81 53.92C518.81 43.7087 516.479 34.7812 511.823 27.1299C507.174 19.4743 500.646 13.5367 492.255 9.30646C483.855 5.08676 474.204 2.97 463.3 2.97H418.67ZM436.78 18.14H462.12C469.923 18.14 476.696 19.6222 482.421 22.6066C488.128 25.5866 492.607 29.7181 495.846 34.9882L495.846 34.9891C499.083 40.281 500.7 46.5949 500.7 53.92C500.7 61.2489 499.091 67.3205 495.848 72.6982C492.609 78.0689 488.13 82.2519 482.421 85.2332C476.696 88.2177 469.923 89.7 462.12 89.7H436.78V18.14ZM437.78 19.14V88.7H462.12C469.797 88.7 476.404 87.2423 481.958 84.3468C487.509 81.4481 491.85 77.3911 494.992 72.1818C498.129 66.9795 499.7 61.0911 499.7 53.92C499.7 46.7455 498.117 40.6198 494.994 35.5118C491.853 30.4019 487.512 26.3932 481.958 23.4932C476.404 20.5977 469.797 19.14 462.12 19.14H437.78Z" fill="#A168C8" fill-opacity="0.34"/>
<path fill-rule="evenodd" clip-rule="evenodd" d="M589.002 1.97L635.904 105.87H614.66L604.47 82.06H553.669L543.439 105.87H522.786L569.414 2.2648L569.859 2.4655V1.97H589.002ZM570.193 2.97H588.357L634.355 104.87H615.319L605.129 81.06H553.01L542.78 104.87H524.333L570.193 2.97ZM579.12 20.2611L599.147 67.06H559.021L579.12 20.2611ZM560.538 66.06H597.632L579.119 22.7989L560.538 66.06Z" fill="#A168C8" fill-opacity="0.34"/>
<path fill-rule="evenodd" clip-rule="evenodd" d="M626.021 1.97H647.472L677.609 51.5855L707.628 1.97H727.608L686.8 69.3596V105.87H666.83V69.15L626.021 1.97ZM627.799 2.97L667.83 68.87V104.87H685.8V69.0804L725.833 2.97H708.192L677.611 53.5145L646.909 2.97H627.799Z" fill="#A168C8" fill-opacity="0.34"/>
</svg>
