<svg width="80" height="31" viewBox="0 0 80 31" fill="none" xmlns="http://www.w3.org/2000/svg">
<path opacity="0.26" fill-rule="evenodd" clip-rule="evenodd" d="M-14.0937 16.716C-17.66 19.7402 -20.7143 24.2839 -23.0472 30.8941L-23.9902 30.5612C-21.6144 23.8298 -18.4746 19.1198 -14.7404 15.9533C-11.0029 12.7838 -6.70257 11.1883 -2.05562 10.6336C7.15948 9.53376 17.8036 12.5275 28.2585 15.4681L28.3895 15.5049C38.9492 18.4749 49.3053 21.3713 58.0704 20.1996C62.4308 19.6167 66.381 18.027 69.7601 14.9377C73.1438 11.8442 75.9683 7.28162 78.0591 0.571719L79.1924 0.571777C77.0649 7.39965 73.9838 12.4312 70.4349 15.6757C66.8814 18.9244 62.7314 20.5854 58.2029 21.1908C49.1942 22.3951 38.6232 19.422 28.1325 16.4714L28.1187 16.4675C17.5607 13.4981 7.07759 10.5506 -1.93711 11.6266C-6.4243 12.1621 -10.5307 13.6945 -14.0937 16.716Z" fill="#FFA500"/>
</svg>
