<svg width="83" height="67" viewBox="0 0 83 67" fill="none" xmlns="http://www.w3.org/2000/svg">
<path opacity="0.26" fill-rule="evenodd" clip-rule="evenodd" d="M13.1453 41.6582C5.4532 46.0295 -1.27089 53.3246 -5.9447 66.5671L-6.8877 66.2343C-2.14394 52.7936 4.72454 45.2934 12.6512 40.7888C20.451 36.3563 29.2396 34.8493 37.878 33.368L38.2068 33.3116C46.9831 31.8062 55.5885 30.2895 63.0593 25.8094C70.502 21.3461 76.8392 14.0252 81.0269 0.585398L82.0894 0.585449C77.8406 14.2212 71.2592 22.0581 63.5736 26.667C55.9162 31.259 47.1218 32.797 38.3758 34.2972L38.1245 34.3403C29.4309 35.8313 20.7916 37.3129 13.1453 41.6582Z" fill="#FFA500"/>
</svg>
