<svg width="56" height="63" viewBox="0 0 56 63" fill="none" xmlns="http://www.w3.org/2000/svg">
<path opacity="0.26" fill-rule="evenodd" clip-rule="evenodd" d="M10.3779 63.4507C4.71413 70.2477 0.984693 79.4414 1.26592 93.4816L0.266122 93.5016C-0.0193157 79.2513 3.77316 69.8148 9.60961 62.8106C15.3526 55.9184 23.05 51.4173 30.6159 46.993L30.9038 46.8246C38.5903 42.3293 46.1128 37.8835 51.5311 31.0624C56.9291 24.2671 60.2872 15.1854 59.4816 1.13126L60.4762 0.757688C61.2936 15.0166 57.8882 24.6673 52.3141 31.6844C46.7605 38.6758 39.0686 43.208 31.4087 47.6879L31.1885 47.8166C23.5744 52.2693 16.0079 56.6942 10.3779 63.4507Z" fill="#FFA500"/>
</svg>
