<svg width="85" height="62" viewBox="0 0 85 62" fill="none" xmlns="http://www.w3.org/2000/svg">
<path opacity="0.26" fill-rule="evenodd" clip-rule="evenodd" d="M5.10757 48.679C2.83244 52.7642 1.57099 58.0917 1.71137 65.1001L0.711567 65.1201C0.568613 57.9832 1.85175 52.4699 4.23392 48.1925C6.61823 43.9112 10.0829 40.9054 14.238 38.7521C22.4779 34.4821 33.4949 33.5418 44.3162 32.6182L44.4517 32.6067C55.3815 31.6737 66.0946 30.7436 73.8879 26.5646C77.7649 24.4856 80.9038 21.6084 82.9808 17.5282C85.0607 13.4424 86.1004 8.17803 85.6982 1.16146L86.7591 0.762987C87.1684 7.90293 86.0534 13.6966 83.872 17.9818C81.6879 22.2726 78.3869 25.2868 74.3605 27.4459C66.3506 31.7411 55.4093 32.675 44.551 33.6018L44.5367 33.603C33.6089 34.5358 22.7588 35.4629 14.6981 39.64C10.6858 41.7192 7.38054 44.5977 5.10757 48.679Z" fill="#FFA500"/>
</svg>
