<svg width="18" height="17" viewBox="0 0 18 17" fill="none" xmlns="http://www.w3.org/2000/svg">
<path d="M5.1154 3.91069H5.6154V3.41069V1.71246C5.6154 1.40521 5.72354 1.14304 5.96641 0.903024C6.20334 0.668876 6.48231 0.553711 6.83386 0.553711H10.2308C10.5824 0.553711 10.8613 0.668876 11.0983 0.903024L11.4497 0.547385L11.0983 0.903024C11.3411 1.14304 11.4493 1.40521 11.4493 1.71246V3.41069V3.91069H11.9493H15.3462C15.6978 3.91069 15.9767 4.02586 16.2137 4.26001C16.4503 4.49391 16.5647 4.76681 16.5647 5.10893V14.3505C16.5647 14.6926 16.4503 14.9655 16.2137 15.1994C15.9767 15.4336 15.6978 15.5487 15.3462 15.5487H1.71846C1.3669 15.5487 1.08794 15.4336 0.851006 15.1994C0.61432 14.9655 0.5 14.6926 0.5 14.3505V5.10893C0.5 4.76681 0.61432 4.49391 0.851006 4.26001L0.499551 3.90437L0.851006 4.26001C1.08794 4.02586 1.3669 3.91069 1.71846 3.91069H5.1154ZM10.2308 3.91069H10.7308V3.41069V1.71246V1.21246H10.2308H6.83386H6.33386V1.71246V3.41069V3.91069H6.83386H10.2308Z" stroke="#282828"/>
</svg>
