<svg width="30" height="19" viewBox="0 0 30 19" fill="none" xmlns="http://www.w3.org/2000/svg">
<path d="M20.6261 0C18.5244 0 16.5896 0.700261 15.026 1.86925L15.0335 1.87017C15.341 2.1673 15.6803 2.37643 15.9418 2.71849L13.992 2.74943C13.6864 3.05787 13.408 3.39346 13.1455 3.7422H16.5839C16.8455 4.05619 17.0873 4.32906 17.3067 4.67585H12.5222C12.3469 4.97771 12.1847 5.288 12.0432 5.61042H17.8514C18.0032 5.93192 18.1392 6.17476 18.2545 6.51507H11.6991C11.5951 6.83852 11.5061 7.16938 11.4385 7.50681H18.5291C18.5985 7.83119 18.6519 8.13109 18.6885 8.43676H11.2979C11.2669 8.7452 11.251 9.05826 11.251 9.37421H18.7419C18.7419 9.70609 18.7184 10.0135 18.6847 10.3117H11.2979C11.3297 10.6295 11.3766 10.9416 11.4385 11.2491H18.5178C18.4447 11.5528 18.3603 11.8584 18.2544 12.1753H11.6775C11.7769 12.4958 11.8979 12.807 12.03 13.1108H17.8514C17.6902 13.452 17.5074 13.7248 17.3059 14.0444H12.5054C12.6948 14.3725 12.9038 14.6855 13.1306 14.9856L16.584 15.0371C16.2897 15.3904 15.9119 15.6033 15.5678 15.9126C15.5865 15.9276 15.0175 15.9108 13.8973 15.893C15.6015 17.6516 17.9835 18.7483 20.626 18.7483C25.8034 18.7483 30.0001 14.5515 30.0001 9.37421C30.0001 4.19694 25.8043 0 20.6261 0Z" fill="#282828"/>
<path d="M9.37133 9.42602C9.37133 12.4475 10.4792 14.7545 13.6383 17.7228C12.3585 18.3784 10.9082 18.7482 9.37133 18.7482C4.19489 18.7482 0 14.5515 0 9.37411C0 4.19674 4.19591 0 9.37133 0C10.9081 0 12.3585 0.370017 13.6383 1.02585C10.1056 3.73324 9.37133 6.48349 9.37133 9.42602Z" fill="#282828"/>
</svg>
