<svg width="30" height="20" viewBox="0 0 30 20" fill="none" xmlns="http://www.w3.org/2000/svg">
<path d="M20.626 0.275879C18.5243 0.275879 16.5894 0.97614 15.0259 2.14513L15.0334 2.14605C15.3409 2.44318 15.6802 2.65231 15.9417 2.99437L13.9919 3.02531C13.6863 3.33375 13.4079 3.66933 13.1454 4.01808H16.5838C16.8453 4.33207 17.0872 4.60494 17.3066 4.95173H12.522C12.3467 5.25358 12.1846 5.56388 12.043 5.8863H17.8513C18.0031 6.2078 18.139 6.45064 18.2544 6.79095H11.699C11.595 7.1144 11.5059 7.44526 11.4384 7.78269H18.529C18.5984 8.10707 18.6518 8.40697 18.6884 8.71264H11.2977C11.2668 9.02108 11.2509 9.33414 11.2509 9.65009H18.7417C18.7417 9.98197 18.7183 10.2894 18.6846 10.5875H11.2977C11.3296 10.9053 11.3765 11.2175 11.4384 11.525H18.5177C18.4446 11.8287 18.3602 12.1343 18.2543 12.4511H11.6774C11.7767 12.7717 11.8978 13.0829 12.0299 13.3866H17.8513C17.6901 13.7279 17.5073 14.0006 17.3057 14.3203H12.5053C12.6947 14.6484 12.9037 14.9614 13.1305 15.2614L16.5839 15.3129C16.2895 15.6663 15.9118 15.8791 15.5677 16.1885C15.5864 16.2035 15.0174 16.1866 13.8972 16.1689C15.6014 17.9275 17.9834 19.0242 20.6259 19.0242C25.8033 19.0242 30 14.8274 30 9.65009C30 4.47282 25.8042 0.275879 20.626 0.275879Z" fill="#FAB718"/>
<path d="M9.37133 9.7019C9.37133 12.7234 10.4792 15.0304 13.6383 17.9986C12.3585 18.6542 10.9082 19.0241 9.37133 19.0241C4.19489 19.0241 0 14.8274 0 9.64999C0 4.47262 4.19591 0.275879 9.37133 0.275879C10.9081 0.275879 12.3585 0.645896 13.6383 1.30173C10.1056 4.00912 9.37133 6.75937 9.37133 9.7019Z" fill="#E2574C"/>
</svg>
