<svg width="37" height="11" viewBox="0 0 37 11" fill="none" xmlns="http://www.w3.org/2000/svg">
<path fill-rule="evenodd" clip-rule="evenodd" d="M3.33643 0.00177502C3.65877 -0.00026305 4.61673 -0.0914524 5.0225 1.35597C5.29583 2.33097 5.73124 3.92807 6.32871 6.14726H6.57204C7.21278 3.80763 7.65293 2.21053 7.8925 1.35597C8.3025 -0.10653 9.3275 0.00180368 9.7375 0.00180368L12.9007 0.00180785V10.4018H9.67668V4.2729H9.46048L7.66322 10.4018H5.23752L3.44026 4.26836H3.22407V10.4018H0V0.00180785L3.33643 0.00177502ZM17.5304 0.00180785V6.13525H17.7876L19.9738 1.09176C20.3982 0.088096 21.3027 0.00180785 21.3027 0.00180785H24.4226V10.4018H21.1312V4.26836H20.874L18.7307 9.31185C18.3063 10.311 17.359 10.4018 17.359 10.4018H14.239V0.00180785H17.5304ZM35.7992 4.94395C35.3401 6.31902 33.8983 7.30381 32.302 7.30381H28.8503V10.4018H25.7204V4.94395H35.7992Z" fill="#282828"/>
<path fill-rule="evenodd" clip-rule="evenodd" d="M32.4533 0.00195312H25.5566C25.7208 2.31735 27.6074 4.29947 29.5604 4.29947H36.0171C36.3897 2.37511 35.107 0.00195312 32.4533 0.00195312Z" fill="url(#paint0_linear_264_2)"/>
<defs>
<linearGradient id="paint0_linear_264_2" x1="1077.93" y1="270.334" x2="25.5566" y2="270.334" gradientUnits="userSpaceOnUse">
<stop stop-color="#282828"/>
<stop offset="1" stop-color="#282828"/>
</linearGradient>
</defs>
</svg>
