<svg width="37" height="11" viewBox="0 0 37 11" fill="none" xmlns="http://www.w3.org/2000/svg">
<path fill-rule="evenodd" clip-rule="evenodd" d="M3.88551 0.459295C4.20784 0.457256 5.1658 0.366067 5.57157 1.81349C5.84491 2.78849 6.28031 4.38559 6.87778 6.60478H7.12111C7.76185 4.26515 8.202 2.66805 8.44157 1.81349C8.85157 0.35099 9.87657 0.459323 10.2866 0.459323L13.4498 0.459327V10.8593H10.2258V4.73042H10.0096L8.2123 10.8593H5.7866L3.98934 4.72588H3.77314V10.8593H0.549072V0.459327L3.88551 0.459295ZM18.0795 0.459327V6.59277H18.3367L20.5229 1.54928C20.9473 0.545615 21.8518 0.459327 21.8518 0.459327H24.9717V10.8593H21.6803V4.72588H21.4231L19.2798 9.76937C18.8554 10.7685 17.9081 10.8593 17.9081 10.8593H14.7881V0.459327H18.0795ZM36.3483 5.40147C35.8892 6.77654 34.4473 7.76133 32.8511 7.76133H29.3994V10.8593H26.2695V5.40147H36.3483Z" fill="#0F754E"/>
<path fill-rule="evenodd" clip-rule="evenodd" d="M33.0021 0.459473H26.1053C26.2695 2.77486 28.1561 4.75699 30.1091 4.75699H36.5658C36.9384 2.83263 35.6557 0.459473 33.0021 0.459473Z" fill="url(#paint0_linear_7_8848)"/>
<defs>
<linearGradient id="paint0_linear_7_8848" x1="1078.48" y1="270.792" x2="26.1053" y2="270.792" gradientUnits="userSpaceOnUse">
<stop stop-color="#1F5CD7"/>
<stop offset="1" stop-color="#02AEFF"/>
</linearGradient>
</defs>
</svg>
