<svg width="49" height="28" viewBox="0 0 49 28" fill="none" xmlns="http://www.w3.org/2000/svg">
<path d="M48.6575 11.1855V17.7866H46.2467V13.1561H43.9254V17.7866H41.5146V11.1851H48.6575V11.1855Z" fill="#282828"/>
<path fill-rule="evenodd" clip-rule="evenodd" d="M36.5634 18.0222C38.7215 18.0222 40.3241 16.7285 40.3241 14.7671C40.3241 12.8688 39.1417 11.6363 37.1656 11.6363C36.2536 11.6363 35.5011 11.9501 34.9343 12.4917C35.0696 11.3723 36.0378 10.5551 37.1037 10.5551C37.3497 10.5551 39.2018 10.5513 39.2018 10.5513L40.2491 8.5918C40.2491 8.5918 37.9239 8.64355 36.843 8.64355C34.3733 8.68562 32.7051 10.8805 32.7051 13.5463C32.7051 16.652 34.3321 18.0222 36.5634 18.0222ZM36.5765 13.3719C37.3778 13.3719 37.9333 13.8867 37.9333 14.7669C37.9333 15.5591 37.4397 16.2119 36.5765 16.2137C35.7508 16.2137 35.1953 15.6089 35.1953 14.7804C35.1953 13.9 35.7508 13.3719 36.5765 13.3719Z" fill="#282828"/>
<path d="M30.743 15.5767C30.743 15.5767 30.1737 15.8975 29.3233 15.9583C28.3458 15.9866 27.4747 15.383 27.4747 14.3104C27.4747 13.2641 28.2434 12.6645 29.2987 12.6645C29.9458 12.6645 30.8019 13.103 30.8019 13.103C30.8019 13.103 31.4283 11.9792 31.7528 11.4171C31.1586 10.9768 30.3672 10.7354 29.4467 10.7354C27.1236 10.7354 25.3242 12.2163 25.3242 14.2971C25.3242 16.4045 27.0154 17.851 29.4467 17.8073C30.1262 17.7826 31.0638 17.5493 31.6352 17.1904L30.743 15.5767Z" fill="#282828"/>
<path d="M0 6.75781L3.34418 12.6022V16.1671L0.00391213 22L0 6.75781Z" fill="#282828"/>
<path d="M12.8398 10.4755L15.9735 8.59765L22.3866 8.5918L12.8398 14.3099V10.4755Z" fill="#282828"/>
<path d="M12.8226 6.72343L12.8403 14.4612L9.48828 12.4474V0.880859L12.8226 6.72343Z" fill="#282828"/>
<path d="M22.387 8.59183L15.9737 8.59768L12.8226 6.72343L9.48828 0.880859L22.387 8.59183Z" fill="#282828"/>
<path d="M12.8403 22.0324V18.2782L9.48828 16.3027L9.49012 27.8808L12.8403 22.0324Z" fill="#282828"/>
<path d="M15.9661 20.1716L3.34395 12.6022L0 6.75781L22.3735 20.164L15.9661 20.1716Z" fill="#282828"/>
<path d="M9.49023 27.8809L12.8399 22.0325L15.9657 20.1717L22.3731 20.1641L9.49023 27.8809Z" fill="#282828"/>
<path d="M0.00390625 22.0001L9.51568 16.3031L6.31786 14.3848L3.34418 16.1672L0.00390625 22.0001Z" fill="#282828"/>
</svg>
