<svg width="49" height="25" viewBox="0 0 49 25" fill="none" xmlns="http://www.w3.org/2000/svg">
<g clip-path="url(#clip0_7_8867)">
<path d="M43.3494 9.97989V15.8475H41.2016V11.7315H39.1335V15.8475H36.9857V9.97949H43.3494V9.97989Z" fill="white"/>
<path fill-rule="evenodd" clip-rule="evenodd" d="M32.5747 16.0574C34.4974 16.0574 35.9252 14.9074 35.9252 13.164C35.9252 11.4766 34.8718 10.381 33.1112 10.381C32.2988 10.381 31.6283 10.66 31.1234 11.1414C31.2439 10.1464 32.1064 9.42 33.0561 9.42C33.2753 9.42 34.9253 9.4166 34.9253 9.4166L35.8583 7.6748C35.8583 7.6748 33.7868 7.7208 32.8238 7.7208C30.6235 7.7582 29.1373 9.7092 29.1373 12.0788C29.1373 14.8394 30.5868 16.0574 32.5747 16.0574ZM32.5864 11.9238C33.3003 11.9238 33.7952 12.3814 33.7952 13.1638C33.7952 13.868 33.3554 14.4482 32.5864 14.4498C31.8508 14.4498 31.3559 13.9122 31.3559 13.1758C31.3559 12.3932 31.8508 11.9238 32.5864 11.9238Z" fill="white"/>
<path d="M27.3892 13.883C27.3892 13.883 26.8819 14.1682 26.1244 14.2222C25.2534 14.2474 24.4774 13.7108 24.4774 12.7574C24.4774 11.8274 25.1622 11.2944 26.1024 11.2944C26.679 11.2944 27.4416 11.6842 27.4416 11.6842C27.4416 11.6842 27.9997 10.6852 28.2888 10.1856C27.7594 9.79419 27.0544 9.57959 26.2343 9.57959C24.1646 9.57959 22.5615 10.896 22.5615 12.7456C22.5615 14.6188 24.0682 15.9046 26.2343 15.8658C26.8397 15.8438 27.6749 15.6364 28.184 15.3174L27.3892 13.883Z" fill="white"/>
<path d="M0 6.04443L2.97936 11.2394V14.4082L0.00348536 19.593L0 6.04443Z" fill="#5B57A2"/>
<path d="M11.4396 9.34872L14.2313 7.67952L19.9449 7.67432L11.4396 12.7571V9.34872Z" fill="#D90751"/>
<path d="M11.4238 6.01371L11.4396 12.8917L8.45325 11.1017V0.820312L11.4238 6.01371Z" fill="#FAB718"/>
<path d="M19.9449 7.67451L14.2311 7.67971L11.4238 6.01371L8.45325 0.820312L19.9449 7.67451Z" fill="#ED6F26"/>
<path d="M11.4396 19.6218V16.2848L8.45325 14.5288L8.45489 24.8204L11.4396 19.6218Z" fill="#63B22F"/>
<path d="M14.2243 17.9678L2.97916 11.2394L0 6.04443L19.9327 17.961L14.2243 17.9678Z" fill="#1487C9"/>
<path d="M8.45508 24.8203L11.4394 19.6217L14.2242 17.9677L19.9326 17.9609L8.45508 24.8203Z" fill="#017F36"/>
<path d="M0.00354004 19.5929L8.47767 14.5289L5.6287 12.8237L2.97942 14.4081L0.00354004 19.5929Z" fill="#984995"/>
</g>
<defs>
<clipPath id="clip0_7_8867">
<rect width="49" height="24" fill="white" transform="translate(0 0.820312)"/>
</clipPath>
</defs>
</svg>
