<svg width="81" height="17" viewBox="0 0 81 17" fill="none" xmlns="http://www.w3.org/2000/svg">
<path d="M22.0186 11.4144H23.7842V7.30631H26.209V5.8114H19.5938V7.30631H22.0186V11.4144ZM31.5648 5.8114L28.6221 9.07195V5.8114H26.9153V11.4144H28.422L31.3647 8.15382V11.4144H33.0715V5.8114H31.5648ZM36.0713 9.33091H38.8139V11.4144H40.5207V5.8114H38.8139V7.85955H36.0713V5.8114H34.3645V11.4144H36.0713V9.33091ZM45.2738 11.4144C45.6623 11.4144 46.0154 11.3791 46.345 11.2849C47.2278 11.0377 47.8046 10.3197 47.8046 9.34268C47.8046 8.41278 47.3102 7.76538 46.5215 7.47111C46.1449 7.32985 45.6976 7.31808 45.2738 7.31808H43.5199V5.8114H41.8132V11.4144H45.2738ZM43.5199 8.63643H44.9795C45.215 8.63643 45.4386 8.63643 45.6387 8.70705C45.9212 8.80122 46.086 9.03664 46.086 9.31914C46.086 9.61341 45.9212 9.86061 45.6505 9.97832C45.4621 10.0607 45.2738 10.0607 44.9795 10.0607H43.5199V8.63643ZM50.3942 9.2956H50.865L52.9014 11.4144H55.1732L52.3364 8.49518L55.0672 5.8114H52.9249L50.865 7.9184H50.3942V5.8114H48.6874V11.4144H50.3942V9.2956Z" fill="#282828"/>
<path d="M58.685 5.65893C56.3896 5.65893 55.0125 6.95374 55.0125 8.62521C55.0125 10.2967 56.3896 11.5915 58.685 11.5915C60.9685 11.5915 62.3457 10.2967 62.3457 8.62521C62.3457 6.95374 60.9685 5.65893 58.685 5.65893ZM58.685 10.2261C57.5432 10.2261 56.8134 9.54334 56.8134 8.62521C56.8134 7.70708 57.5432 7.03613 58.685 7.03613C59.815 7.03613 60.5566 7.70708 60.5566 8.62521C60.5566 9.54334 59.815 10.2261 58.685 10.2261ZM68.0299 6.05915V5.49414H66.3231V6.05915C64.1808 6.10623 62.8978 7.01259 62.8978 8.61344C62.8978 10.2143 64.1808 11.05 66.3231 11.0971V11.6621H68.0299V11.0971C70.184 11.05 71.467 10.2143 71.467 8.61344C71.467 7.01259 70.184 6.10623 68.0299 6.05915ZM66.3231 9.89647C65.146 9.84939 64.6281 9.36678 64.6281 8.61344C64.6281 7.8601 65.146 7.31864 66.3231 7.27155V9.89647ZM68.0299 9.89647V7.27155C69.2188 7.31864 69.7249 7.8601 69.7249 8.61344C69.7249 9.36678 69.2188 9.84939 68.0299 9.89647ZM77.1453 6.05915V5.49414H75.4385V6.05915C73.2962 6.10623 72.0132 7.01259 72.0132 8.61344C72.0132 10.2143 73.2962 11.05 75.4385 11.0971V11.6621H77.1453V11.0971C79.2994 11.05 80.5825 10.2143 80.5825 8.61344C80.5825 7.01259 79.2994 6.10623 77.1453 6.05915ZM75.4385 9.89647C74.2615 9.84939 73.7435 9.36678 73.7435 8.61344C73.7435 7.8601 74.2615 7.31864 75.4385 7.27155V9.89647ZM77.1453 9.89647V7.27155C78.3342 7.31864 78.8403 7.8601 78.8403 8.61344C78.8403 9.36678 78.3342 9.84939 77.1453 9.89647Z" fill="#282828"/>
<path fill-rule="evenodd" clip-rule="evenodd" d="M9.00456 1.91499C8.34956 1.91549 7.85806 2.13049 7.75106 2.38399L9.00456 2.87899L10.2586 2.38399C10.1526 2.13049 9.66106 1.91549 9.00456 1.91499ZM9.01806 15.0345H8.99306C8.59606 15.037 8.04856 14.9555 7.78556 14.878L7.46856 15.7375C7.67756 15.812 8.38556 15.955 9.00606 15.955C9.62556 15.955 10.3341 15.812 10.5426 15.7375L10.2261 14.8785C9.96156 14.9555 9.41506 15.037 9.01806 15.0345ZM11.4166 14.1795C11.1806 14.3135 10.6541 14.5145 10.3476 14.6075L10.6046 15.3175C11.0786 15.1875 11.4701 15.036 11.7931 14.8735L11.2591 14.696L11.4166 14.1795ZM6.59406 14.1795L6.75206 14.696L6.21756 14.8735C6.54006 15.036 6.93306 15.1875 7.40556 15.317L7.66306 14.607C7.35706 14.514 6.82956 14.3135 6.59406 14.1795ZM9.00456 1.09349C9.49906 1.09349 9.98306 1.21199 10.3561 1.41949C10.3901 1.30549 10.4376 1.16649 10.5021 1.02099L10.3611 1.03799L10.2136 1.05299L10.1511 0.918492L9.96206 0.519992L9.61906 0.698992L9.48506 0.766992L9.37806 0.661992L9.00456 0.291992L8.63206 0.661992L8.52556 0.766992L8.39206 0.698992L8.04706 0.519992L7.86056 0.918492L7.79706 1.05349L7.64906 1.03799L7.50906 1.02099C7.57356 1.16649 7.62056 1.30549 7.65506 1.41949C8.02906 1.21199 8.51256 1.09349 9.00456 1.09349ZM16.5471 5.70199C16.6116 5.72399 16.6766 5.73399 16.7411 5.73399C17.0211 5.73399 17.2911 5.55249 17.3836 5.34549C17.3836 5.34549 16.8711 5.31449 16.3201 4.75399C16.1451 4.57299 15.9591 4.51849 15.8001 4.51849C15.5526 4.51849 15.3666 4.64899 15.3666 4.64899C16.0326 5.00399 16.1681 5.57399 16.5471 5.70199ZM1.26956 5.73349C1.33456 5.73349 1.39956 5.72399 1.46206 5.70149C1.84206 5.57349 1.97906 5.00399 2.64356 4.64949C2.64356 4.64949 2.45756 4.51849 2.21156 4.51849C2.05156 4.51849 1.86606 4.57249 1.69006 4.75449C1.13956 5.31449 0.627563 5.34599 0.627563 5.34599C0.719563 5.55249 0.990063 5.73349 1.26956 5.73349Z" fill="#282828"/>
<path fill-rule="evenodd" clip-rule="evenodd" d="M16.3466 9.79161C15.8316 9.53661 15.5066 8.86161 15.4276 8.61861C15.3426 9.95761 14.6901 10.8866 13.9276 11.7806C13.5316 12.2446 13.3936 12.6956 13.3936 12.6956C13.3936 12.6956 13.4701 12.1846 13.8121 11.7686C14.5236 10.9126 15.1996 9.84661 15.2501 8.61361C15.2846 7.75361 15.0641 7.05611 14.7191 6.48111C14.9121 7.07961 14.8846 7.81311 14.2301 8.49761C14.2301 8.49761 15.5336 6.93361 13.7116 5.32961C12.9826 4.71961 12.1846 4.34261 11.7741 4.07561C13.2576 4.56061 13.9826 4.02661 13.9826 4.02661C13.5086 4.43811 12.8951 4.43111 12.5146 4.37161C12.6181 4.42211 12.7256 4.47511 12.8406 4.53661C14.0921 5.21761 15.2161 6.33811 15.4081 7.88911V7.87711C15.6986 9.40061 16.3466 9.79161 16.3466 9.79161ZM16.7276 8.01661C16.7391 8.01761 16.7491 8.01761 16.7606 8.01761C17.4581 8.01761 17.6941 7.26911 17.6941 7.26911H17.6806C17.5526 7.26911 16.5156 7.23911 15.7826 6.30561C15.3006 5.69211 14.9051 5.15261 14.1241 4.94061L14.0471 4.92661L14.0306 4.84811C14.0091 4.72861 14.0906 4.61661 14.2766 4.49611C15.3541 3.78911 14.6216 2.88711 14.6216 2.88711C14.6216 2.88711 14.3146 3.60811 13.6261 3.60811L13.5746 3.60711C13.4966 3.60311 13.4211 3.60061 13.3451 3.58411L13.2181 3.55911C13.2181 3.55911 13.4146 3.02411 12.9406 2.53361C12.5841 2.16261 12.1496 2.09961 11.8991 2.09961C11.7726 2.09961 11.6926 2.11611 11.6926 2.11611C11.9306 2.42761 12.1026 2.94511 11.8276 3.26411C11.5901 3.53811 11.0101 3.55161 11.0101 3.96061C11.0101 4.13361 11.1716 4.33561 11.4616 4.51711C12.3336 5.06711 13.1991 5.79711 13.5591 6.77561C14.0091 7.99561 13.5021 8.80561 12.7791 9.27011C12.7791 9.27011 13.0061 9.47911 13.3346 9.50611C13.4016 9.51261 13.4671 9.51561 13.5281 9.51561C14.2226 9.51561 14.5816 9.18911 14.5816 9.18911C14.5816 9.18911 14.5221 9.64011 14.1616 10.0586C13.8276 10.4446 13.3901 10.6726 12.7226 10.6821C12.7226 10.6821 12.7016 10.9921 12.9971 11.2611C13.1866 11.4306 13.6231 11.4861 13.6231 11.4861C13.6231 11.4861 12.8051 11.6516 12.7146 12.8621C12.6656 13.5181 12.4986 13.7456 12.4986 13.7456H12.5131C14.4111 13.7456 14.3626 12.1146 14.3626 12.1146C14.3626 12.1146 14.4946 12.5976 15.0241 12.7236C15.0881 12.7406 15.1566 12.7471 15.2216 12.7471C15.3916 12.7471 15.5401 12.7071 15.5401 12.7071C15.5401 12.7071 15.2626 12.1211 15.5376 11.3016C15.7661 10.6211 15.7291 10.1171 15.7291 10.1171C15.7291 10.1171 15.9846 10.5046 16.6191 10.5081H16.6256C16.7754 10.5104 16.9235 10.4749 17.056 10.4048C17.1885 10.3347 17.3011 10.2323 17.3836 10.1071C16.1181 9.58061 16.2431 7.88211 16.2431 7.88211C16.2431 7.88211 16.4071 8.00461 16.7276 8.01661ZM4.08305 11.7806C3.32055 10.8866 2.66805 9.95761 2.58205 8.61861C2.50355 8.86211 2.17905 9.53711 1.66455 9.79161C1.66455 9.79161 2.31155 9.40061 2.60205 7.87711V7.88911C2.79455 6.33811 3.91855 5.21761 5.17005 4.53711C5.28505 4.47461 5.39305 4.42211 5.49555 4.37211C5.11555 4.43111 4.50155 4.43811 4.02805 4.02711C4.02805 4.02711 4.75305 4.56061 6.23605 4.07561C5.82605 4.34261 5.02805 4.71961 4.29955 5.32961C2.47705 6.93361 3.78055 8.49761 3.78055 8.49761C3.12555 7.81261 3.09855 7.08011 3.29155 6.48111C2.94655 7.05611 2.72555 7.75361 2.76155 8.61411C2.81105 9.84661 3.48655 10.9126 4.19655 11.7691C4.54055 12.1841 4.61805 12.6951 4.61805 12.6951C4.61805 12.6951 4.47805 12.2446 4.08305 11.7806ZM4.38805 11.4856C4.38805 11.4856 4.82455 11.4306 5.01405 11.2606C5.30905 10.9921 5.28855 10.6821 5.28855 10.6821C4.62055 10.6726 4.18355 10.4446 3.84805 10.0586C3.48905 9.64011 3.42905 9.18911 3.42905 9.18911C3.42905 9.18911 3.78805 9.51561 4.48155 9.51561C4.54405 9.51561 4.60905 9.51261 4.67555 9.50611C4.88075 9.48533 5.07489 9.40307 5.23255 9.27011C4.50855 8.80561 4.00155 7.99561 4.45105 6.77511C4.81105 5.79761 5.67605 5.06711 6.54905 4.51661C6.83855 4.33561 6.99955 4.13361 6.99955 3.96061C6.99955 3.55161 6.42055 3.53811 6.18305 3.26411C5.90805 2.94511 6.08055 2.42761 6.31805 2.11611C6.31805 2.11611 6.23855 2.09961 6.11155 2.09961C5.86155 2.09961 5.42705 2.16261 5.07005 2.53361C4.59505 3.02461 4.79255 3.55961 4.79255 3.55961L4.66555 3.58461C4.59005 3.60011 4.51355 3.60311 4.43555 3.60761L4.38555 3.60811C3.69555 3.60811 3.38905 2.88761 3.38905 2.88761C3.38905 2.88761 2.65755 3.78911 3.73505 4.49611C3.92005 4.61661 4.00155 4.72911 3.98005 4.84811L3.96355 4.92611L3.88505 4.94011C3.10555 5.15261 2.71005 5.69211 2.22705 6.30561C1.49405 7.23911 0.458052 7.26911 0.329552 7.26911H0.315552C0.315552 7.26911 0.552052 8.01761 1.25005 8.01761C1.26105 8.01761 1.27105 8.01761 1.28305 8.01661C1.60355 8.00511 1.76805 7.88211 1.76805 7.88211C1.76805 7.88211 1.89205 9.58061 0.627052 10.1071C0.627052 10.1071 0.857552 10.5086 1.38555 10.5086H1.39155C2.02655 10.5046 2.28155 10.1171 2.28155 10.1171C2.28155 10.1171 2.24455 10.6216 2.47205 11.3016C2.74705 12.1216 2.47105 12.7066 2.47105 12.7066C2.47105 12.7066 2.61855 12.7466 2.78905 12.7466C2.85505 12.7466 2.92255 12.7406 2.98605 12.7236C3.51505 12.5976 3.64755 12.1146 3.64755 12.1146C3.64755 12.1146 3.59905 13.7456 5.49755 13.7456H5.51155C5.51155 13.7456 5.34505 13.5181 5.29655 12.8621C5.20655 11.6521 4.38805 11.4856 4.38805 11.4856ZM8.57655 5.47561H9.47155V5.78311C9.36655 5.65411 9.16155 5.68061 9.16155 5.68061V6.12411C9.16155 6.12411 9.16855 6.34211 9.24555 6.43661H8.80255C8.88005 6.34211 8.88655 6.12411 8.88655 6.12411V5.68061C8.88655 5.68061 8.68255 5.65411 8.57655 5.78311V5.47561ZM7.60155 5.52161C7.63255 5.55511 7.66305 5.59161 7.69255 5.62811C7.69955 5.63661 7.70605 5.64411 7.71305 5.65411C7.74055 5.69011 7.76805 5.72911 7.79455 5.76811L7.81255 5.79461C7.84405 5.84261 7.87405 5.89211 7.90405 5.94361C8.17805 6.41711 8.61605 6.70011 9.00455 6.70061C9.39405 6.70011 9.83155 6.41711 10.1061 5.94361C10.1366 5.89111 10.1671 5.84011 10.1991 5.79211C10.2355 5.73618 10.2746 5.68196 10.3161 5.62961C10.3466 5.59161 10.3781 5.55461 10.4101 5.52061C10.4156 5.51561 10.4201 5.51011 10.4256 5.50561C10.5656 5.36261 10.7311 5.25361 10.9491 5.19311L10.8521 5.13661H10.8471L10.4611 4.91261L10.0656 4.68511L9.00755 5.26211L9.00455 5.25961L9.00305 5.26211L7.94505 4.68511L7.54905 4.91261L7.16305 5.13661H7.15855L7.06105 5.19311C7.27855 5.25311 7.44455 5.36111 7.58455 5.50461C7.59055 5.50961 7.59455 5.51661 7.60155 5.52161Z" fill="#282828"/>
<path fill-rule="evenodd" clip-rule="evenodd" d="M8.66802 3.51998V3.80998L8.61252 3.78398C8.61002 3.78198 8.52802 3.76398 8.38652 3.65098C8.15202 3.46898 8.14752 3.30098 8.14752 3.30098L8.66802 3.51998ZM8.91302 4.87848V3.07748L7.76902 2.68848L8.07102 4.43348L8.91302 4.87848ZM9.34302 3.51998L9.86302 3.30098C9.86302 3.30098 9.85902 3.46898 9.62352 3.65098C9.48202 3.76348 9.40052 3.78198 9.39802 3.78398L9.34302 3.80948V3.51998ZM9.93952 4.43398L10.24 2.68898L9.09652 3.07748V4.87848L9.93952 4.43398ZM7.29502 9.05348C7.40652 9.09348 7.54152 9.10198 7.61102 9.10198C7.61352 9.09348 7.61752 9.08298 7.62102 9.06998C7.62652 9.04998 7.63252 9.02898 7.63702 9.00698C7.65652 8.90698 7.66302 8.79448 7.66502 8.72148C7.60108 8.68346 7.54897 8.62841 7.51452 8.56248C7.47202 8.47298 7.41152 8.43098 7.32302 8.43098C7.20802 8.43098 7.08452 8.50098 7.03102 8.53298C6.98902 8.78198 7.17252 9.00848 7.29502 9.05348ZM9.82602 8.09798C9.61402 8.32948 9.19753 8.73298 9.17752 8.75298L9.15252 8.77798L7.83752 8.75748C7.83643 8.86627 7.82233 8.97453 7.79552 9.07998L7.78502 9.12148L9.34852 9.40348C9.51102 9.28948 9.95852 8.96198 10.1325 8.83348C10.006 8.64848 9.99402 8.42898 10.0225 8.27498C9.94746 8.22755 9.88101 8.1677 9.82602 8.09798Z" fill="#282828"/>
<path fill-rule="evenodd" clip-rule="evenodd" d="M10.0046 6.51417C9.70161 6.81517 9.41111 6.92667 9.15161 6.95267C9.10412 6.95782 9.05638 6.96049 9.00861 6.96067H9.00211C8.90665 6.96066 8.81146 6.9506 8.71811 6.93067C8.70111 6.99817 8.67961 7.13967 8.74111 7.27367C8.79611 7.39517 8.90761 7.48567 9.07061 7.54617L9.12561 7.56767L9.12611 7.62667C9.12611 7.64417 9.13911 8.02717 9.55611 8.13367C9.62411 8.06367 9.68611 8.00017 9.73111 7.94667C9.64611 7.74617 9.69111 7.54117 9.81461 7.44067C9.80961 7.46217 9.75461 7.96467 10.1571 8.15167L10.2236 8.18317L10.2036 8.25367C10.1971 8.27517 10.0631 8.76167 10.5506 8.94267L10.6366 8.97567L10.5981 9.05917C10.5896 9.07767 10.3986 9.51917 10.8486 9.77017H11.8241V8.99367C11.4771 8.95117 11.3306 8.67167 11.2926 8.47367C11.1311 8.44617 11.0066 8.37667 10.9211 8.26317C10.7161 7.99317 10.8921 7.74567 10.8946 7.73217C10.8941 7.73417 10.8946 7.99717 11.0566 8.16017C11.1371 8.23817 11.2321 8.29917 11.3766 8.31267L11.4471 8.31917L11.4531 8.39167C11.4546 8.40717 11.4931 8.76367 11.8241 8.81967L11.8236 7.23467C11.8236 6.98867 11.8951 6.74167 11.9811 6.51367L10.0046 6.51417ZM7.37811 7.24067L7.35211 8.24967L7.46711 8.26767L7.74711 7.29917L7.60461 7.00117L7.37811 7.24067ZM7.98511 10.9777C7.97742 10.9774 7.96986 10.9756 7.9629 10.9724C7.95593 10.9691 7.9497 10.9644 7.9446 10.9587C7.9395 10.9529 7.93563 10.9462 7.93322 10.9389C7.93081 10.9316 7.92993 10.9238 7.93061 10.9162C7.93105 10.9086 7.933 10.9012 7.93635 10.8944C7.9397 10.8875 7.94437 10.8815 7.9501 10.8765C7.95583 10.8715 7.9625 10.8677 7.96971 10.8653C7.97693 10.863 7.98454 10.8621 7.99211 10.8627C8.02511 10.8642 8.04811 10.8927 8.04711 10.9237C8.04596 10.939 8.0388 10.9533 8.0272 10.9634C8.01559 10.9735 8.00047 10.9786 7.98511 10.9777ZM10.4661 11.8712C10.4746 11.8712 10.4846 11.8722 10.4936 11.8747C10.6686 11.9247 10.7121 12.5537 11.0176 12.6097C11.0476 12.6162 11.0756 12.6177 11.0996 12.6177C11.1881 12.6177 11.2406 12.5802 11.2976 12.5127C11.2976 12.5127 11.1436 12.2712 11.0286 12.1077C10.8761 11.8937 10.7576 11.6352 10.4731 11.6352C10.4661 11.6352 10.4581 11.6352 10.4506 11.6362C10.3964 11.6384 10.344 11.6561 10.2996 11.6872C10.2046 11.6243 10.0935 11.5905 9.97961 11.5897C9.80211 11.5897 9.66311 11.6717 9.59361 11.6717H9.59111L8.95611 11.6087C8.85661 11.5987 8.77811 11.4987 8.74961 11.4597L8.73861 11.4427C8.73861 11.4252 8.73861 11.4077 8.73761 11.3922C8.71611 10.8717 8.31411 10.6492 8.17061 10.6452C8.17061 10.6452 8.18761 10.5462 8.14911 10.5087L8.00911 10.6787L7.54911 10.4477L7.87711 10.8317L7.59961 11.1442C7.56461 11.1797 7.56911 11.2277 7.58361 11.2482L7.70361 11.3542L7.85561 11.2617C7.86311 11.2562 7.87711 11.2542 7.89411 11.2542C7.93611 11.2542 7.99911 11.2652 8.05561 11.2652C8.11811 11.2652 8.17161 11.2522 8.17811 11.1937C8.15911 11.3867 7.98011 11.7222 8.09761 11.9857L8.18461 12.1847L7.62311 12.1037L7.36011 12.5482C7.27911 12.6962 7.26611 12.8562 7.34411 12.9432L7.44261 13.0667C7.44261 13.0667 7.58061 12.9202 7.61111 12.8237L7.56661 12.7747C7.52911 12.7332 7.53111 12.6962 7.55411 12.6517L7.71911 12.3777L8.38161 12.5342L8.41661 12.4742C8.46161 12.3992 8.52661 12.3772 8.59761 12.3772C8.62711 12.3772 8.65711 12.3807 8.68811 12.3857C8.81111 12.4102 9.01361 12.4427 9.21611 12.4427C9.43861 12.4427 9.65911 12.4027 9.77661 12.2712C10.0166 12.6277 10.5036 12.6842 10.4651 12.8657L10.3371 13.4767C10.4221 13.4727 10.5036 13.4672 10.5811 13.4567L10.7031 12.8212C10.713 12.7672 10.7217 12.713 10.7291 12.6587C10.6821 12.6107 10.5686 12.5102 10.5041 12.3877C10.4186 12.2222 10.4651 12.1357 10.3851 11.9207C10.3851 11.9207 10.4101 11.8712 10.4661 11.8712Z" fill="#282828"/>
<path fill-rule="evenodd" clip-rule="evenodd" d="M7.07957 12.4488C7.07957 12.4488 7.29957 12.3588 7.31957 12.2938L7.28957 12.2208C7.26907 12.1728 7.27157 12.1208 7.31207 12.0928L7.54907 11.9283L7.94557 12.0048C7.94557 12.0048 7.87357 11.9148 7.88057 11.7948L7.50257 11.7148L7.14557 11.9323C7.08328 11.9785 7.03826 12.0443 7.01768 12.119C6.99711 12.1938 7.00218 12.2733 7.03207 12.3448L7.07957 12.4488ZM9.88307 13.4848C9.95357 13.4818 10.0326 13.4808 10.1181 13.4808C10.1181 13.4808 10.3221 12.8833 10.3336 12.8643C10.1821 12.7937 10.0342 12.7154 9.89057 12.6298C9.95107 12.7208 10.0981 12.8243 10.0691 12.9043L9.88307 13.4848Z" fill="#282828"/>
<path fill-rule="evenodd" clip-rule="evenodd" d="M11.824 9.94165H6.18653V12.0661C6.18653 12.9351 6.81403 13.4786 7.74053 13.4786C8.51403 13.4786 8.71803 13.5086 9.00553 13.7951C9.20403 13.5966 9.36803 13.5231 9.70553 13.4951L9.71303 13.4626L9.89053 12.9121C9.88053 12.8996 9.59053 12.5691 9.59053 12.5691C9.47553 12.6076 9.37853 12.6141 9.21553 12.6141C9.04903 12.6141 8.86053 12.5941 8.65603 12.5561C8.63686 12.5516 8.61723 12.5493 8.59753 12.5491C8.57253 12.5491 8.57103 12.5511 8.56403 12.5636L8.52903 12.6221L8.46403 12.7291L8.34253 12.7006L7.80153 12.5731L7.72703 12.6956L7.73853 12.7091L7.80403 12.7816L7.77503 12.8766C7.73503 13.0001 7.60603 13.1446 7.56653 13.1846L7.43153 13.3296L7.21553 13.0576C7.11803 12.9486 7.09553 12.7816 7.15053 12.6066L7.14503 12.6086L6.99253 12.6721L6.92403 12.5221L6.87553 12.4166C6.82897 12.3087 6.82059 12.1881 6.85177 12.0748C6.88294 11.9614 6.95182 11.8621 7.04703 11.7931L7.48203 11.5466L7.89703 11.6281C7.90703 11.5881 7.92203 11.4461 7.93353 11.4096C7.92553 11.4086 7.91803 11.4071 7.91003 11.4071L7.67103 11.4961L7.44103 11.3371C7.44103 11.3371 7.35103 11.2501 7.43253 11.1631L7.65503 10.8246L7.09003 10.1146L7.95853 10.4716L8.01653 10.4001L8.13353 10.2591L8.26653 10.3861C8.3015 10.4203 8.32582 10.4639 8.33653 10.5116C8.57553 10.6051 9.00453 10.8806 9.04253 11.3286L8.90853 11.3821V11.3856C8.93903 11.4221 8.96453 11.4371 8.97253 11.4386L9.59253 11.4996C9.60853 11.4966 9.62753 11.4896 9.64953 11.4836C9.72703 11.4571 9.84253 11.4186 9.97953 11.4186C10.0915 11.4186 10.1995 11.4446 10.303 11.4936C10.3415 11.4786 10.388 11.4681 10.443 11.4646L10.473 11.4636C10.8045 11.4636 10.9695 11.7121 11.102 11.9106C11.124 11.9451 11.146 11.9771 11.169 12.0091C11.285 12.1731 11.4365 12.4126 11.4425 12.4231L11.511 12.5296L11.427 12.6276C11.363 12.7026 11.2655 12.7901 11.0995 12.7901C11.0619 12.7898 11.0244 12.786 10.9875 12.7786C10.9535 12.7721 10.9203 12.7619 10.8885 12.7481C10.8834 12.7834 10.8776 12.8186 10.871 12.8536L10.7625 13.4221C11.4125 13.2621 11.8255 12.7701 11.8255 12.0661L11.824 9.94165ZM6.18653 9.77065H10.5715C10.3525 9.54365 10.356 9.25715 10.4115 9.07065C10.3524 9.04223 10.2974 9.0059 10.248 8.96265C10.0765 9.08915 9.55353 9.47065 9.41703 9.56665L9.38753 9.58665L7.66653 9.27465H7.63153C7.59053 9.27465 7.53003 9.27315 7.46403 9.26465C7.45697 9.29625 7.4409 9.32513 7.41776 9.34779C7.39462 9.37044 7.36542 9.38591 7.33367 9.39231C7.30193 9.39871 7.26901 9.39578 7.2389 9.38386C7.2088 9.37194 7.18279 9.35154 7.16403 9.32515C7.15085 9.30713 7.14141 9.28665 7.13626 9.26493C7.1311 9.2432 7.13035 9.22067 7.13403 9.19865L7.14053 9.16115C6.96353 9.03615 6.79903 8.75615 6.87203 8.46115L6.87903 8.43015L6.90403 8.41215C6.92926 8.39493 6.95529 8.37891 6.98203 8.36415L6.85703 8.34415C6.83483 8.34034 6.81499 8.32802 6.80173 8.30981C6.78847 8.29161 6.78284 8.26894 6.78603 8.24665C6.79403 8.19965 6.83753 8.16665 6.88403 8.17515L7.18153 8.22215L7.20903 7.17165L7.65203 6.70165L7.92903 7.28515L7.63703 8.29615L7.90003 8.33765C7.92249 8.34133 7.94257 8.35376 7.95588 8.37223C7.96919 8.39069 7.97464 8.41368 7.97103 8.43615C7.96781 8.45606 7.95757 8.47416 7.94216 8.48719C7.92676 8.50021 7.9072 8.50729 7.88703 8.50715L7.87353 8.50665L7.65903 8.47165C7.66203 8.47865 7.66603 8.48215 7.66903 8.48915C7.6929 8.53055 7.72883 8.56369 7.77203 8.58415L9.08353 8.60565C9.13903 8.55115 9.27653 8.41615 9.41853 8.27315C9.29493 8.22778 9.18642 8.14888 9.10517 8.04528C9.02392 7.94168 8.97314 7.81749 8.95853 7.68665C8.77853 7.60965 8.65353 7.49465 8.58453 7.34465C8.50053 7.15865 8.53053 6.97265 8.55303 6.88215C8.37803 6.81865 8.19403 6.70165 8.00603 6.51465H6.03003C6.11503 6.74265 6.18653 6.98965 6.18653 7.23515V9.77065Z" fill="#282828"/>
<path fill-rule="evenodd" clip-rule="evenodd" d="M7.99211 10.8627C7.98454 10.8621 7.97693 10.863 7.96971 10.8653C7.9625 10.8677 7.95583 10.8715 7.9501 10.8765C7.94437 10.8815 7.9397 10.8875 7.93635 10.8944C7.933 10.9012 7.93105 10.9086 7.93061 10.9162C7.92993 10.9238 7.93081 10.9316 7.93322 10.9389C7.93563 10.9462 7.9395 10.9529 7.9446 10.9587C7.9497 10.9644 7.95593 10.9691 7.9629 10.9724C7.96986 10.9756 7.97742 10.9774 7.98511 10.9777C8.00047 10.9786 8.01559 10.9735 8.0272 10.9634C8.0388 10.9533 8.04596 10.939 8.04711 10.9237C8.04793 10.9082 8.04251 10.8939 8.03221 10.8824C8.0219 10.8709 8.00754 10.8636 7.99211 10.8627ZM10.6046 15.3175L10.3476 14.6075C10.6541 14.5145 11.1806 14.3135 11.4166 14.1795L11.2591 14.696L11.7931 14.8735C11.4701 15.036 11.0786 15.1875 10.6046 15.3175ZM9.00606 15.955C8.38556 15.955 7.67756 15.812 7.46856 15.7375L7.78552 14.879C8.04852 14.956 8.59556 15.037 8.99306 15.0345H9.01806C9.41506 15.037 9.96156 14.9555 10.2261 14.8785L10.5426 15.7375C10.3341 15.812 9.62556 15.955 9.00606 15.955ZM6.21756 14.8735L6.75206 14.696L6.59406 14.1795C6.82956 14.313 7.35752 14.515 7.66302 14.608L7.40552 15.318C6.93302 15.188 6.54006 15.0355 6.21756 14.8735ZM11.817 14.7165L11.492 14.5915L11.6805 13.889C11.6805 13.889 11.1055 14.202 10.294 14.4365C10.064 14.5025 9.89002 14.533 9.89002 14.533V14.7825C9.89002 14.7825 9.45602 14.8575 9.01802 14.8575H8.99302C8.55402 14.8575 8.12102 14.7825 8.12102 14.7825V14.5325C8.12102 14.5325 7.94652 14.5025 7.71652 14.4365C6.90602 14.2015 6.33102 13.889 6.33102 13.889L6.42802 14.2555L6.52002 14.5915L6.19402 14.7165L5.83252 14.8515C6.24652 15.052 6.82052 15.3435 7.34552 15.4875L7.22202 15.8265C7.22202 15.8265 7.88802 16.1305 8.99752 16.1335L9.01252 16.134C10.1235 16.131 10.7895 15.8265 10.7895 15.8265L10.6645 15.4875C11.19 15.3435 11.765 15.0525 12.177 14.8515L11.817 14.7165ZM7.64906 1.03799L7.79706 1.05349L7.86056 0.918492L8.04706 0.519992L8.39206 0.698992L8.52552 0.768L9.00456 0.291992L9.37806 0.661992L9.48502 0.768L9.61906 0.698992L9.96206 0.519992L10.1511 0.918492L10.2135 1.054L10.3611 1.03799L10.5021 1.02099C10.4376 1.16649 10.39 1.3055 10.3555 1.4205C9.98302 1.212 9.49856 1.09349 9.00456 1.09349C8.51256 1.09349 8.02902 1.212 7.65502 1.4205C7.61468 1.2846 7.56596 1.15083 7.50906 1.02099L7.64906 1.03799ZM9.00452 1.3015C9.66602 1.3015 10.1945 1.5215 10.487 1.755C10.487 1.755 10.574 1.2315 10.87 0.77L10.3375 0.83L10.059 0.2375L9.52402 0.514L9.00452 0L8.48702 0.514L7.95102 0.2375L7.67302 0.8305L7.14052 0.7695C7.43702 1.2315 7.52352 1.7545 7.52352 1.7545C7.81752 1.521 8.34452 1.3015 9.00452 1.3015ZM17.3836 10.1071C17.3836 10.1071 17.1536 10.5081 16.6256 10.5081H16.6191C15.9846 10.5046 15.7291 10.1171 15.7291 10.1171C15.7291 10.1171 15.7661 10.6211 15.5376 11.3016C15.2626 12.1211 15.5401 12.7071 15.5401 12.7071C15.5401 12.7071 15.3916 12.7471 15.2216 12.7471C15.1566 12.7471 15.0881 12.7406 15.0241 12.7236C14.4946 12.5976 14.3626 12.1146 14.3626 12.1146C14.3626 12.1146 14.4111 13.7456 12.5131 13.7456H12.4986C12.4986 13.7456 12.6656 13.5181 12.7146 12.8621C12.8051 11.6516 13.6231 11.4861 13.6231 11.4861C13.6231 11.4861 13.1866 11.4306 12.9971 11.2611C12.7016 10.9921 12.7226 10.6821 12.7226 10.6821C13.3901 10.6726 13.8276 10.4446 14.1616 10.0586C14.3765 9.81133 14.5215 9.51116 14.5816 9.18911C14.5816 9.18911 14.2226 9.51561 13.5281 9.51561C13.4671 9.51561 13.4016 9.51261 13.3346 9.50611C13.0061 9.47911 12.7791 9.27011 12.7791 9.27011C13.5021 8.80561 14.0091 7.99561 13.5591 6.77561C13.1991 5.79711 12.3336 5.06711 11.4616 4.51711C11.1716 4.33561 11.0101 4.13361 11.0101 3.96061C11.0101 3.55161 11.5901 3.53811 11.8276 3.26411C12.1026 2.94511 11.9306 2.42761 11.6926 2.11611C11.6926 2.11611 11.7726 2.09961 11.8991 2.09961C12.1496 2.09961 12.5841 2.16261 12.9406 2.53361C13.4146 3.02411 13.2181 3.55911 13.2181 3.55911L13.3451 3.58411C13.4211 3.59961 13.4961 3.60311 13.5746 3.60711L13.6261 3.60811C14.3146 3.60811 14.6216 2.88711 14.6216 2.88711C14.6216 2.88711 15.3541 3.78911 14.2766 4.49611C14.0906 4.61661 14.0091 4.72861 14.0306 4.84811L14.0471 4.92661L14.1241 4.94061C14.9051 5.15261 15.3006 5.69211 15.7826 6.30561C16.5156 7.23911 17.5526 7.26911 17.6806 7.26911H17.6941C17.6941 7.26911 17.4581 8.01761 16.7606 8.01761C16.7491 8.01761 16.7391 8.01761 16.7276 8.01661C16.4071 8.00461 16.2431 7.88211 16.2431 7.88211C16.2431 7.88211 16.1181 9.58061 17.3836 10.1071ZM16.7605 8.2465C17.6155 8.2465 17.9015 7.375 17.9135 7.338L18.0085 7.0305L17.6885 7.0405C17.575 7.0405 16.631 7.0155 15.9625 6.164L15.899 6.085C15.462 5.5285 15.0475 4.999 14.3065 4.7575C14.3361 4.73157 14.3677 4.708 14.401 4.687C14.794 4.428 15.023 4.1135 15.08 3.748C15.1645 3.1985 14.814 2.7605 14.799 2.7425L14.561 2.4475L14.412 2.7975C14.402 2.819 14.152 3.379 13.626 3.379H13.587C13.551 3.3775 13.5165 3.376 13.4825 3.373C13.501 3.123 13.4555 2.737 13.1055 2.374C12.685 1.9375 12.169 1.872 11.899 1.872C11.755 1.872 11.659 1.89 11.6485 1.891L11.289 1.9625L11.5105 2.255C11.6845 2.481 11.8425 2.8975 11.6555 3.115C11.5955 3.185 11.4725 3.2405 11.355 3.297C11.113 3.4085 10.782 3.5645 10.782 3.96C10.782 4.216 10.9805 4.4845 11.3405 4.712C12.4045 5.3825 13.0615 6.0825 13.345 6.855C13.784 8.043 13.2115 8.721 12.655 9.078L12.406 9.2385L12.6245 9.4395C12.654 9.4655 12.9205 9.701 13.315 9.735C13.39 9.74 13.4615 9.744 13.5285 9.744C13.781 9.744 13.9965 9.704 14.1715 9.651C14.1192 9.74229 14.0583 9.82835 13.9895 9.908C13.672 10.277 13.281 10.445 12.7185 10.454L12.5095 10.457L12.4935 10.667C12.4915 10.7095 12.476 11.099 12.8435 11.43C12.9 11.481 12.968 11.5235 13.0395 11.5575C12.7895 11.7825 12.5365 12.1745 12.4875 12.8455C12.446 13.4055 12.3125 13.613 12.311 13.6155L12.08 13.9685L12.4975 13.974C13.187 13.974 13.715 13.784 14.0805 13.406C14.2698 13.2075 14.4111 12.9682 14.4935 12.7065C14.6966 12.8796 14.9547 12.9747 15.2215 12.9745C15.4165 12.9745 15.5795 12.933 15.5975 12.929L15.864 12.858L15.7465 12.609C15.7375 12.589 15.5155 12.089 15.7545 11.3755C15.8575 11.067 15.91 10.791 15.9355 10.5755C16.1035 10.6635 16.328 10.7355 16.6185 10.7365C17.2785 10.7365 17.569 10.243 17.582 10.2225L17.712 9.9955L17.471 9.8965C16.685 9.5695 16.511 8.6915 16.476 8.2165C16.5475 8.23 16.6285 8.2425 16.72 8.245L16.7605 8.2465Z" fill="#282828"/>
<path fill-rule="evenodd" clip-rule="evenodd" d="M15.8001 4.51849C15.9591 4.51849 16.145 4.57357 16.32 4.75507C16.871 5.31507 17.3835 5.34657 17.3835 5.34657C17.2905 5.55307 17.0206 5.73399 16.7411 5.73399C16.6766 5.73399 16.6106 5.72449 16.5471 5.70199C16.1676 5.57399 16.0325 5.00457 15.367 4.65007C15.367 4.65007 15.5521 4.51849 15.8001 4.51849ZM15.2585 4.85207C15.577 5.02207 15.763 5.25057 15.926 5.45257C16.086 5.65007 16.2375 5.84007 16.476 5.91907C16.56 5.94807 16.6495 5.96207 16.741 5.96207C17.0975 5.96207 17.456 5.74307 17.592 5.44007L17.7285 5.13707L17.398 5.11707C17.3825 5.11707 16.957 5.07757 16.484 4.59357C16.289 4.39457 16.0535 4.29057 15.8 4.29057C15.49 4.29057 15.26 4.44557 15.235 4.46157L14.931 4.67607L15.2585 4.85207ZM15.4081 7.87711V7.88911C15.2161 6.33811 14.0921 5.21761 12.8406 4.53661C12.7256 4.47511 12.6181 4.42211 12.5146 4.37161C12.8951 4.43111 13.5086 4.43811 13.9826 4.02661C13.9826 4.02661 13.2576 4.56061 11.7741 4.07561C12.1846 4.34261 12.9826 4.71961 13.7116 5.32961C15.5336 6.93361 14.2301 8.49761 14.2301 8.49761C14.8846 7.81311 14.9121 7.07961 14.7191 6.48111C15.0641 7.05611 15.2846 7.75361 15.2501 8.61361C15.1996 9.84661 14.5236 10.9126 13.8121 11.7686C13.4701 12.1836 13.3936 12.6956 13.3936 12.6956C13.3936 12.6956 13.5316 12.2446 13.9276 11.7806C14.6901 10.8866 15.3426 9.95761 15.4276 8.61861C15.5066 8.86161 15.8316 9.53661 16.3466 9.79161C16.3466 9.79161 15.6986 9.40061 15.4081 7.87711ZM5.49755 13.7456C3.59905 13.7456 3.64755 12.1146 3.64755 12.1146C3.64755 12.1146 3.51505 12.5976 2.98605 12.7236C2.92149 12.7399 2.85562 12.7473 2.78905 12.7466C2.61855 12.7466 2.47105 12.7066 2.47105 12.7066C2.47105 12.7066 2.74705 12.1216 2.47205 11.3016C2.24455 10.6216 2.28155 10.1171 2.28155 10.1171C2.28155 10.1171 2.02655 10.5046 1.39155 10.5086H1.38555C0.857552 10.5086 0.627052 10.1071 0.627052 10.1071C1.89205 9.58061 1.76805 7.88211 1.76805 7.88211C1.76805 7.88211 1.60355 8.00511 1.28305 8.01661L1.25005 8.01761C0.552052 8.01761 0.315552 7.26911 0.315552 7.26911H0.329552C0.458052 7.26911 1.49405 7.23911 2.22705 6.30561C2.71005 5.69211 3.10555 5.15261 3.88505 4.94011L3.96355 4.92611L3.98005 4.84811C4.00155 4.72911 3.92005 4.61661 3.73505 4.49611C2.65755 3.78911 3.38905 2.88761 3.38905 2.88761C3.38905 2.88761 3.69555 3.60811 4.38555 3.60811L4.43555 3.60761C4.51355 3.60311 4.59005 3.60011 4.66555 3.58461L4.79255 3.55961C4.79255 3.55961 4.59505 3.02461 5.07005 2.53361C5.42705 2.16261 5.86155 2.09961 6.11155 2.09961C6.23855 2.09961 6.31805 2.11611 6.31805 2.11611C6.08105 2.42761 5.90905 2.94511 6.18305 3.26411C6.42055 3.53811 6.99955 3.55161 6.99955 3.96061C6.99955 4.13361 6.83855 4.33561 6.54905 4.51661C5.67605 5.06711 4.81105 5.79761 4.45105 6.77511C4.00155 7.99561 4.50855 8.80561 5.23255 9.27011C5.23255 9.27011 5.00455 9.47961 4.67555 9.50611C4.61107 9.51232 4.54633 9.51549 4.48155 9.51561C3.78805 9.51561 3.42905 9.18911 3.42905 9.18911C3.42905 9.18911 3.48905 9.64011 3.84805 10.0586C4.18355 10.4446 4.62055 10.6726 5.28855 10.6821C5.28855 10.6821 5.30905 10.9921 5.01405 11.2606C4.82455 11.4306 4.38805 11.4856 4.38805 11.4856C4.38805 11.4856 5.20655 11.6521 5.29655 12.8621C5.34505 13.5181 5.51155 13.7456 5.51155 13.7456H5.49755ZM5.6995 13.6156C5.699 13.6131 5.5665 13.4056 5.524 12.8456C5.474 12.1746 5.221 11.7826 4.9705 11.5576C5.043 11.5236 5.1105 11.4811 5.1665 11.4301C5.534 11.0991 5.5185 10.7101 5.516 10.6671L5.502 10.4571L5.2915 10.4541C4.7305 10.4451 4.339 10.2771 4.0215 9.90807C3.95306 9.82818 3.89213 9.74215 3.8395 9.65107C4.0145 9.70457 4.2285 9.74407 4.482 9.74407C4.5495 9.74407 4.6205 9.74007 4.695 9.73507C4.9502 9.70958 5.19149 9.60664 5.3865 9.44007L5.605 9.23857L5.356 9.07857C4.798 8.72107 4.2275 8.04357 4.666 6.85507C4.9495 6.08257 5.605 5.38307 6.671 4.71207C7.031 4.48457 7.228 4.21607 7.228 3.96007C7.228 3.56457 6.898 3.40857 6.656 3.29707C6.538 3.24057 6.415 3.18457 6.3555 3.11507C6.168 2.89757 6.3255 2.48107 6.5 2.25507L6.723 1.96257L6.3615 1.89107C6.3515 1.88957 6.2565 1.87207 6.1115 1.87207C5.842 1.87207 5.3265 1.93757 4.9065 2.37407C4.556 2.73707 4.51 3.12357 4.528 3.37307C4.494 3.37607 4.46 3.37757 4.424 3.37907H4.3855C3.8575 3.37907 3.6085 2.81907 3.599 2.79757L3.4505 2.44757L3.2105 2.74257C3.197 2.76057 2.8455 3.19857 2.9315 3.74807C2.988 4.11307 3.217 4.42807 3.61 4.68707C3.653 4.71457 3.6825 4.73807 3.704 4.75757C2.962 4.99907 2.5485 5.52857 2.1115 6.08507L2.0485 6.16407C1.3805 7.01557 0.435 7.04107 0.322 7.04107L0 7.03107L0.098 7.33807C0.1095 7.37507 0.3945 8.24657 1.25 8.24657L1.291 8.24507C1.3815 8.24257 1.463 8.23007 1.535 8.21607C1.5 8.69107 1.325 9.56957 0.539 9.89607L0.299 9.99607L0.429 10.2226C0.441 10.2431 0.733 10.7366 1.394 10.7366C1.63058 10.7389 1.86422 10.684 2.075 10.5766C2.1005 10.7916 2.1535 11.0671 2.2565 11.3756C2.4955 12.0886 2.273 12.5891 2.2645 12.6091L2.1465 12.8581L2.413 12.9286C2.431 12.9336 2.595 12.9746 2.789 12.9746C3.05592 12.9753 3.31423 12.8802 3.517 12.7066C3.5895 12.9301 3.714 13.1826 3.9295 13.4061C4.2965 13.7836 4.824 13.9741 5.513 13.9741L5.9305 13.9686L5.6995 13.6156Z" fill="#282828"/>
<path fill-rule="evenodd" clip-rule="evenodd" d="M1.69006 4.75449C1.86606 4.57249 2.05156 4.51849 2.21156 4.51849C2.45756 4.51849 2.64356 4.64949 2.64356 4.64949C1.97856 5.00449 1.84207 5.57426 1.46207 5.70276C1.40018 5.72421 1.33506 5.7341 1.26956 5.73349C0.990063 5.73349 0.719563 5.55249 0.627563 5.34599C0.627563 5.34599 1.13956 5.31449 1.69006 4.75449ZM1.26957 5.96226C1.36107 5.96226 1.45057 5.94826 1.53557 5.91926C1.77357 5.84026 1.92557 5.65076 2.08557 5.45276C2.24907 5.25126 2.43307 5.02276 2.75207 4.85276L3.08007 4.67626L2.77507 4.46126C2.75007 4.44576 2.52157 4.29126 2.21157 4.29126C1.95757 4.29126 1.72157 4.39476 1.52707 4.59376C1.05357 5.07826 0.629069 5.11726 0.613569 5.11776L0.283569 5.13726L0.418569 5.44076C0.555569 5.74326 0.913569 5.96226 1.26957 5.96226ZM2.76155 8.61411C2.72555 7.75361 2.94655 7.05611 3.29155 6.48111C3.09955 7.08011 3.12455 7.81261 3.78055 8.49761C3.78055 8.49761 2.47705 6.93361 4.29955 5.32961C5.02805 4.71961 5.82605 4.34261 6.23605 4.07561C4.75305 4.56061 4.02805 4.02711 4.02805 4.02711C4.50155 4.43861 5.11505 4.43211 5.49555 4.37211C5.39305 4.42211 5.28505 4.47461 5.17005 4.53711C3.91855 5.21761 2.79455 6.33811 2.60205 7.88911V7.87711C2.31155 9.40061 1.66455 9.79161 1.66455 9.79161C2.17905 9.53711 2.50355 8.86211 2.58205 8.61861C2.66805 9.95761 3.32055 10.8866 4.08305 11.7806C4.47905 12.2441 4.61805 12.6951 4.61805 12.6951C4.61805 12.6951 4.54055 12.1841 4.19655 11.7691C3.48655 10.9126 2.81105 9.84661 2.76155 8.61411ZM8.57655 5.47561V5.78311C8.68255 5.65411 8.88655 5.68061 8.88655 5.68061V6.12411C8.88655 6.12411 8.88005 6.34211 8.80255 6.43661H9.24555C9.16855 6.34211 9.16155 6.12411 9.16155 6.12411V5.68061C9.16155 5.68061 9.36655 5.65411 9.47155 5.78311V5.47561H8.57655ZM8.38652 3.65098C8.52802 3.76398 8.61002 3.78198 8.61252 3.78398L8.66802 3.80998V3.51998L8.14752 3.30098C8.14752 3.30098 8.15202 3.46898 8.38652 3.65098ZM9.62352 3.65098C9.85902 3.46898 9.86302 3.30098 9.86302 3.30098L9.34302 3.51998L9.34307 3.81076L9.39802 3.78398C9.40052 3.78198 9.48202 3.76348 9.62352 3.65098Z" fill="#282828"/>
<path fill-rule="evenodd" clip-rule="evenodd" d="M9.00456 2.87899L7.75106 2.38399C7.85806 2.13049 8.34956 1.91549 9.00456 1.91499C9.66106 1.91549 10.1526 2.13049 10.2586 2.38399L9.00456 2.87899ZM9.93952 4.43398L9.09652 4.87848V3.07748L10.24 2.68898L9.93952 4.43398ZM10.4611 4.91261L10.8471 5.13661H10.8521L10.9491 5.19311C10.7311 5.25361 10.5656 5.36261 10.4256 5.50561L10.4101 5.52061C10.3772 5.55571 10.3461 5.59207 10.3161 5.62961L10.2986 5.65222C10.2686 5.69072 10.2401 5.73022 10.2136 5.77122L10.1991 5.79211C10.1666 5.84162 10.1353 5.89214 10.1061 5.94361C9.83155 6.41711 9.39405 6.70011 9.00455 6.70061C8.61605 6.70011 8.17805 6.41711 7.90405 5.94361C7.87492 5.89311 7.84441 5.84343 7.81255 5.79461L7.79455 5.76811C7.76842 5.7295 7.74092 5.69149 7.71305 5.65411C7.70605 5.64411 7.69955 5.63661 7.69255 5.62811C7.6632 5.59164 7.63318 5.55612 7.60155 5.52161C7.59455 5.51661 7.59055 5.50961 7.58455 5.50461C7.4417 5.35501 7.26068 5.2473 7.06105 5.19311L7.15855 5.13661H7.16305L7.54905 4.91261L7.94505 4.68511L9.00305 5.26211L9.00455 5.25961L9.00755 5.26211L10.0656 4.68511L10.4611 4.91261ZM11.9811 6.51367C11.8951 6.74167 11.8236 6.98867 11.8236 7.23467L11.8241 8.81967C11.4936 8.76467 11.4541 8.40717 11.4531 8.39167L11.4471 8.31917L11.3766 8.31267C11.2554 8.30198 11.1411 8.24782 11.0566 8.16017C10.8946 7.99717 10.8941 7.73417 10.8946 7.73217C10.8926 7.74567 10.7171 7.99317 10.9211 8.26317C11.0071 8.37717 11.1316 8.44722 11.2926 8.47472C11.3306 8.67222 11.4776 8.95172 11.8246 8.99472L11.8241 9.77017H10.8486C10.3986 9.51917 10.5896 9.07767 10.5981 9.05917L10.6366 8.97567L10.5506 8.94267C10.0631 8.76167 10.1971 8.27517 10.2036 8.25367L10.2236 8.18317L10.1571 8.15167C9.75461 7.96467 9.80961 7.46217 9.81461 7.44067C9.69061 7.54117 9.64611 7.74517 9.73111 7.94667C9.68511 7.99967 9.62361 8.06367 9.55611 8.13367C9.43866 8.10802 9.33288 8.04448 9.25517 7.95276C9.17745 7.86104 9.13213 7.74674 9.12611 7.62667L9.12561 7.56767L9.07061 7.54617C8.90761 7.48567 8.79611 7.39517 8.74111 7.27367C8.67961 7.13967 8.70111 6.99817 8.71811 6.93067C8.81146 6.9506 8.90665 6.96066 9.00211 6.96067H9.00861C9.05638 6.96049 9.10412 6.95782 9.15161 6.95267C9.41111 6.92667 9.70161 6.81517 10.0046 6.51417L11.9811 6.51367ZM10.7625 13.4221L10.871 12.8536L10.8885 12.7481C10.9558 12.7745 11.0273 12.7891 11.0995 12.7901C11.2655 12.7901 11.363 12.7026 11.427 12.6276L11.511 12.5296L11.4425 12.4231C11.4365 12.4126 11.285 12.1731 11.169 12.0091C11.146 11.9767 11.1238 11.9433 11.1026 11.9097C10.9701 11.7117 10.805 11.4636 10.473 11.4636L10.443 11.4646C10.3952 11.4672 10.348 11.4773 10.303 11.4936C10.202 11.4453 10.0915 11.4191 9.97953 11.4186C9.86688 11.4214 9.75554 11.4431 9.65007 11.4827C9.62807 11.4892 9.60803 11.4966 9.59253 11.4996L8.97253 11.4386C8.96453 11.4371 8.93903 11.4221 8.90853 11.3856V11.3821L9.04253 11.3286C9.00453 10.8806 8.57553 10.6051 8.33653 10.5116C8.32582 10.4639 8.3015 10.4203 8.26653 10.3861L8.13353 10.2591L8.01653 10.4001L7.95853 10.4716L7.09003 10.1146L7.65503 10.8246L7.43253 11.1631C7.35103 11.2501 7.44103 11.3371 7.44103 11.3371L7.67103 11.4961L7.91003 11.4071C7.91803 11.4071 7.92553 11.4086 7.93353 11.4096C7.92203 11.4461 7.90703 11.5881 7.89703 11.6281L7.48203 11.5466L7.04703 11.7931C6.82253 11.9581 6.79203 12.2301 6.87553 12.4166L6.92403 12.5221L6.99253 12.6721L7.14503 12.6086C7.14753 12.6076 7.14957 12.6072 7.15107 12.6057C7.09607 12.7812 7.11803 12.9481 7.21553 13.0576L7.43153 13.3296L7.56653 13.1846C7.60603 13.1446 7.73503 13.0001 7.77503 12.8766L7.80403 12.7816L7.73853 12.7091L7.72703 12.6956L7.80153 12.5731L8.34253 12.7006L8.46403 12.7291L8.52957 12.6212L8.56403 12.5636C8.57103 12.5511 8.57253 12.5491 8.59753 12.5491C8.61703 12.5491 8.63553 12.5511 8.65603 12.5561C8.84052 12.5926 9.02853 12.6114 9.21657 12.6132C9.37807 12.6132 9.47553 12.6076 9.59053 12.5691C9.59053 12.5691 9.88053 12.8996 9.89053 12.9121L9.71303 13.4626L9.70553 13.4951C9.36903 13.5226 9.20403 13.5966 9.00553 13.7951C8.71803 13.5086 8.51403 13.4786 7.74053 13.4786C6.81403 13.4786 6.18653 12.9351 6.18653 12.0661V9.94165H11.824L11.8255 12.0661C11.8255 12.7701 11.4125 13.2621 10.7625 13.4221ZM7.28957 12.2208L7.31957 12.2938C7.29957 12.3588 7.07957 12.4488 7.07957 12.4488L7.03207 12.3448C7.00218 12.2733 6.99711 12.1938 7.01768 12.119C7.03826 12.0443 7.08328 11.9785 7.14557 11.9323L7.50257 11.7148L7.88057 11.7948C7.87357 11.9148 7.94557 12.0048 7.94557 12.0048L7.54907 11.9283L7.31207 12.0928C7.27157 12.1208 7.26907 12.1728 7.28957 12.2208ZM10.7031 12.8212L10.5811 13.4567C10.5031 13.4677 10.4211 13.4737 10.3371 13.4767L10.4651 12.8657C10.5036 12.6842 10.0166 12.6277 9.77661 12.2712C9.65911 12.4027 9.43861 12.4427 9.21611 12.4427C9.01361 12.4427 8.81111 12.4102 8.68811 12.3857C8.65838 12.3805 8.62779 12.3777 8.59761 12.3772C8.52661 12.3772 8.46161 12.3992 8.41661 12.4742L8.38161 12.5342L7.71911 12.3777L7.55411 12.6517C7.53111 12.6962 7.52911 12.7332 7.56661 12.7747L7.61111 12.8237C7.58061 12.9202 7.44261 13.0667 7.44261 13.0667L7.34411 12.9432C7.26611 12.8562 7.27911 12.6962 7.36011 12.5482L7.62311 12.1037L8.18461 12.1847L8.09761 11.9857C7.98011 11.7222 8.15911 11.3867 8.17811 11.1937C8.17161 11.2522 8.11811 11.2652 8.05561 11.2652C7.99911 11.2652 7.93611 11.2542 7.89411 11.2542C7.87711 11.2542 7.86311 11.2562 7.85561 11.2617L7.70361 11.3542L7.58361 11.2482C7.56911 11.2277 7.56461 11.1797 7.59961 11.1442L7.87711 10.8317L7.54911 10.4477L8.00911 10.6787L8.14911 10.5087C8.18761 10.5462 8.17061 10.6452 8.17061 10.6452C8.31411 10.6492 8.71611 10.8717 8.73761 11.3922C8.73861 11.4077 8.73861 11.4252 8.73861 11.4427L8.74961 11.4597C8.77811 11.4992 8.85661 11.5997 8.95611 11.6087L9.59111 11.6717H9.59361C9.66311 11.6717 9.80211 11.5897 9.97961 11.5897C10.0771 11.5897 10.1846 11.6147 10.2996 11.6872C10.2996 11.6872 10.3571 11.6412 10.4506 11.6362C10.4581 11.6352 10.4661 11.6352 10.4731 11.6352C10.7576 11.6352 10.8761 11.8937 11.0286 12.1077C11.1436 12.2712 11.2976 12.5127 11.2976 12.5127C11.2406 12.5802 11.1881 12.6177 11.0996 12.6177C11.0721 12.6178 11.0446 12.6151 11.0176 12.6097C10.7126 12.5532 10.6676 11.9247 10.4936 11.8747C10.4846 11.8722 10.4746 11.8712 10.4661 11.8712C10.4101 11.8712 10.3851 11.9207 10.3851 11.9207C10.4651 12.1357 10.4186 12.2222 10.5041 12.3877C10.5686 12.5102 10.6821 12.6107 10.7291 12.6587C10.7291 12.6587 10.7171 12.7517 10.7031 12.8212ZM10.1181 13.4808C10.0326 13.4808 9.95357 13.4818 9.88307 13.4848L10.0691 12.9043C10.0981 12.8243 9.95107 12.7208 9.89057 12.6298C9.98207 12.6878 10.2191 12.8143 10.3336 12.8643C10.2594 13.0691 10.1879 13.2746 10.1181 13.4808ZM7.35211 8.24967L7.37811 7.24067L7.60461 7.00117L7.74711 7.29917L7.46711 8.26767L7.35211 8.24967ZM7.51452 8.56248C7.54897 8.62841 7.60108 8.68346 7.66502 8.72148C7.66328 8.81738 7.65358 8.9125 7.63702 9.00698C7.63202 9.02898 7.62752 9.04948 7.62102 9.06998C7.61752 9.08298 7.61352 9.09348 7.61102 9.10198C7.54152 9.10198 7.40552 9.09398 7.29502 9.05348C7.17252 9.00848 6.98902 8.78198 7.03102 8.53298C7.08452 8.50098 7.20802 8.43098 7.32302 8.43098C7.41152 8.43098 7.47202 8.47298 7.51452 8.56248ZM10.1325 8.83348C9.95852 8.96198 9.51102 9.28948 9.34852 9.40348L7.78502 9.12148L7.79552 9.07998C7.81552 8.99848 7.83652 8.88798 7.83752 8.75748L9.15252 8.77798L9.17752 8.75298C9.19753 8.73298 9.61402 8.32948 9.82602 8.09798C9.87652 8.16148 9.93952 8.22198 10.0225 8.27498C9.99452 8.42998 10.006 8.64848 10.1325 8.83348ZM8.00603 6.51465C8.19403 6.70165 8.37803 6.81865 8.55303 6.88215C8.53053 6.97265 8.50053 7.15865 8.58453 7.34465C8.65353 7.49465 8.77853 7.60965 8.95853 7.68665C8.97853 7.87165 9.09503 8.15015 9.41853 8.27315C9.27653 8.41615 9.13907 8.55072 9.08407 8.60472L7.77203 8.58415C7.72883 8.56369 7.6929 8.53055 7.66903 8.48915C7.66603 8.48215 7.66203 8.47865 7.65903 8.47165L7.87353 8.50665L7.88703 8.50715C7.9072 8.50729 7.92676 8.50021 7.94216 8.48719C7.95757 8.47416 7.96781 8.45606 7.97103 8.43615C7.97464 8.41368 7.96919 8.39069 7.95588 8.37223C7.94257 8.35376 7.92249 8.34133 7.90003 8.33765L7.63703 8.29615L7.92903 7.28515L7.65203 6.70165L7.20903 7.17165L7.18153 8.22215L6.88403 8.17515C6.83803 8.16615 6.79407 8.19922 6.78557 8.24572C6.78224 8.26823 6.78837 8.2914 6.80173 8.30981C6.81499 8.32802 6.83483 8.34034 6.85703 8.34415L6.98203 8.36415C6.93703 8.38965 6.90753 8.40965 6.90403 8.41215L6.87903 8.43015L6.87203 8.46115C6.79903 8.75615 6.96353 9.03615 7.14053 9.16115L7.13403 9.19865C7.12703 9.24365 7.13703 9.28865 7.16403 9.32515C7.1794 9.34732 7.20001 9.36496 7.22398 9.37734C7.24795 9.38972 7.27459 9.39603 7.30157 9.39572C7.33946 9.39541 7.37613 9.3823 7.40563 9.35852C7.43513 9.33474 7.45569 9.30161 7.46403 9.26465C7.53003 9.27215 7.59053 9.27465 7.63153 9.27465H7.66653L9.38753 9.58665L9.41703 9.56665C9.55353 9.47065 10.0765 9.08915 10.248 8.96265C10.2955 9.00315 10.348 9.04015 10.4115 9.07065C10.356 9.25715 10.3525 9.54365 10.5715 9.77065H6.18653V7.23515C6.18653 6.98965 6.11503 6.74265 6.03003 6.51465H8.00603ZM7.76902 2.68848L8.91302 3.07748V4.87848L8.07102 4.43348L7.76902 2.68848ZM10.5611 2.47172C10.5611 2.03222 9.82257 1.63672 9.00757 1.63672H9.00257C8.18757 1.63672 7.44957 2.03222 7.44957 2.47172L7.46557 2.57972L7.79107 4.45122L7.46407 4.64122L6.61857 5.13622H6.62157C6.62157 5.13622 6.43157 5.23422 6.34307 5.29422C6.02107 5.51822 5.95257 5.84522 6.13957 5.98022C6.18557 5.71372 6.39607 5.43522 6.78957 5.43522C7.07357 5.43522 7.28957 5.58222 7.46457 5.80172C7.50957 5.85722 7.55207 5.91672 7.59157 5.98022C7.64057 6.06072 7.69007 6.13172 7.73857 6.19972H5.55957C5.71957 6.52222 5.87207 6.86372 5.87207 7.23472V12.0657C5.87207 13.2347 6.76957 13.7927 7.74057 13.7927C8.49107 13.7927 8.59207 13.7587 9.00607 14.1717C9.41807 13.7587 9.51957 13.7927 10.2706 13.7927C11.2421 13.7927 12.1381 13.2347 12.1381 12.0657V7.23472C12.1381 6.86372 12.2906 6.52222 12.4516 6.19972H10.2716C10.3206 6.13172 10.3696 6.06072 10.4186 5.98022C10.4586 5.91672 10.5011 5.85722 10.5451 5.80172C10.7211 5.58122 10.9371 5.43522 11.2211 5.43522C11.6146 5.43522 11.8246 5.71372 11.8711 5.98022C12.0581 5.84522 11.9906 5.51822 11.6661 5.29422C11.5801 5.23422 11.3891 5.13622 11.3891 5.13622H11.3926L10.2201 4.45122L10.5451 2.57972L10.5611 2.47172Z" fill="#282828"/>
</svg>
