<svg width="81" height="17" viewBox="0 0 75 18" fill="none" xmlns="http://www.w3.org/2000/svg">
<g clip-path="url(#clip0_7_8853)">
<path fill-rule="evenodd" clip-rule="evenodd" d="M18.7535 8.77181L19 7.98131L18.184 8.00731C18.1155 8.00731 17.614 7.99231 17.1285 7.63981C17.165 7.64281 17.2005 7.64831 17.2385 7.64831C17.7385 7.64831 18.223 7.34631 18.4165 6.91431L18.7675 6.13431C18.3275 6.14031 17.925 6.08481 17.925 6.08481C17.9215 6.08481 17.6045 6.04331 17.238 5.66781C16.975 5.39931 16.6495 5.25681 16.297 5.25681C16.1574 5.25735 16.0188 5.27944 15.886 5.32231C15.9045 5.25931 15.922 5.19481 15.9325 5.12881C16.044 4.39881 15.5755 3.84281 15.5755 3.84281L14.962 3.08181L14.5815 3.97581C14.58 3.97881 14.484 4.18881 14.3125 4.29081C14.2605 4.02781 14.133 3.73231 13.861 3.44981C13.3475 2.91781 12.723 2.83781 12.396 2.83781C12.2445 2.83781 12.136 2.85481 12.11 2.85881L11.3695 3.00481C11.412 2.83931 11.5035 2.54981 11.6695 2.29031L12.0785 1.65281L11.05 1.77031L10.7225 1.07331L10.088 1.40081L9.5015 0.820312L8.9165 1.40031L8.281 1.07331L7.954 1.76981L6.926 1.65231L7.3355 2.29081C7.502 2.55031 7.5925 2.83831 7.635 3.00381L6.9285 2.86381L6.904 2.86031C6.80643 2.84494 6.70778 2.83742 6.609 2.83781C6.282 2.83781 5.6575 2.91781 5.1455 3.44981C4.873 3.73181 4.745 4.02781 4.693 4.29081C4.5225 4.18931 4.427 3.98331 4.427 3.98331L4.046 3.08331L3.4225 3.85031C3.3465 3.94881 2.971 4.47181 3.0725 5.13031C3.0835 5.19581 3.1005 5.25981 3.119 5.32281C2.98657 5.2798 2.84824 5.2577 2.709 5.25731C2.356 5.25731 2.0305 5.39981 1.767 5.66831C1.402 6.04231 1.0865 6.08481 1.089 6.08481C1.089 6.08481 0.7555 6.14481 0.239 6.13481L0.5885 6.91481C0.7825 7.34681 1.2675 7.64881 1.7665 7.64881C1.8045 7.64881 1.84 7.64331 1.877 7.64031C1.392 7.99331 0.891 8.00781 0.8305 8.00781L0 7.98131L0.2515 8.77131C0.3785 9.17931 0.8015 9.85381 1.6115 9.92631C1.5235 10.2963 1.328 10.7113 0.899 10.8903L0.28 11.1453L0.6175 11.7343C0.808 12.0518 1.2555 12.4233 1.892 12.4233C2.0295 12.4233 2.1625 12.4088 2.291 12.3818C2.3235 12.5268 2.3645 12.6718 2.413 12.8168C2.602 13.3818 2.439 13.7758 2.437 13.7803L2.132 14.4213L2.8135 14.6013C2.822 14.6043 3.0285 14.6613 3.286 14.6613C3.403 14.6613 3.515 14.6488 3.62 14.6238C3.699 14.6053 3.775 14.5803 3.8485 14.5508C3.937 14.7093 4.044 14.8543 4.169 14.9838C4.606 15.4333 5.226 15.6608 6.01 15.6608H6.0125L6.5725 15.6533L5.4155 16.1353L6.294 16.5608C6.6135 16.7168 6.9915 16.9008 7.3775 17.0418L7.2675 17.3423L7.57 17.4808C7.597 17.4933 8.18 17.7538 9.1475 17.8093C9.1475 17.8093 9.381 17.8203 9.5095 17.8203C9.6385 17.8203 9.8695 17.8088 9.8695 17.8088C10.8305 17.7518 11.4085 17.4933 11.4355 17.4808L11.739 17.3423L11.6285 17.0413C12.0245 16.8963 12.417 16.7043 12.7235 16.5548L13.5855 16.1348L12.432 15.6533L12.9945 15.6608C13.7795 15.6608 14.3995 15.4328 14.836 14.9833C14.9605 14.8543 15.067 14.7098 15.156 14.5508C15.3345 14.6246 15.5259 14.662 15.719 14.6608C15.9725 14.6608 16.181 14.6048 16.1865 14.6028L16.8715 14.4213L16.573 13.7918C16.566 13.7758 16.403 13.3818 16.592 12.8158C16.6405 12.6718 16.681 12.5263 16.714 12.3818C16.8425 12.4088 16.977 12.4228 17.1155 12.4233C17.9265 12.4233 18.3155 11.8518 18.3905 11.7278L18.725 11.1448L18.106 10.8903C17.676 10.7118 17.481 10.2968 17.394 9.92731C18.1935 9.85731 18.6215 9.18181 18.7535 8.77181Z" fill="#FFFFFE"/>
<path fill-rule="evenodd" clip-rule="evenodd" d="M9.50151 3.24165C8.84651 3.24215 8.35501 3.45715 8.24801 3.71065L9.50151 4.20565L10.7555 3.71065C10.6495 3.45715 10.158 3.24215 9.50151 3.24165ZM9.51501 16.3612H9.49001C9.09301 16.3637 8.54551 16.2822 8.28251 16.2047L7.96551 17.0642C8.17451 17.1387 8.88251 17.2817 9.50301 17.2817C10.1225 17.2817 10.831 17.1387 11.0395 17.0642L10.723 16.2052C10.4585 16.2822 9.91201 16.3637 9.51501 16.3612ZM11.9135 15.5062C11.6775 15.6402 11.151 15.8412 10.8445 15.9342L11.1015 16.6442C11.5755 16.5142 11.967 16.3627 12.29 16.2002L11.756 16.0227L11.9135 15.5062ZM7.09101 15.5062L7.24901 16.0227L6.71451 16.2002C7.03701 16.3627 7.43001 16.5142 7.90251 16.6437L8.16001 15.9337C7.85401 15.8407 7.32651 15.6402 7.09101 15.5062ZM9.50151 2.42015C9.99601 2.42015 10.48 2.53865 10.853 2.74615C10.887 2.63215 10.9345 2.49315 10.999 2.34765L10.858 2.36465L10.7105 2.37965L10.648 2.24515L10.459 1.84665L10.116 2.02565L9.98201 2.09365L9.87501 1.98865L9.50151 1.61865L9.12901 1.98865L9.02251 2.09365L8.88901 2.02565L8.54401 1.84665L8.35751 2.24515L8.29401 2.38015L8.14601 2.36465L8.00601 2.34765C8.07051 2.49315 8.11751 2.63215 8.15201 2.74615C8.52601 2.53865 9.00951 2.42015 9.50151 2.42015ZM17.044 7.02865C17.1085 7.05065 17.1735 7.06065 17.238 7.06065C17.518 7.06065 17.788 6.87915 17.8805 6.67215C17.8805 6.67215 17.368 6.64115 16.817 6.08065C16.642 5.89965 16.456 5.84515 16.297 5.84515C16.0495 5.84515 15.8635 5.97565 15.8635 5.97565C16.5295 6.33065 16.665 6.90065 17.044 7.02865ZM1.76651 7.06015C1.83151 7.06015 1.89651 7.05065 1.95901 7.02815C2.33901 6.90015 2.47601 6.33065 3.14051 5.97615C3.14051 5.97615 2.95451 5.84515 2.70851 5.84515C2.54851 5.84515 2.36301 5.89915 2.18701 6.08115C1.63651 6.64115 1.12451 6.67265 1.12451 6.67265C1.21651 6.87915 1.48701 7.06065 1.76651 7.06065V7.06015Z" fill="#FFFFFE"/>
<path fill-rule="evenodd" clip-rule="evenodd" d="M16.8435 11.1178C16.3285 10.8628 16.0035 10.1878 15.9245 9.94478C15.8395 11.2838 15.187 12.2128 14.4245 13.1068C14.0285 13.5708 13.8905 14.0218 13.8905 14.0218C13.8905 14.0218 13.967 13.5108 14.309 13.0948C15.0205 12.2388 15.6965 11.1728 15.747 9.93978C15.7815 9.07978 15.561 8.38228 15.216 7.80728C15.409 8.40578 15.3815 9.13928 14.727 9.82378C14.727 9.82378 16.0305 8.25978 14.2085 6.65578C13.4795 6.04578 12.6815 5.66878 12.271 5.40178C13.7545 5.88678 14.4795 5.35278 14.4795 5.35278C14.0055 5.76428 13.392 5.75728 13.0115 5.69778C13.115 5.74828 13.2225 5.80128 13.3375 5.86278C14.589 6.54378 15.713 7.66428 15.905 9.21528V9.20328C16.1955 10.7268 16.8435 11.1178 16.8435 11.1178ZM17.2245 9.34278C17.236 9.34378 17.246 9.34378 17.2575 9.34378C17.955 9.34378 18.191 8.59528 18.191 8.59528H18.1775C18.0495 8.59528 17.0125 8.56528 16.2795 7.63178C15.7975 7.01828 15.402 6.47878 14.621 6.26678L14.544 6.25278L14.5275 6.17428C14.506 6.05478 14.5875 5.94278 14.7735 5.82228C15.851 5.11528 15.1185 4.21328 15.1185 4.21328C15.1185 4.21328 14.8115 4.93428 14.123 4.93428L14.0715 4.93328C13.9935 4.92928 13.918 4.92678 13.842 4.91028L13.715 4.88528C13.715 4.88528 13.9115 4.35028 13.4375 3.85978C13.081 3.48878 12.6465 3.42578 12.396 3.42578C12.2695 3.42578 12.1895 3.44228 12.1895 3.44228C12.4275 3.75378 12.5995 4.27128 12.3245 4.59028C12.087 4.86428 11.507 4.87778 11.507 5.28678C11.507 5.45978 11.6685 5.66178 11.9585 5.84328C12.8305 6.39328 13.696 7.12328 14.056 8.10178C14.506 9.32178 13.999 10.1318 13.276 10.5963C13.276 10.5963 13.503 10.8053 13.8315 10.8323C13.8985 10.8388 13.964 10.8418 14.025 10.8418C14.7195 10.8418 15.0785 10.5153 15.0785 10.5153C15.0785 10.5153 15.019 10.9663 14.6585 11.3848C14.3245 11.7708 13.887 11.9988 13.2195 12.0083C13.2195 12.0083 13.1985 12.3183 13.494 12.5873C13.6835 12.7568 14.12 12.8123 14.12 12.8123C14.12 12.8123 13.302 12.9778 13.2115 14.1883C13.1625 14.8443 12.9955 15.0718 12.9955 15.0718H13.01C14.908 15.0718 14.8595 13.4408 14.8595 13.4408C14.8595 13.4408 14.9915 13.9238 15.521 14.0498C15.585 14.0668 15.6535 14.0733 15.7185 14.0733C15.8885 14.0733 16.037 14.0333 16.037 14.0333C16.037 14.0333 15.7595 13.4473 16.0345 12.6278C16.263 11.9473 16.226 11.4433 16.226 11.4433C16.226 11.4433 16.4815 11.8308 17.116 11.8343H17.1225C17.2724 11.8366 17.4204 11.8011 17.5529 11.731C17.6854 11.6609 17.7981 11.5585 17.8805 11.4333C16.615 10.9068 16.74 9.20828 16.74 9.20828C16.74 9.20828 16.904 9.33078 17.2245 9.34278ZM4.58 13.1068C3.8175 12.2128 3.165 11.2838 3.079 9.94478C3.0005 10.1883 2.676 10.8633 2.1615 11.1178C2.1615 11.1178 2.8085 10.7268 3.099 9.20328V9.21528C3.2915 7.66428 4.4155 6.54378 5.667 5.86328C5.782 5.80078 5.89 5.74828 5.9925 5.69828C5.6125 5.75728 4.9985 5.76428 4.525 5.35328C4.525 5.35328 5.25 5.88678 6.733 5.40178C6.323 5.66878 5.525 6.04578 4.7965 6.65578C2.974 8.25978 4.2775 9.82378 4.2775 9.82378C3.6225 9.13878 3.5955 8.40628 3.7885 7.80728C3.4435 8.38228 3.2225 9.07978 3.2585 9.94028C3.308 11.1728 3.9835 12.2388 4.6935 13.0953C5.0375 13.5103 5.115 14.0213 5.115 14.0213C5.115 14.0213 4.975 13.5708 4.58 13.1068ZM4.885 12.8118C4.885 12.8118 5.3215 12.7568 5.511 12.5868C5.806 12.3183 5.7855 12.0083 5.7855 12.0083C5.1175 11.9988 4.6805 11.7708 4.345 11.3848C3.986 10.9663 3.926 10.5153 3.926 10.5153C3.926 10.5153 4.285 10.8418 4.9785 10.8418C5.041 10.8418 5.106 10.8388 5.1725 10.8323C5.3777 10.8115 5.57184 10.7292 5.7295 10.5963C5.0055 10.1318 4.4985 9.32178 4.948 8.10128C5.308 7.12378 6.173 6.39328 7.046 5.84278C7.3355 5.66178 7.4965 5.45978 7.4965 5.28678C7.4965 4.87778 6.9175 4.86428 6.68 4.59028C6.405 4.27128 6.5775 3.75378 6.815 3.44228C6.815 3.44228 6.7355 3.42578 6.6085 3.42578C6.3585 3.42578 5.924 3.48878 5.567 3.85978C5.092 4.35078 5.2895 4.88578 5.2895 4.88578L5.1625 4.91078C5.087 4.92628 5.0105 4.92928 4.9325 4.93378L4.8825 4.93428C4.1925 4.93428 3.886 4.21378 3.886 4.21378C3.886 4.21378 3.1545 5.11528 4.232 5.82228C4.417 5.94278 4.4985 6.05528 4.477 6.17428L4.4605 6.25228L4.382 6.26628C3.6025 6.47878 3.207 7.01828 2.724 7.63178C1.991 8.56528 0.955 8.59528 0.8265 8.59528H0.8125C0.8125 8.59528 1.049 9.34378 1.747 9.34378C1.758 9.34378 1.768 9.34378 1.78 9.34278C2.1005 9.33128 2.265 9.20828 2.265 9.20828C2.265 9.20828 2.389 10.9068 1.124 11.4333C1.124 11.4333 1.3545 11.8348 1.8825 11.8348H1.8885C2.5235 11.8308 2.7785 11.4433 2.7785 11.4433C2.7785 11.4433 2.7415 11.9478 2.969 12.6278C3.244 13.4478 2.968 14.0328 2.968 14.0328C2.968 14.0328 3.1155 14.0728 3.286 14.0728C3.352 14.0728 3.4195 14.0668 3.483 14.0498C4.012 13.9238 4.1445 13.4408 4.1445 13.4408C4.1445 13.4408 4.096 15.0718 5.9945 15.0718H6.0085C6.0085 15.0718 5.842 14.8443 5.7935 14.1883C5.7035 12.9783 4.8845 12.8118 4.8845 12.8118H4.885ZM9.0735 6.80178H9.9685V7.10928C9.8635 6.98028 9.6585 7.00678 9.6585 7.00678V7.45028C9.6585 7.45028 9.6655 7.66828 9.7425 7.76278H9.2995C9.377 7.66828 9.3835 7.45028 9.3835 7.45028V7.00678C9.3835 7.00678 9.1795 6.98028 9.0735 7.10928V6.80178ZM8.0985 6.84778C8.1295 6.88128 8.16 6.91778 8.1895 6.95428C8.1965 6.96278 8.203 6.97028 8.21 6.98028C8.2375 7.01628 8.265 7.05528 8.2915 7.09428L8.3095 7.12078C8.341 7.16878 8.371 7.21828 8.401 7.26978C8.675 7.74328 9.113 8.02628 9.5015 8.02678C9.891 8.02628 10.3285 7.74328 10.603 7.26978C10.6335 7.21728 10.664 7.16628 10.696 7.11828C10.7325 7.06236 10.7715 7.00813 10.813 6.95578C10.8435 6.91778 10.875 6.88078 10.907 6.84678C10.9125 6.84178 10.917 6.83628 10.9225 6.83178C11.0625 6.68878 11.228 6.57978 11.446 6.51928L11.349 6.46278H11.344L10.958 6.23878L10.5625 6.01128L9.5045 6.58828L9.5015 6.58578L9.5 6.58828L8.442 6.01128L8.046 6.23878L7.66 6.46278H7.6555L7.558 6.51928C7.7755 6.57928 7.9415 6.68728 8.0815 6.83078C8.0875 6.83578 8.0915 6.84278 8.0985 6.84778Z" fill="#FFFFFE"/>
<path fill-rule="evenodd" clip-rule="evenodd" d="M9.16497 4.84664V5.13664L9.10947 5.11064C9.10697 5.10864 9.02497 5.09064 8.88347 4.97764C8.64897 4.79564 8.64447 4.62764 8.64447 4.62764L9.16497 4.84664ZM9.40997 6.20514V4.40414L8.26597 4.01514L8.56797 5.76014L9.40997 6.20514ZM9.83997 4.84664L10.36 4.62764C10.36 4.62764 10.356 4.79564 10.1205 4.97764C9.97897 5.09014 9.89747 5.10864 9.89497 5.11064L9.83997 5.13614V4.84664ZM10.4365 5.76064L10.737 4.01564L9.59347 4.40414V6.20514L10.4365 5.76064ZM7.79197 10.3801C7.90347 10.4201 8.03847 10.4286 8.10797 10.4286C8.11047 10.4201 8.11447 10.4096 8.11797 10.3966C8.12347 10.3766 8.12947 10.3556 8.13397 10.3336C8.15347 10.2336 8.15997 10.1211 8.16197 10.0481C8.09803 10.0101 8.04592 9.95507 8.01147 9.88914C7.96897 9.79964 7.90847 9.75764 7.81997 9.75764C7.70497 9.75764 7.58147 9.82764 7.52797 9.85964C7.48597 10.1086 7.66947 10.3346 7.79197 10.3796V10.3801ZM10.323 9.42464C10.111 9.65614 9.69447 10.0596 9.67447 10.0796L9.64947 10.1046L8.33447 10.0841C8.33337 10.1929 8.31927 10.3012 8.29247 10.4066L8.28197 10.4481L9.84547 10.7301C10.008 10.6161 10.4555 10.2886 10.6295 10.1601C10.503 9.97514 10.491 9.75564 10.5195 9.60164C10.4444 9.55421 10.378 9.49436 10.323 9.42464Z" fill="#FFFFFE"/>
<path fill-rule="evenodd" clip-rule="evenodd" d="M10.5016 7.84083C10.1986 8.14183 9.90806 8.25333 9.64856 8.27933C9.60106 8.28448 9.55333 8.28715 9.50556 8.28733H9.49906C9.4036 8.28732 9.30841 8.27726 9.21506 8.25733C9.19806 8.32483 9.17656 8.46633 9.23806 8.60033C9.29306 8.72183 9.40456 8.81233 9.56756 8.87283L9.62256 8.89433L9.62306 8.95333C9.62306 8.97083 9.63606 9.35383 10.0531 9.46033C10.1211 9.39033 10.1831 9.32683 10.2281 9.27333C10.1431 9.07283 10.1881 8.86783 10.3116 8.76733C10.3066 8.78883 10.2516 9.29133 10.6541 9.47833L10.7206 9.50983L10.7006 9.58033C10.6941 9.60183 10.5601 10.0883 11.0476 10.2693L11.1336 10.3023L11.0951 10.3858C11.0866 10.4043 10.8956 10.8458 11.3456 11.0968H12.3211V10.3203C11.9741 10.2778 11.8276 9.99833 11.7896 9.80033C11.6281 9.77283 11.5036 9.70333 11.4181 9.58983C11.2131 9.31983 11.3891 9.07233 11.3916 9.05883C11.3911 9.06083 11.3916 9.32383 11.5536 9.48683C11.6341 9.56483 11.7291 9.62583 11.8736 9.63933L11.9441 9.64583L11.9501 9.71833C11.9516 9.73383 11.9901 10.0903 12.3211 10.1463L12.3206 8.56133C12.3206 8.31533 12.3921 8.06833 12.4781 7.84033H10.5016V7.84083ZM7.87506 8.56733L7.84906 9.57633L7.96406 9.59433L8.24406 8.62583L8.10156 8.32783L7.87556 8.56733H7.87506ZM8.48206 12.3043C8.47437 12.3041 8.46681 12.3023 8.45984 12.299C8.45288 12.2957 8.44665 12.2911 8.44155 12.2853C8.43645 12.2796 8.43257 12.2728 8.43017 12.2655C8.42776 12.2582 8.42687 12.2505 8.42756 12.2428C8.428 12.2353 8.42995 12.2278 8.4333 12.221C8.43665 12.2142 8.44132 12.2081 8.44705 12.2031C8.45278 12.1982 8.45945 12.1944 8.46666 12.192C8.47388 12.1896 8.48149 12.1887 8.48906 12.1893C8.52206 12.1908 8.54506 12.2193 8.54406 12.2503C8.54291 12.2657 8.53575 12.28 8.52415 12.2901C8.51254 12.3002 8.49742 12.3053 8.48206 12.3043ZM10.9631 13.1978C10.9716 13.1978 10.9816 13.1988 10.9906 13.2013C11.1656 13.2513 11.2091 13.8803 11.5146 13.9363C11.5446 13.9428 11.5726 13.9443 11.5966 13.9443C11.6851 13.9443 11.7376 13.9068 11.7946 13.8393C11.7946 13.8393 11.6406 13.5978 11.5256 13.4343C11.3731 13.2203 11.2546 12.9618 10.9701 12.9618C10.9631 12.9618 10.9551 12.9618 10.9476 12.9628C10.8934 12.965 10.841 12.9827 10.7966 13.0138C10.7016 12.951 10.5904 12.9171 10.4766 12.9163C10.2991 12.9163 10.1601 12.9983 10.0906 12.9983H10.0881L9.45306 12.9353C9.35356 12.9253 9.27506 12.8253 9.24656 12.7863L9.23556 12.7693C9.23556 12.7518 9.23556 12.7343 9.23456 12.7188C9.21306 12.1983 8.81106 11.9758 8.66756 11.9718C8.66756 11.9718 8.68456 11.8728 8.64606 11.8353L8.50606 12.0053L8.04606 11.7743L8.37406 12.1583L8.09656 12.4708C8.06156 12.5063 8.06606 12.5543 8.08056 12.5748L8.20056 12.6808L8.35256 12.5883C8.36006 12.5828 8.37406 12.5808 8.39106 12.5808C8.43306 12.5808 8.49606 12.5918 8.55256 12.5918C8.61506 12.5918 8.66856 12.5788 8.67506 12.5203C8.65606 12.7133 8.47706 13.0488 8.59456 13.3123L8.68156 13.5113L8.12006 13.4303L7.85706 13.8748C7.77606 14.0228 7.76306 14.1828 7.84106 14.2698L7.93956 14.3933C7.93956 14.3933 8.07756 14.2468 8.10806 14.1503L8.06356 14.1013C8.02606 14.0598 8.02806 14.0228 8.05106 13.9783L8.21606 13.7043L8.87856 13.8608L8.91356 13.8008C8.95856 13.7258 9.02356 13.7038 9.09456 13.7038C9.12406 13.7038 9.15406 13.7073 9.18506 13.7123C9.30806 13.7368 9.51056 13.7693 9.71306 13.7693C9.93556 13.7693 10.1561 13.7293 10.2736 13.5978C10.5136 13.9543 11.0006 14.0108 10.9621 14.1923L10.8341 14.8033C10.9191 14.7993 11.0006 14.7938 11.0781 14.7833L11.2001 14.1478C11.2099 14.0939 11.2186 14.0397 11.2261 13.9853C11.1791 13.9373 11.0656 13.8368 11.0011 13.7143C10.9156 13.5488 10.9621 13.4623 10.8821 13.2473C10.8821 13.2473 10.9071 13.1978 10.9631 13.1978Z" fill="#FFFFFE"/>
<path fill-rule="evenodd" clip-rule="evenodd" d="M7.57652 13.7755C7.57652 13.7755 7.79652 13.6855 7.81652 13.6205L7.78652 13.5475C7.76602 13.4995 7.76852 13.4475 7.80902 13.4195L8.04602 13.255L8.44252 13.3315C8.44252 13.3315 8.37052 13.2415 8.37752 13.1215L7.99952 13.0415L7.64252 13.259C7.58023 13.3052 7.5352 13.3709 7.51463 13.4457C7.49406 13.5204 7.49912 13.6 7.52902 13.6715L7.57652 13.7755ZM10.38 14.8115C10.4505 14.8085 10.5295 14.8075 10.615 14.8075C10.615 14.8075 10.819 14.21 10.8305 14.191C10.679 14.1203 10.5312 14.0421 10.3875 13.9565C10.448 14.0475 10.595 14.151 10.566 14.231L10.38 14.8115Z" fill="#FFFFFE"/>
<path fill-rule="evenodd" clip-rule="evenodd" d="M12.321 11.2678H6.68348V13.3923C6.68348 14.2613 7.31098 14.8048 8.23748 14.8048C9.01098 14.8048 9.21498 14.8348 9.50248 15.1213C9.70098 14.9228 9.86498 14.8493 10.2025 14.8213L10.21 14.7888L10.3875 14.2383C10.3775 14.2258 10.0875 13.8953 10.0875 13.8953C9.97248 13.9338 9.87548 13.9403 9.71248 13.9403C9.54598 13.9403 9.35748 13.9203 9.15298 13.8823C9.13381 13.8778 9.11418 13.8754 9.09448 13.8753C9.06948 13.8753 9.06798 13.8773 9.06098 13.8898L9.02598 13.9483L8.96098 14.0553L8.83948 14.0268L8.29848 13.8993L8.22398 14.0218L8.23548 14.0353L8.30098 14.1078L8.27198 14.2028C8.23198 14.3263 8.10298 14.4708 8.06348 14.5108L7.92848 14.6558L7.80498 14.5003L7.71248 14.3838C7.61498 14.2748 7.59248 14.1078 7.64748 13.9328C7.64587 13.934 7.64396 13.9347 7.64198 13.9348L7.48948 13.9983L7.42098 13.8483L7.37248 13.7428C7.32592 13.6349 7.31754 13.5143 7.34871 13.4009C7.37989 13.2876 7.44877 13.1883 7.54398 13.1193L7.97898 12.8728L8.39398 12.9543C8.40398 12.9143 8.41898 12.7723 8.43048 12.7358C8.42248 12.7348 8.41498 12.7333 8.40698 12.7333L8.16798 12.8223L7.93798 12.6633C7.93798 12.6633 7.84798 12.5763 7.92948 12.4893L8.15198 12.1508L7.58698 11.4408L8.45548 11.7978L8.51348 11.7263L8.63048 11.5853L8.76348 11.7123C8.79845 11.7465 8.82276 11.7901 8.83348 11.8378C9.07248 11.9313 9.50148 12.2068 9.53948 12.6548L9.40548 12.7083V12.7118C9.43598 12.7483 9.46148 12.7633 9.46948 12.7648L10.0895 12.8258C10.1055 12.8228 10.1245 12.8158 10.1465 12.8098C10.224 12.7833 10.3395 12.7448 10.4765 12.7448C10.5885 12.7448 10.6965 12.7708 10.8 12.8198C10.8385 12.8048 10.885 12.7943 10.94 12.7908L10.97 12.7898C11.3015 12.7898 11.4665 13.0383 11.599 13.2368C11.621 13.2713 11.643 13.3033 11.666 13.3353C11.782 13.4993 11.9335 13.7388 11.9395 13.7493L12.008 13.8558L11.924 13.9538C11.86 14.0288 11.7625 14.1163 11.5965 14.1163C11.5589 14.116 11.5214 14.1122 11.4845 14.1048C11.4505 14.0983 11.4173 14.0881 11.3855 14.0743C11.3804 14.1096 11.3746 14.1448 11.368 14.1798L11.2595 14.7483C11.9095 14.5883 12.3225 14.0963 12.3225 13.3923L12.321 11.2678ZM6.68348 11.0968H11.0685C10.8495 10.8698 10.853 10.5833 10.9085 10.3968C10.8493 10.3684 10.7943 10.3321 10.745 10.2888C10.5735 10.4153 10.0505 10.7968 9.91398 10.8928L9.88448 10.9128L8.16348 10.6008H8.12848C8.08748 10.6008 8.02698 10.5993 7.96098 10.5908C7.95391 10.6224 7.93784 10.6513 7.91471 10.674C7.89157 10.6966 7.86237 10.7121 7.83062 10.7185C7.79888 10.7249 7.76596 10.7219 7.73585 10.71C7.70574 10.6981 7.67974 10.6777 7.66098 10.6513C7.6478 10.6333 7.63836 10.6128 7.6332 10.5911C7.62805 10.5694 7.6273 10.5468 7.63098 10.5248L7.63748 10.4873C7.46048 10.3623 7.29598 10.0823 7.36898 9.78732L7.37598 9.75632L7.40098 9.73832C7.42621 9.7211 7.45224 9.70508 7.47898 9.69032L7.35398 9.67032C7.33178 9.66651 7.31194 9.65419 7.29868 9.63599C7.28542 9.61778 7.27979 9.59512 7.28298 9.57282C7.29098 9.52582 7.33448 9.49282 7.38098 9.50132L7.67848 9.54832L7.70598 8.49782L8.14898 8.02782L8.42598 8.61132L8.13398 9.62232L8.39698 9.66382C8.41944 9.6675 8.43952 9.67994 8.45283 9.6984C8.46614 9.71686 8.47159 9.73985 8.46798 9.76232C8.46476 9.78223 8.45452 9.80034 8.43911 9.81336C8.4237 9.82638 8.40415 9.83346 8.38398 9.83332L8.37048 9.83282L8.15598 9.79782C8.15898 9.80482 8.16298 9.80832 8.16598 9.81532C8.18985 9.85672 8.22578 9.88986 8.26898 9.91032L9.58048 9.93182C9.63598 9.87732 9.77348 9.74232 9.91548 9.59932C9.79188 9.55396 9.68337 9.47505 9.60212 9.37145C9.52086 9.26785 9.47009 9.14367 9.45548 9.01282C9.27548 8.93582 9.15048 8.82082 9.08148 8.67082C8.99748 8.48482 9.02748 8.29882 9.04998 8.20832C8.87498 8.14482 8.69098 8.02782 8.50298 7.84082H6.52698C6.61198 8.06882 6.68348 8.31582 6.68348 8.56132V11.0968Z" fill="#FFE52B"/>
<path fill-rule="evenodd" clip-rule="evenodd" d="M8.48897 12.1892C8.48136 12.1886 8.4737 12.1895 8.46646 12.1919C8.45921 12.1943 8.45253 12.1981 8.44679 12.2032C8.44105 12.2082 8.43639 12.2143 8.43307 12.2212C8.42975 12.2281 8.42784 12.2355 8.42747 12.2432C8.42685 12.2508 8.4278 12.2585 8.43023 12.2657C8.43267 12.273 8.43656 12.2796 8.44165 12.2853C8.44675 12.291 8.45295 12.2957 8.45988 12.2989C8.46681 12.3021 8.47432 12.3039 8.48197 12.3042C8.49725 12.3051 8.5123 12.3001 8.52389 12.2901C8.53548 12.2801 8.54269 12.2659 8.54397 12.2507C8.54479 12.2352 8.53946 12.2201 8.52916 12.2086C8.51885 12.1971 8.5044 12.1901 8.48897 12.1892ZM11.102 16.6442L10.8445 15.9342C11.151 15.8407 11.6775 15.6397 11.914 15.5062L11.7565 16.0227L12.29 16.2002C11.967 16.3622 11.576 16.5137 11.102 16.6437V16.6442ZM9.50297 17.2817C8.88247 17.2817 8.17447 17.1387 7.96547 17.0642L8.28247 16.2052C8.54547 16.2822 9.09247 16.3637 9.48997 16.3612H9.51497C9.91197 16.3637 10.4585 16.2817 10.723 16.2052L11.0395 17.0642C10.8305 17.1392 10.1225 17.2817 9.50297 17.2817ZM6.71497 16.2002L7.24897 16.0227L7.09097 15.5062C7.32647 15.6397 7.85447 15.8412 8.15997 15.9342L7.90247 16.6442C7.42997 16.5142 7.03747 16.3622 6.71497 16.2002ZM12.314 16.0427L11.989 15.9177L12.079 15.5817L12.1775 15.2152C12.1775 15.2152 11.6025 15.5282 10.791 15.7627C10.561 15.8287 10.387 15.8592 10.387 15.8592V16.1087C10.387 16.1087 9.95297 16.1837 9.51497 16.1837H9.48997C9.05097 16.1837 8.61797 16.1087 8.61797 16.1087V15.8587C8.61797 15.8587 8.44347 15.8287 8.21347 15.7627C7.40297 15.5277 6.82797 15.2152 6.82797 15.2152L6.92497 15.5817L7.01697 15.9177L6.69097 16.0427L6.32947 16.1777C6.74347 16.3782 7.31747 16.6697 7.84247 16.8137L7.71897 17.1527C7.71897 17.1527 8.38497 17.4567 9.49447 17.4597L9.50947 17.4602C10.6205 17.4572 11.2865 17.1527 11.2865 17.1527L11.1615 16.8137C11.687 16.6697 12.262 16.3787 12.674 16.1777L12.314 16.0427ZM8.14647 2.36417L8.29397 2.38017L8.35747 2.24517L8.54347 1.84667L8.88847 2.02567L9.02247 2.09417L9.50147 1.61817L9.87497 1.98817L9.98197 2.09417L10.116 2.02567L10.459 1.84667L10.648 2.24517L10.7105 2.38017L10.858 2.36417L10.999 2.34767C10.9345 2.49317 10.887 2.63167 10.8525 2.74667C10.48 2.53817 9.99597 2.42017 9.50197 2.42017C9.00997 2.42017 8.52597 2.53817 8.15197 2.74667C8.11163 2.61077 8.06287 2.47751 8.00597 2.34767L8.14647 2.36417ZM9.50147 2.62767C10.163 2.62767 10.6915 2.84767 10.984 3.08117C10.984 3.08117 11.071 2.55767 11.367 2.09617L10.8345 2.15617L10.556 1.56367L10.021 1.84017L9.50147 1.32617L8.98397 1.84017L8.44797 1.56367L8.16997 2.15667L7.63747 2.09567C7.93397 2.55767 8.02047 3.08067 8.02047 3.08067C8.31447 2.84717 8.84147 2.62767 9.50147 2.62767ZM17.8805 11.4332C17.8805 11.4332 17.6505 11.8347 17.1225 11.8347H17.116C16.482 11.8307 16.226 11.4432 16.226 11.4432C16.226 11.4432 16.263 11.9472 16.035 12.6277C15.76 13.4477 16.037 14.0327 16.037 14.0327C16.037 14.0327 15.889 14.0732 15.7185 14.0732C15.6535 14.0732 15.5855 14.0667 15.521 14.0497C14.9915 13.9242 14.8595 13.4412 14.8595 13.4412C14.8595 13.4412 14.9085 15.0717 13.01 15.0717H12.995C12.995 15.0717 13.1625 14.8442 13.212 14.1882C13.302 12.9782 14.12 12.8117 14.12 12.8117C14.12 12.8117 13.6835 12.7567 13.494 12.5872C13.1985 12.3187 13.219 12.0082 13.219 12.0082C13.887 11.9987 14.325 11.7712 14.6585 11.3847C14.8734 11.1374 15.0184 10.8372 15.0785 10.5152C15.0785 10.5152 14.7195 10.8417 14.025 10.8417C13.964 10.8417 13.899 10.8387 13.832 10.8322C13.503 10.8057 13.276 10.5962 13.276 10.5962C13.999 10.1317 14.506 9.32117 14.0565 8.10117C13.6965 7.12367 12.8305 6.39317 11.959 5.84317C11.669 5.66167 11.507 5.45967 11.507 5.28617C11.507 4.87767 12.087 4.86467 12.325 4.59017C12.6 4.27117 12.4275 3.75367 12.1895 3.44217C12.1895 3.44217 12.2695 3.42567 12.396 3.42567C12.647 3.42567 13.081 3.48867 13.438 3.85967C13.9115 4.35067 13.715 4.88567 13.715 4.88567L13.842 4.91067C13.918 4.92617 13.9935 4.92967 14.072 4.93367L14.123 4.93417C14.8115 4.93417 15.119 4.21317 15.119 4.21317C15.119 4.21317 15.851 5.11517 14.7735 5.82217C14.588 5.94267 14.506 6.05517 14.5275 6.17417L14.5445 6.25267L14.621 6.26617C15.402 6.47867 15.7975 7.01867 16.28 7.63167C17.013 8.56517 18.05 8.59517 18.1775 8.59517H18.1915C18.1915 8.59517 17.955 9.34367 17.2575 9.34367C17.246 9.34367 17.236 9.34367 17.2245 9.34267C16.9045 9.33117 16.7395 9.20817 16.7395 9.20817C16.7395 9.20817 16.615 10.9067 17.8805 11.4332ZM17.2575 9.57267C18.1125 9.57267 18.3985 8.70117 18.4105 8.66417L18.5055 8.35667L18.1855 8.36667H18.1845C18.071 8.36667 17.128 8.34167 16.4595 7.49017L16.396 7.41117C15.959 6.85467 15.5445 6.32517 14.8035 6.08367C14.8331 6.05774 14.8647 6.03417 14.898 6.01317C15.291 5.75417 15.52 5.43967 15.577 5.07417C15.6615 4.52467 15.311 4.08667 15.296 4.06867L15.058 3.77367L14.909 4.12367C14.899 4.14517 14.649 4.70517 14.123 4.70517H14.084C14.048 4.70367 14.0135 4.70217 13.9795 4.69917C13.998 4.44917 13.9525 4.06317 13.6025 3.70017C13.182 3.26367 12.666 3.19817 12.396 3.19817C12.252 3.19817 12.156 3.21617 12.1455 3.21717L11.786 3.28867L12.0075 3.58117C12.1815 3.80717 12.3395 4.22367 12.1525 4.44117C12.0925 4.51117 11.9695 4.56667 11.852 4.62317C11.61 4.73467 11.279 4.89067 11.279 5.28617C11.279 5.54217 11.4775 5.81067 11.8375 6.03817C12.9015 6.70867 13.5585 7.40867 13.842 8.18117C14.281 9.36917 13.7085 10.0472 13.152 10.4042L12.903 10.5647L13.1215 10.7657C13.151 10.7917 13.4175 11.0272 13.812 11.0612C13.887 11.0662 13.9585 11.0702 14.0255 11.0702C14.278 11.0702 14.4935 11.0302 14.6685 10.9772C14.6162 11.0685 14.5552 11.1545 14.4865 11.2342C14.169 11.6032 13.778 11.7712 13.2155 11.7802L13.0065 11.7832L12.9905 11.9932C12.9885 12.0357 12.973 12.4252 13.3405 12.7562C13.397 12.8072 13.465 12.8497 13.5365 12.8837C13.2865 13.1087 13.0335 13.5007 12.9845 14.1717C12.943 14.7317 12.8095 14.9392 12.808 14.9417L12.577 15.2947L12.9945 15.3002C13.684 15.3002 14.212 15.1102 14.5775 14.7322C14.7668 14.5336 14.9081 14.2943 14.9905 14.0327C15.1935 14.2058 15.4516 14.3008 15.7185 14.3007C15.9135 14.3007 16.0765 14.2592 16.0945 14.2552L16.361 14.1842L16.2435 13.9352C16.2345 13.9152 16.0125 13.4152 16.2515 12.7017C16.3545 12.3932 16.407 12.1172 16.4325 11.9017C16.6005 11.9897 16.825 12.0617 17.1155 12.0627C17.7755 12.0627 18.066 11.5692 18.079 11.5487L18.209 11.3217L17.968 11.2227C17.182 10.8957 17.008 10.0177 16.973 9.54267C17.0445 9.55617 17.1255 9.56867 17.217 9.57117L17.2575 9.57267Z" fill="#1A1919"/>
<path fill-rule="evenodd" clip-rule="evenodd" d="M16.2969 5.84524C16.4559 5.84524 16.6419 5.89974 16.8169 6.08124C17.3679 6.64124 17.8804 6.67274 17.8804 6.67274C17.7874 6.87924 17.5174 7.06074 17.2379 7.06074C17.1734 7.06074 17.1079 7.05074 17.0444 7.02824C16.6649 6.90024 16.5294 6.33074 15.8639 5.97624C15.8639 5.97624 16.0489 5.84524 16.2969 5.84524ZM15.7554 6.17824C16.0739 6.34824 16.2599 6.57674 16.4229 6.77874C16.5829 6.97624 16.7344 7.16624 16.9729 7.24524C17.0569 7.27424 17.1465 7.28824 17.2379 7.28824C17.5944 7.28824 17.9529 7.06924 18.0889 6.76624L18.2254 6.46324L17.8949 6.44324C17.8794 6.44324 17.4539 6.40374 16.9809 5.91974C16.7859 5.72074 16.5504 5.61674 16.2969 5.61674C15.9869 5.61674 15.7569 5.77174 15.7319 5.78774L15.4279 6.00224L15.7554 6.17824ZM15.9049 9.20374V9.21524C15.7129 7.66424 14.5889 6.54424 13.3374 5.86324C13.2224 5.80124 13.1149 5.74824 13.0114 5.69824C13.3919 5.75724 14.0054 5.76424 14.4794 5.35324C14.4794 5.35324 13.7544 5.88674 12.2709 5.40174C12.6809 5.66874 13.4794 6.04574 14.2084 6.65574C16.0299 8.25974 14.7269 9.82374 14.7269 9.82374C15.3819 9.13924 15.4089 8.40624 15.2159 7.80724C15.5609 8.38224 15.7809 9.07974 15.7469 9.94024C15.6969 11.1727 15.0204 12.2387 14.3089 13.0952C13.9669 13.5102 13.8909 14.0212 13.8909 14.0212C13.8909 14.0212 14.0289 13.5707 14.4244 13.1072C15.1869 12.2122 15.8394 11.2837 15.9244 9.94474C16.0034 10.1882 16.3284 10.8632 16.8434 11.1177C16.8434 11.1177 16.1959 10.7267 15.9049 9.20374ZM5.99495 15.0717C4.09645 15.0717 4.14495 13.4412 4.14495 13.4412C4.14495 13.4412 4.01195 13.9242 3.48345 14.0497C3.41889 14.066 3.35252 14.0739 3.28595 14.0732C3.11595 14.0732 2.96795 14.0332 2.96795 14.0332C2.96795 14.0332 3.24445 13.4472 2.96895 12.6277C2.74195 11.9477 2.77895 11.4432 2.77895 11.4432C2.77895 11.4432 2.52345 11.8307 1.88895 11.8347H1.88245C1.35495 11.8347 1.12445 11.4332 1.12445 11.4332C2.38945 10.9067 2.26545 9.20824 2.26545 9.20824C2.26545 9.20824 2.10045 9.33124 1.78045 9.34324H1.74695C1.04895 9.34324 0.812448 8.59524 0.812448 8.59524H0.826948C0.955948 8.59524 1.99145 8.56524 2.72395 7.63174C3.20645 7.01824 3.60245 6.47874 4.38195 6.26674L4.46045 6.25274L4.47695 6.17424C4.49895 6.05524 4.41695 5.94274 4.23195 5.82224C3.15445 5.11524 3.88595 4.21374 3.88595 4.21374C3.88595 4.21374 4.19195 4.93424 4.88245 4.93424L4.93245 4.93374C5.01045 4.92974 5.08695 4.92624 5.16245 4.91024L5.28945 4.88574C5.28945 4.88574 5.09245 4.35074 5.56745 3.85974C5.92445 3.48874 6.35795 3.42574 6.60845 3.42574C6.73595 3.42574 6.81445 3.44224 6.81445 3.44224C6.57745 3.75374 6.40545 4.27124 6.67945 4.59024C6.91745 4.86474 7.49695 4.87774 7.49695 5.28624C7.49695 5.45974 7.33545 5.66174 7.04595 5.84324C6.17345 6.39324 5.30795 7.12324 4.94795 8.10174C4.49895 9.32174 5.00595 10.1317 5.72945 10.5967C5.72945 10.5967 5.50195 10.8057 5.17295 10.8322C5.10847 10.8385 5.04373 10.8416 4.97895 10.8417C4.28495 10.8417 3.92595 10.5157 3.92595 10.5157C3.92595 10.5157 3.98595 10.9662 4.34495 11.3852C4.67995 11.7712 5.11745 11.9987 5.78495 12.0082C5.78495 12.0082 5.80645 12.3182 5.51095 12.5872C5.32145 12.7572 4.88495 12.8122 4.88495 12.8122C4.88495 12.8122 5.70345 12.9782 5.79345 14.1882C5.84245 14.8442 6.00845 15.0717 6.00845 15.0717H5.99495ZM6.19645 14.9417C6.19595 14.9392 6.06345 14.7317 6.02095 14.1717C5.97095 13.5007 5.71795 13.1087 5.46745 12.8837C5.53995 12.8497 5.60745 12.8072 5.66345 12.7562C6.03095 12.4252 6.01545 12.0362 6.01295 11.9932L5.99895 11.7832L5.78845 11.7802C5.22745 11.7712 4.83595 11.6032 4.51845 11.2342C4.45001 11.1544 4.38908 11.0683 4.33645 10.9772C4.51145 11.0307 4.72545 11.0702 4.97895 11.0702C5.04645 11.0702 5.11745 11.0662 5.19195 11.0612C5.44714 11.0358 5.68844 10.9328 5.88345 10.7662L6.10195 10.5647L5.85295 10.4047C5.29495 10.0472 4.72445 9.36974 5.16295 8.18124C5.44645 7.40874 6.10195 6.70924 7.16795 6.03824C7.52795 5.81074 7.72495 5.54224 7.72495 5.28624C7.72495 4.89074 7.39495 4.73474 7.15295 4.62324C7.03495 4.56674 6.91195 4.51074 6.85245 4.44124C6.66495 4.22374 6.82245 3.80724 6.99695 3.58124L7.21995 3.28874L6.85845 3.21724C6.84845 3.21574 6.75345 3.19824 6.60845 3.19824C6.33895 3.19824 5.82345 3.26374 5.40345 3.70024C5.05295 4.06324 5.00695 4.44974 5.02495 4.69924C4.99095 4.70224 4.95695 4.70374 4.92095 4.70524H4.88245C4.35445 4.70524 4.10545 4.14524 4.09595 4.12374L3.94745 3.77374L3.70745 4.06874C3.69395 4.08674 3.34245 4.52474 3.42845 5.07424C3.48495 5.43924 3.71395 5.75424 4.10695 6.01324C4.14995 6.04074 4.17945 6.06424 4.20095 6.08374C3.45895 6.32524 3.04545 6.85474 2.60845 7.41124L2.54545 7.49024C1.87745 8.34174 0.931948 8.36724 0.818948 8.36724L0.496948 8.35724L0.594948 8.66424C0.606448 8.70124 0.891448 9.57274 1.74695 9.57274L1.78795 9.57124C1.87845 9.56874 1.95995 9.55624 2.03195 9.54224C1.99695 10.0172 1.82195 10.8957 1.03595 11.2222L0.795948 11.3222L0.925948 11.5487C0.937948 11.5692 1.22995 12.0627 1.89095 12.0627C2.12753 12.0651 2.36117 12.0102 2.57195 11.9027C2.59745 12.1177 2.65045 12.3932 2.75345 12.7017C2.99245 13.4147 2.76995 13.9152 2.76145 13.9352L2.64345 14.1842L2.90995 14.2547C2.92795 14.2597 3.09195 14.3007 3.28595 14.3007C3.55287 14.3014 3.81118 14.2063 4.01395 14.0327C4.08645 14.2562 4.21095 14.5087 4.42645 14.7322C4.79345 15.1097 5.32095 15.3002 6.00995 15.3002L6.42745 15.2947L6.19645 14.9417Z" fill="#1A1919"/>
<path fill-rule="evenodd" clip-rule="evenodd" d="M2.18702 6.08143C2.36302 5.89993 2.54852 5.84493 2.70852 5.84493C2.95452 5.84493 3.14102 5.97643 3.14102 5.97643C2.47602 6.33143 2.33902 6.90043 1.95902 7.02893C1.89713 7.05038 1.83202 7.06104 1.76652 7.06043C1.48702 7.06043 1.21652 6.87943 1.12452 6.67293C1.12452 6.67293 1.63652 6.64143 2.18702 6.08143ZM1.76652 7.28843C1.85802 7.28843 1.94752 7.27443 2.03252 7.24543C2.27052 7.16643 2.42252 6.97693 2.58252 6.77893C2.74602 6.57743 2.93002 6.34893 3.24902 6.17893L3.57702 6.00243L3.27202 5.78743C3.24702 5.77193 3.01852 5.61743 2.70852 5.61743C2.45452 5.61743 2.21852 5.72093 2.02402 5.91993C1.55052 6.40443 1.12602 6.44343 1.11052 6.44393L0.780518 6.46343L0.915518 6.76693C1.05252 7.06943 1.41052 7.28843 1.76652 7.28843ZM3.25802 9.94043C3.22302 9.07993 3.44302 8.38243 3.78802 7.80743C3.59602 8.40643 3.62202 9.13943 4.27802 9.82443C4.27802 9.82443 2.97402 8.25943 4.79652 6.65643C5.52552 6.04593 6.32302 5.66893 6.73302 5.40193C5.25002 5.88693 4.52552 5.35293 4.52552 5.35293C4.99902 5.76443 5.61252 5.75793 5.99302 5.69793C5.89002 5.74843 5.78202 5.80093 5.66702 5.86343C4.41552 6.54393 3.29202 7.66443 3.09902 9.21543V9.20393C2.80852 10.7269 2.16152 11.1179 2.16152 11.1179C2.67652 10.8629 3.00052 10.1879 3.07952 9.94493C3.16552 11.2839 3.81752 12.2129 4.57952 13.1074C4.97552 13.5709 5.11452 14.0214 5.11452 14.0214C5.11452 14.0214 5.03752 13.5109 4.69402 13.0954C3.98402 12.2389 3.30802 11.1729 3.25802 9.94043ZM9.07352 6.80193V7.10993C9.17952 6.98043 9.38352 7.00693 9.38352 7.00693V7.45043C9.38352 7.45043 9.37702 7.66843 9.29952 7.76293H9.74252C9.66552 7.66843 9.65802 7.45043 9.65802 7.45043V7.00693C9.65802 7.00693 9.86302 6.98043 9.96802 7.10993V6.80193H9.07352ZM8.88352 4.97793C9.02502 5.09043 9.10702 5.10943 9.10952 5.11093L9.16452 5.13643V4.84693L8.64452 4.62793C8.64452 4.62793 8.64902 4.79593 8.88352 4.97793ZM10.1205 4.97793C10.3555 4.79593 10.3605 4.62793 10.3605 4.62793L9.84002 4.84693V5.13693L9.89502 5.11093C9.89752 5.10943 9.97902 5.09043 10.1205 4.97793Z" fill="#1A1919"/>
<path fill-rule="evenodd" clip-rule="evenodd" d="M9.50202 4.20638L8.24852 3.71038C8.35502 3.45738 8.84652 3.24238 9.50202 3.24188C10.158 3.24238 10.6495 3.45738 10.756 3.71038L9.50202 4.20638ZM10.4365 5.76088L9.59402 6.20588V4.40388L10.7375 4.01488L10.4365 5.75988V5.76088ZM10.9585 6.23888L11.3435 6.46288H11.349L11.446 6.51938C11.2285 6.57938 11.062 6.68888 10.9225 6.83188L10.9075 6.84688C10.8746 6.88198 10.8431 6.91834 10.813 6.95588L10.7955 6.97888C10.7655 7.01738 10.737 7.05688 10.7105 7.09788L10.696 7.11838C10.6636 7.16789 10.6327 7.21841 10.6035 7.26988C10.3285 7.74338 9.89102 8.02638 9.50202 8.02738C9.11302 8.02638 8.67502 7.74338 8.40102 7.26988C8.37189 7.21938 8.34138 7.1697 8.30952 7.12088L8.29152 7.09438C8.26539 7.05577 8.23838 7.01776 8.21052 6.98038C8.20352 6.97038 8.19702 6.96288 8.19002 6.95438C8.16066 6.91791 8.13015 6.88239 8.09852 6.84788C8.09202 6.84288 8.08752 6.83638 8.08152 6.83088C7.93866 6.68128 7.75764 6.57357 7.55802 6.51938L7.65602 6.46288H7.66002L8.04652 6.23888L8.44202 6.01138L9.50002 6.58838L9.50202 6.58638L9.50502 6.58838L10.5625 6.01138L10.9585 6.23888ZM12.4785 7.84088C12.392 8.06888 12.3205 8.31588 12.3205 8.56138L12.3215 10.1464C11.991 10.0914 11.9515 9.73438 11.9505 9.71888L11.9445 9.64638L11.873 9.63988C11.7518 9.62919 11.6385 9.57503 11.554 9.48738C11.3915 9.32488 11.3915 9.06188 11.3915 9.05938C11.3895 9.07288 11.2135 9.31938 11.4175 9.58938C11.5035 9.70338 11.6285 9.77388 11.7895 9.80138C11.8275 9.99888 11.9745 10.2784 12.3215 10.3214V11.0964H11.346C10.896 10.8459 11.0865 10.4049 11.0955 10.3859L11.1335 10.3019L11.0475 10.2694C10.56 10.0884 10.6945 9.60138 10.701 9.58038L10.721 9.50938L10.654 9.47838C10.252 9.29138 10.3065 8.78838 10.312 8.76738C10.188 8.86788 10.1435 9.07238 10.2285 9.27388C10.1825 9.32688 10.1205 9.39038 10.053 9.46038C9.93557 9.43473 9.82983 9.37114 9.75211 9.27942C9.6744 9.1877 9.62903 9.07295 9.62302 8.95288L9.62252 8.89388L9.56752 8.87288C9.40502 8.81288 9.29352 8.72188 9.23802 8.60038C9.17652 8.46588 9.19802 8.32538 9.21502 8.25688C9.30846 8.27625 9.40359 8.2863 9.49902 8.28688H9.50552C9.55402 8.28688 9.60152 8.28388 9.64852 8.27938C9.90852 8.25338 10.1985 8.14188 10.5015 7.84088H12.4785ZM11.2595 14.7484L11.3685 14.1799L11.386 14.0749C11.4533 14.1012 11.5248 14.1153 11.597 14.1164C11.763 14.1164 11.86 14.0284 11.9245 13.9539L12.0075 13.8564L11.9395 13.7494C11.9335 13.7389 11.782 13.4994 11.666 13.3354C11.643 13.303 11.6208 13.27 11.5995 13.2364C11.467 13.0384 11.3015 12.7899 10.9695 12.7899L10.94 12.7909C10.8922 12.7935 10.845 12.8031 10.8 12.8194C10.699 12.7711 10.5885 12.7458 10.4765 12.7454C10.3639 12.7481 10.2525 12.7697 10.147 12.8094C10.125 12.8159 10.105 12.8229 10.0895 12.8259L9.46952 12.7649C9.46152 12.7629 9.43652 12.7479 9.40552 12.7119V12.7084L9.53952 12.6549C9.50202 12.2069 9.07252 11.9314 8.83352 11.8379C8.82292 11.79 8.7986 11.7462 8.76352 11.7119L8.63052 11.5854L8.51352 11.7259L8.45602 11.7979L7.58702 11.4404L8.15202 12.1509L7.92952 12.4894C7.84752 12.5759 7.93802 12.6634 7.93802 12.6634L8.16802 12.8224L8.40702 12.7329C8.41502 12.7329 8.42202 12.7349 8.43052 12.7359C8.41902 12.7724 8.40402 12.9149 8.39402 12.9544L7.97952 12.8729L7.54452 13.1194C7.32002 13.2844 7.28952 13.5564 7.37302 13.7429L7.42102 13.8489L7.48952 13.9984L7.64202 13.9354C7.64452 13.9344 7.64652 13.9339 7.64802 13.9324C7.59302 14.1079 7.61552 14.2744 7.71302 14.3839L7.80552 14.5004L7.92852 14.6564L8.06352 14.5109C8.10352 14.4709 8.23252 14.3264 8.27202 14.2024L8.30102 14.1079L8.23552 14.0354L8.22452 14.0219L8.29852 13.8994L8.83952 14.0274L8.96152 14.0554L9.02652 13.9479L9.06152 13.8899C9.06802 13.8774 9.06952 13.8754 9.09452 13.8754C9.11402 13.8754 9.13302 13.8774 9.15352 13.8824C9.33801 13.9188 9.52548 13.938 9.71352 13.9399C9.87502 13.9399 9.97252 13.9339 10.0875 13.8954C10.0875 13.8954 10.378 14.2254 10.388 14.2384L10.21 14.7884L10.202 14.8214C9.86552 14.8489 9.70152 14.9229 9.50302 15.1214C9.21502 14.8354 9.01152 14.8049 8.23802 14.8049C7.31152 14.8049 6.68352 14.2614 6.68352 13.3919V11.2679H12.3215L12.3225 13.3919C12.3225 14.0964 11.9095 14.5879 11.2595 14.7484ZM7.78702 13.5474L7.81652 13.6209C7.79652 13.6849 7.57652 13.7759 7.57652 13.7759L7.52952 13.6714C7.4995 13.5998 7.49437 13.5202 7.51494 13.4453C7.53552 13.3704 7.58062 13.3046 7.64302 13.2584L7.99952 13.0409L8.37802 13.1209C8.37052 13.2414 8.44252 13.3314 8.44252 13.3314L8.04652 13.2554L7.80902 13.4194C7.76902 13.4474 7.76602 13.4994 7.78702 13.5474ZM11.1995 14.1474L11.078 14.7829C11 14.7939 10.918 14.7999 10.834 14.8029L10.962 14.1929C11 14.0109 10.514 13.9544 10.2735 13.5979C10.156 13.7299 9.93552 13.7694 9.71352 13.7694C9.51052 13.7694 9.30852 13.7369 9.18502 13.7124C9.15529 13.7072 9.12519 13.7044 9.09502 13.7039C9.02352 13.7039 8.95902 13.7259 8.91402 13.8014L8.87902 13.8614L8.21602 13.7049L8.05102 13.9784C8.02802 14.0229 8.02602 14.0599 8.06352 14.1014L8.10852 14.1504C8.07752 14.2469 7.93952 14.3934 7.93952 14.3934L7.84102 14.2699C7.76302 14.1829 7.77602 14.0229 7.85702 13.8749L8.12002 13.4299L8.68152 13.5114L8.59452 13.3119C8.47702 13.0484 8.65602 12.7134 8.67502 12.5204C8.66852 12.5789 8.61502 12.5919 8.55302 12.5919C8.49602 12.5919 8.43302 12.5814 8.39102 12.5814C8.37452 12.5814 8.36002 12.5829 8.35252 12.5884L8.20052 12.6809L8.08052 12.5749C8.06602 12.5549 8.06152 12.5064 8.09652 12.4704L8.37452 12.1584L8.04652 11.7744L8.50552 12.0059L8.64602 11.8354C8.68452 11.8734 8.66752 11.9719 8.66752 11.9719C8.81102 11.9759 9.21352 12.1984 9.23452 12.7184C9.23602 12.7344 9.23602 12.7519 9.23602 12.7694L9.24652 12.7864C9.27502 12.8259 9.35352 12.9264 9.45302 12.9354L10.088 12.9984H10.0905C10.1605 12.9984 10.299 12.9164 10.4765 12.9164C10.574 12.9164 10.6815 12.9414 10.7965 13.0139C10.7965 13.0139 10.8545 12.9679 10.948 12.9629C10.955 12.9619 10.963 12.9619 10.9695 12.9619C11.2545 12.9619 11.373 13.2199 11.526 13.4344C11.641 13.5974 11.7945 13.8394 11.7945 13.8394C11.738 13.9069 11.685 13.9444 11.5965 13.9444C11.569 13.9445 11.5415 13.9418 11.5145 13.9364C11.2095 13.8799 11.165 13.2514 10.991 13.2014C10.9819 13.199 10.9725 13.1978 10.963 13.1979C10.907 13.1979 10.8825 13.2479 10.8825 13.2479C10.9625 13.4624 10.9155 13.5489 11.0015 13.7144C11.0655 13.8369 11.179 13.9374 11.226 13.9854C11.226 13.9854 11.2135 14.0784 11.1995 14.1479V14.1474ZM10.615 14.8074C10.53 14.8074 10.451 14.8084 10.38 14.8114L10.566 14.2309C10.595 14.1504 10.448 14.0469 10.3875 13.9559C10.479 14.0139 10.7165 14.1409 10.831 14.1909C10.7568 14.3956 10.6848 14.6011 10.615 14.8074ZM7.84902 9.57638L7.87552 8.56738L8.10152 8.32788L8.24352 8.62588L7.96352 9.59438L7.84852 9.57688L7.84902 9.57638ZM8.01152 9.88938C8.04584 9.95511 8.09778 10.01 8.16152 10.0479C8.15977 10.1438 8.15058 10.2394 8.13402 10.3339C8.12902 10.3559 8.12402 10.3764 8.11752 10.3969C8.11452 10.4099 8.11052 10.4204 8.10802 10.4289C8.03852 10.4289 7.90302 10.4204 7.79252 10.3799C7.66952 10.3349 7.48602 10.1089 7.52852 9.85988C7.58152 9.82738 7.70452 9.75788 7.82002 9.75788C7.90852 9.75788 7.96902 9.79988 8.01152 9.88938ZM10.6295 10.1604C10.456 10.2889 10.008 10.6164 9.84552 10.7304L8.28152 10.4484L8.29252 10.4069C8.31252 10.3254 8.33402 10.2144 8.33502 10.0839L9.64952 10.1049L9.67452 10.0799C9.69452 10.0599 10.111 9.65638 10.323 9.42488C10.3735 9.48838 10.4365 9.54838 10.5195 9.60138C10.4915 9.75638 10.503 9.97538 10.6295 10.1604ZM8.50302 7.84088C8.69152 8.02788 8.87502 8.14438 9.05002 8.20838C9.02752 8.29838 8.99752 8.48538 9.08152 8.67088C9.15052 8.82088 9.27552 8.93588 9.45602 9.01288C9.47602 9.19788 9.59252 9.47638 9.91602 9.59938C9.77402 9.74238 9.63602 9.87738 9.58102 9.93138L8.26902 9.91088C8.22568 9.89016 8.18973 9.85665 8.16602 9.81488C8.16352 9.80838 8.15902 9.80488 8.15602 9.79788L8.37052 9.83288L8.38402 9.83338C8.40419 9.83352 8.42375 9.82644 8.43915 9.81342C8.45456 9.8004 8.4648 9.78229 8.46802 9.76238C8.47164 9.73998 8.46626 9.71706 8.45305 9.69861C8.43985 9.68016 8.41989 9.66768 8.39752 9.66388L8.13402 9.62188L8.42602 8.61138L8.14952 8.02788L7.70602 8.49788L7.67902 9.54838L7.38102 9.50088C7.33502 9.49188 7.29102 9.52588 7.28252 9.57238C7.27919 9.59489 7.28481 9.6178 7.29818 9.63621C7.31154 9.65463 7.33159 9.66707 7.35402 9.67088L7.47902 9.68988C7.43402 9.71538 7.40452 9.73588 7.40102 9.73838L7.37602 9.75638L7.36902 9.78738C7.29652 10.0824 7.46052 10.3624 7.63752 10.4874L7.63102 10.5249C7.62402 10.5699 7.63402 10.6149 7.66102 10.6514C7.67639 10.6736 7.69696 10.6916 7.72093 10.704C7.7449 10.7164 7.77154 10.7227 7.79852 10.7224C7.83641 10.7221 7.87308 10.709 7.90258 10.6852C7.93208 10.6614 7.95267 10.6283 7.96102 10.5914C8.02702 10.5989 8.08752 10.6009 8.12852 10.6009H8.16402L9.88452 10.9124L9.91402 10.8929C10.051 10.7969 10.574 10.4154 10.745 10.2889C10.7925 10.3294 10.845 10.3664 10.9085 10.3969C10.853 10.5834 10.8495 10.8699 11.0685 11.0969H6.68352V8.56188C6.68352 8.31588 6.61202 8.06888 6.52702 7.84088H8.50302ZM8.26602 4.01588L9.41052 4.40438V6.20538L8.56802 5.76038L8.26602 4.01588ZM11.058 3.79838C11.058 3.35888 10.3195 2.96338 9.50452 2.96338H9.49952C8.68452 2.96338 7.94652 3.35888 7.94652 3.79838L7.96252 3.90638L8.28802 5.77788L7.96102 5.96788L7.11552 6.46288H7.11852C7.11852 6.46288 6.92852 6.56088 6.84002 6.62088C6.51802 6.84488 6.44952 7.17188 6.63652 7.30688C6.68252 7.04038 6.89302 6.76188 7.28652 6.76188C7.57052 6.76188 7.78652 6.90888 7.96152 7.12838C8.00652 7.18388 8.04902 7.24338 8.08852 7.30688C8.13752 7.38738 8.18702 7.45838 8.23552 7.52638H6.05652C6.21652 7.84888 6.36902 8.19038 6.36902 8.56138V13.3924C6.36902 14.5614 7.26652 15.1194 8.23752 15.1194C8.98802 15.1194 9.08902 15.0854 9.50302 15.4984C9.91502 15.0854 10.0165 15.1194 10.7675 15.1194C11.739 15.1194 12.635 14.5614 12.635 13.3924V8.56138C12.635 8.19038 12.7875 7.84888 12.9485 7.52638H10.7685C10.8175 7.45838 10.8665 7.38738 10.9155 7.30688C10.9555 7.24338 10.998 7.18388 11.042 7.12838C11.218 6.90788 11.434 6.76188 11.718 6.76188C12.1115 6.76188 12.3215 7.04038 12.368 7.30688C12.555 7.17188 12.4875 6.84488 12.163 6.62088C12.077 6.56088 11.886 6.46288 11.886 6.46288H11.8895L11.042 5.96788L10.717 5.77788L11.042 3.90638L11.058 3.79838Z" fill="#1A1919"/>
<path d="M25.06 11.8503H26.56V8.36033H28.62V7.09033H23V8.36033H25.06V11.8503ZM33.17 7.09033L30.67 9.86033V7.09033H29.22V11.8503H30.5L33 9.08033V11.8503H34.45V7.09033H33.17ZM36.9985 10.0803H39.3285V11.8503H40.7785V7.09033H39.3285V8.83033H36.9985V7.09033H35.5485V11.8503H36.9985V10.0803ZM44.8165 11.8503C45.1465 11.8503 45.4465 11.8203 45.7265 11.7403C46.4765 11.5303 46.9665 10.9203 46.9665 10.0903C46.9665 9.30033 46.5465 8.75033 45.8765 8.50033C45.5565 8.38033 45.1765 8.37033 44.8165 8.37033H43.3265V7.09033H41.8765V11.8503H44.8165ZM43.3265 9.49033H44.5665C44.7665 9.49033 44.9565 9.49033 45.1265 9.55033C45.3665 9.63033 45.5065 9.83033 45.5065 10.0703C45.5065 10.3203 45.3665 10.5303 45.1365 10.6303C44.9765 10.7003 44.8165 10.7003 44.5665 10.7003H43.3265V9.49033ZM49.1665 10.0503H49.5665L51.2965 11.8503H53.2265L50.8165 9.37033L53.1365 7.09033H51.3165L49.5665 8.88033H49.1665V7.09033H47.7165V11.8503H49.1665V10.0503Z" fill="white"/>
<path d="M56.21 6.96031C54.26 6.96031 53.09 8.06031 53.09 9.48031C53.09 10.9003 54.26 12.0003 56.21 12.0003C58.15 12.0003 59.32 10.9003 59.32 9.48031C59.32 8.06031 58.15 6.96031 56.21 6.96031ZM56.21 10.8403C55.24 10.8403 54.62 10.2603 54.62 9.48031C54.62 8.70031 55.24 8.13031 56.21 8.13031C57.17 8.13031 57.8 8.70031 57.8 9.48031C57.8 10.2603 57.17 10.8403 56.21 10.8403ZM64.149 7.30031V6.82031H62.699V7.30031C60.879 7.34031 59.789 8.11031 59.789 9.47031C59.789 10.8303 60.879 11.5403 62.699 11.5803V12.0603H64.149V11.5803C65.979 11.5403 67.069 10.8303 67.069 9.47031C67.069 8.11031 65.979 7.34031 64.149 7.30031ZM62.699 10.5603C61.699 10.5203 61.259 10.1103 61.259 9.47031C61.259 8.83031 61.699 8.37031 62.699 8.33031V10.5603ZM64.149 10.5603V8.33031C65.159 8.37031 65.589 8.83031 65.589 9.47031C65.589 10.1103 65.159 10.5203 64.149 10.5603ZM71.893 7.30031V6.82031H70.443V7.30031C68.623 7.34031 67.533 8.11031 67.533 9.47031C67.533 10.8303 68.623 11.5403 70.443 11.5803V12.0603H71.893V11.5803C73.723 11.5403 74.813 10.8303 74.813 9.47031C74.813 8.11031 73.723 7.34031 71.893 7.30031ZM70.443 10.5603C69.443 10.5203 69.003 10.1103 69.003 9.47031C69.003 8.83031 69.443 8.37031 70.443 8.33031V10.5603ZM71.893 10.5603V8.33031C72.903 8.37031 73.333 8.83031 73.333 9.47031C73.333 10.1103 72.903 10.5203 71.893 10.5603Z" fill="white"/>
</g>
<defs>
<clipPath id="clip0_7_8853">
<rect width="75" height="17" fill="white" transform="translate(0 0.820312)"/>
</clipPath>
</defs>
</svg>
    