<svg width="44" height="15" viewBox="0 0 44 15" fill="none" xmlns="http://www.w3.org/2000/svg">
<path d="M16.7053 0.258751L10.945 14.3138H7.18667L4.35233 3.09562C4.18 2.40563 4.0315 2.1525 3.50717 1.86188C2.65283 1.3875 1.24117 0.943126 0 0.665626L0.0843333 0.258751H6.13433C6.52969 0.258345 6.91216 0.402497 7.21272 0.665184C7.51327 0.927872 7.71211 1.29179 7.77333 1.69125L9.27117 9.825L12.9708 0.258751H16.7053ZM31.4325 9.72563C31.4472 6.015 26.4165 5.81063 26.4513 4.15313C26.4623 3.64875 26.9317 3.1125 27.9583 2.97563C29.1615 2.85876 30.3733 3.07642 31.4655 3.60563L32.0888 0.624375C31.0254 0.215523 29.8992 0.00408116 28.7632 0C25.2487 0 22.7755 1.9125 22.7535 4.64813C22.7315 6.67125 24.519 7.79813 25.8665 8.47313C27.2525 9.16125 27.7182 9.60375 27.7108 10.2188C27.7017 11.1638 26.6072 11.5781 25.5842 11.595C23.7967 11.6231 22.7608 11.1019 21.9322 10.7081L21.2887 13.7869C22.1192 14.1769 23.6518 14.5181 25.2413 14.5331C28.9758 14.5331 31.4197 12.6469 31.4325 9.72563ZM40.711 14.3138H44L41.1308 0.258751H38.0948C37.7704 0.255676 37.4526 0.352348 37.1826 0.536229C36.9126 0.72011 36.7028 0.982718 36.5805 1.29L31.2473 14.3138H34.98L35.7225 12.2137H40.2838L40.711 14.3138ZM36.7455 9.33375L38.6155 4.05562L39.6935 9.33375H36.7455ZM21.7855 0.258751L18.8467 14.3138H15.29L18.2325 0.258751H21.7855Z" fill="white"/>
</svg>
