<svg width="17" height="18" viewBox="0 0 17 18" fill="none" xmlns="http://www.w3.org/2000/svg">
<g clip-path="url(#clip0_66_2868)">
<path d="M8.08117 0.823315L0.643671 4.01082C0.178827 4.21003 -0.0801572 4.70808 0.0227725 5.19949C0.125702 5.69089 0.557343 6.04949 1.06203 6.04949V6.31511C1.06203 6.75671 1.4173 7.11199 1.85891 7.11199H15.1402C15.5818 7.11199 15.937 6.75671 15.937 6.31511V6.04949C16.4417 6.04949 16.8767 5.69421 16.9763 5.19949C17.0759 4.70476 16.8169 4.20671 16.3554 4.01082L8.91789 0.823315C8.64894 0.710425 8.3468 0.710425 8.08117 0.823315ZM4.24953 8.17449H2.12453V14.6923C2.10461 14.7022 2.08469 14.7155 2.06476 14.7288L0.471015 15.7913C0.0825381 16.0503 -0.0934385 16.535 0.0426943 16.9833C0.178827 17.4315 0.593866 17.737 1.06203 17.737H15.937C16.4052 17.737 16.8169 17.4315 16.953 16.9833C17.0892 16.535 16.9165 16.0503 16.5247 15.7913L14.931 14.7288C14.9111 14.7155 14.8911 14.7055 14.8712 14.6923V8.17449H12.7495V14.5495H11.4214V8.17449H9.29641V14.5495H7.70265V8.17449H5.57765V14.5495H4.24953V8.17449ZM8.49953 2.86199C8.78132 2.86199 9.05157 2.97393 9.25083 3.17319C9.45009 3.37244 9.56203 3.64269 9.56203 3.92449C9.56203 4.20628 9.45009 4.47653 9.25083 4.67579C9.05157 4.87505 8.78132 4.98699 8.49953 4.98699C8.21774 4.98699 7.94749 4.87505 7.74823 4.67579C7.54897 4.47653 7.43703 4.20628 7.43703 3.92449C7.43703 3.64269 7.54897 3.37244 7.74823 3.17319C7.94749 2.97393 8.21774 2.86199 8.49953 2.86199Z" fill="white"/>
</g>
<defs>
<clipPath id="clip0_66_2868">
<rect width="17" height="17" fill="white" transform="translate(0 0.736816)"/>
</clipPath>
</defs>
</svg>
