<svg width="25" height="26" viewBox="0 0 25 26" fill="none" xmlns="http://www.w3.org/2000/svg">
<path d="M18.75 13.2369C18.75 8.05977 17.1396 2.82019 14.0625 2.82019L9.89583 2.82019C6.81875 2.82019 5.20834 8.05977 5.20834 13.2369C5.20834 18.4139 6.81875 23.6535 9.89583 23.6535L14.0625 23.6535C17.1396 23.6535 18.75 18.4139 18.75 13.2369ZM9.89583 4.90352L11.1427 4.90352C10.7691 5.56326 10.4687 6.26185 10.2469 6.98686L8.2875 6.98686C8.82292 5.62019 9.46042 4.90352 9.89583 4.90352ZM9.74167 17.4035L7.68854 17.4035C7.50209 16.5004 7.36563 15.4587 7.31563 14.2785L9.39896 14.2785C9.4407 15.3269 9.55521 16.371 9.74167 17.4035ZM7.31458 12.1952C7.3548 11.1452 7.47951 10.1002 7.6875 9.07019L9.74063 9.07019C9.55938 10.0691 9.44167 11.1244 9.39688 12.1952L7.31458 12.1952ZM8.2875 19.4869L10.2469 19.4869C10.4682 20.212 10.7687 20.9107 11.1427 21.5702L9.89583 21.5702C9.46042 21.5702 8.82292 20.8546 8.2875 19.4869ZM11.4583 13.2369C11.4583 7.84415 13.1781 4.90352 14.0625 4.90352C14.9469 4.90352 16.6667 7.84415 16.6667 13.2369C16.6667 18.6296 14.9469 21.5702 14.0625 21.5702C13.1781 21.5702 11.4583 18.6296 11.4583 13.2369Z" fill="white"/>
</svg>
