<svg width="17" height="16" viewBox="0 0 17 16" fill="none" xmlns="http://www.w3.org/2000/svg">
<path d="M12.6924 11.2013V15.4706C12.6924 15.9511 12.1014 16.1771 11.7729 15.8372L6.69975 11.2013H2.4224C1.08886 11.2013 0 10.1213 0 8.79864L0 2.40243C0 1.08 1.08886 -1.56665e-05 2.4224 -1.56665e-05H14.5776C15.9111 -1.56665e-05 17 1.07974 17 2.40243V8.79864C17 10.1213 15.9111 11.2013 14.5776 11.2013H12.6924ZM11.6242 14.2636V10.6713C11.6242 10.3789 11.8635 10.1416 12.1583 10.1416H14.5776C15.3212 10.1416 15.9318 9.53617 15.9318 8.79864V2.40243C15.9318 1.6649 15.3212 1.05947 14.5776 1.05947H2.4224C1.67856 1.05947 1.06817 1.6649 1.06817 2.40243V8.79864C1.06817 9.53617 1.67856 10.1416 2.4224 10.1416L6.90666 10.1429C7.03572 10.1429 7.1653 10.1888 7.26772 10.2824L11.6242 14.2636Z" fill="#A129FF"/>
</svg>
