<svg width="23" height="24" viewBox="0 0 23 24" fill="none" xmlns="http://www.w3.org/2000/svg">
<path d="M6.70801 17.9867H16.2913V16.0701H6.70801V17.9867Z" fill="white"/>
<path d="M16.2913 14.1535H6.70801V12.2368H16.2913V14.1535Z" fill="white"/>
<path d="M6.70801 10.3201H10.5413V8.40344H6.70801V10.3201Z" fill="white"/>
<path fill-rule="evenodd" clip-rule="evenodd" d="M5.75 2.65344C4.9875 2.65344 4.25624 2.95634 3.71707 3.49551C3.1779 4.03468 2.875 4.76594 2.875 5.52844V18.9451C2.875 19.7076 3.1779 20.4389 3.71707 20.978C4.25624 21.5172 4.9875 21.8201 5.75 21.8201H17.25C18.0125 21.8201 18.7438 21.5172 19.2829 20.978C19.8221 20.4389 20.125 19.7076 20.125 18.9451V9.36178C20.125 7.58261 19.4182 5.87632 18.1602 4.61827C16.9021 3.36021 15.1958 2.65344 13.4167 2.65344H5.75ZM5.75 4.57011H12.4583V9.36178H18.2083V18.9451C18.2083 19.1993 18.1074 19.443 17.9276 19.6228C17.7479 19.8025 17.5042 19.9034 17.25 19.9034H5.75C5.49583 19.9034 5.25208 19.8025 5.07236 19.6228C4.89263 19.443 4.79167 19.1993 4.79167 18.9451V5.52844C4.79167 5.27428 4.89263 5.03052 5.07236 4.8508C5.25208 4.67108 5.49583 4.57011 5.75 4.57011ZM14.375 4.66594C15.1282 4.82025 15.8334 5.15324 16.4311 5.63688C17.0288 6.12052 17.5016 6.74066 17.8097 7.44511H14.375V4.66594Z" fill="white"/>
</svg>
