<svg width="23" height="19" viewBox="0 0 23 19" fill="none" xmlns="http://www.w3.org/2000/svg">
<path fill-rule="evenodd" clip-rule="evenodd" d="M15.9008 1.16186C15.8241 1.08516 15.7331 1.02432 15.6329 0.982803C15.5327 0.941289 15.4253 0.919922 15.3168 0.919922C15.2083 0.919922 15.1009 0.941289 15.0007 0.982803C14.9005 1.02432 14.8095 1.08516 14.7328 1.16186L14.0131 1.88118C13.5508 1.66073 13.0315 1.58892 12.5267 1.67564C12.0219 1.76236 11.5565 2.00334 11.1944 2.36541L2.43945 11.1145L7.10869 15.781L15.8644 7.03113C16.6271 6.26974 16.7881 5.13383 16.3481 4.21487L17.0687 3.49472C17.2234 3.34002 17.3103 3.13024 17.3103 2.9115C17.3103 2.69277 17.2234 2.48298 17.0687 2.32829L15.9008 1.16186ZM12.378 8.18189L7.10869 13.4482L4.77448 11.1145L10.043 5.84903L12.378 8.18189ZM13.8785 6.68219L14.6957 5.86553C14.7724 5.78891 14.8333 5.69794 14.8748 5.59779C14.9164 5.49765 14.9378 5.39031 14.9378 5.2819C14.9378 5.17349 14.9164 5.06615 14.8748 4.96601C14.8333 4.86586 14.7724 4.77488 14.6957 4.69827L13.5294 3.53184C13.4528 3.45514 13.3617 3.3943 13.2615 3.35278C13.1613 3.31127 13.0539 3.2899 12.9454 3.2899C12.837 3.2899 12.7296 3.31127 12.6294 3.35278C12.5292 3.3943 12.4381 3.45514 12.3615 3.53184L11.5443 4.34851L13.8785 6.68302V6.68219Z" fill="white"/>
<path d="M0 18.2021L1.75148 11.7859L6.41989 16.4524L0 18.2021Z" fill="white"/>
<path d="M7.01562 17.8309L21.8727 17.8309" stroke="white" stroke-linecap="round" stroke-dasharray="2 2"/>
</svg>
