<svg width="97" height="23" viewBox="0 0 97 23" fill="none" xmlns="http://www.w3.org/2000/svg">
<g clip-path="url(#clip0_66_1894)">
<path fill-rule="evenodd" clip-rule="evenodd" d="M25.0047 10.9426L25.3333 9.8731L24.2453 9.90828C24.154 9.90828 23.4853 9.88799 22.838 9.41107C22.8867 9.41513 22.934 9.42257 22.9847 9.42257C23.6513 9.42257 24.2973 9.01399 24.5553 8.42952L25.0233 7.37422C24.4367 7.38234 23.9 7.30725 23.9 7.30725C23.8953 7.30725 23.4727 7.2511 22.984 6.74307C22.6333 6.37981 22.1993 6.18702 21.7293 6.18702C21.5433 6.18774 21.3584 6.21764 21.1813 6.27563C21.206 6.1904 21.2293 6.10313 21.2433 6.01384C21.392 5.02619 20.7673 4.27396 20.7673 4.27396L19.9493 3.24437L19.442 4.4539C19.44 4.45796 19.312 4.74207 19.0833 4.88007C19.014 4.52425 18.844 4.12446 18.4813 3.74225C17.7967 3.02249 16.964 2.91425 16.528 2.91425C16.326 2.91425 16.1813 2.93725 16.1467 2.94266L15.1593 3.14019C15.216 2.91628 15.338 2.5246 15.5593 2.17352L16.1047 1.31102L14.7333 1.46999L14.2967 0.526986L13.4507 0.970075L12.6687 0.184692L11.8887 0.969398L11.0413 0.526986L10.6053 1.46931L9.23467 1.31034L9.78067 2.17419C10.0027 2.52528 10.1233 2.91493 10.18 3.13884L9.238 2.94943L9.20533 2.94469C9.07523 2.92389 8.9437 2.91372 8.812 2.91425C8.376 2.91425 7.54333 3.02249 6.86067 3.74225C6.49733 4.12378 6.32667 4.52425 6.25733 4.88007C6.03 4.74275 5.90267 4.46405 5.90267 4.46405L5.39467 3.2464L4.56333 4.2841C4.462 4.41737 3.96133 5.12496 4.09667 6.01587C4.11133 6.10449 4.134 6.19107 4.15867 6.27631C3.98209 6.21812 3.79765 6.18822 3.612 6.18769C3.14133 6.18769 2.70733 6.38049 2.356 6.74375C1.86933 7.24975 1.44867 7.30725 1.452 7.30725C1.452 7.30725 1.00733 7.38843 0.318667 7.3749L0.784667 8.43019C1.04333 9.01466 1.69 9.42325 2.35533 9.42325C2.406 9.42325 2.45333 9.41581 2.50267 9.41175C1.856 9.88934 1.188 9.90896 1.10733 9.90896L0 9.8731L0.335333 10.9419C0.504667 11.4939 1.06867 12.4065 2.14867 12.5046C2.03133 13.0052 1.77067 13.5666 1.19867 13.8088L0.373333 14.1538L0.823333 14.9507C1.07733 15.3802 1.674 15.8829 2.52267 15.8829C2.706 15.8829 2.88333 15.8633 3.05467 15.8267C3.098 16.0229 3.15267 16.2191 3.21733 16.4153C3.46933 17.1797 3.252 17.7127 3.24933 17.7188L2.84267 18.586L3.75133 18.8296C3.76267 18.8336 4.038 18.9107 4.38133 18.9107C4.53733 18.9107 4.68667 18.8938 4.82667 18.86C4.932 18.835 5.03333 18.8012 5.13133 18.7613C5.24933 18.9757 5.392 19.1719 5.55867 19.3471C6.14133 19.9552 6.968 20.263 8.01333 20.263H8.01667L8.76333 20.2529L7.22067 20.905L8.392 21.4807C8.818 21.6917 9.322 21.9407 9.83667 22.1314L9.69 22.538L10.0933 22.7254C10.1293 22.7423 10.9067 23.0947 12.1967 23.1698C12.1967 23.1698 12.508 23.1847 12.6793 23.1847C12.8513 23.1847 13.1593 23.1691 13.1593 23.1691C14.4407 23.092 15.2113 22.7423 15.2473 22.7254L15.652 22.538L15.5047 22.1308C16.0327 21.9346 16.556 21.6748 16.9647 21.4725L18.114 20.9043L16.576 20.2529L17.326 20.263C18.3727 20.263 19.1993 19.9545 19.7813 19.3464C19.9473 19.1719 20.0893 18.9764 20.208 18.7613C20.446 18.8611 20.7012 18.9117 20.9587 18.9101C21.2967 18.9101 21.5747 18.8343 21.582 18.8316L22.4953 18.586L22.0973 17.7344C22.088 17.7127 21.8707 17.1797 22.1227 16.4139C22.1873 16.2191 22.2413 16.0222 22.2853 15.8267C22.4567 15.8633 22.636 15.8822 22.8207 15.8829C23.902 15.8829 24.4207 15.1097 24.5207 14.9419L24.9667 14.1531L24.1413 13.8088C23.568 13.5673 23.308 13.0058 23.192 12.5059C24.258 12.4112 24.8287 11.4973 25.0047 10.9426Z" fill="#FFFFFE"/>
<path fill-rule="evenodd" clip-rule="evenodd" d="M12.6684 3.46084C11.795 3.46151 11.1397 3.7524 10.997 4.09537L12.6684 4.76507L14.3404 4.09537C14.199 3.7524 13.5437 3.46151 12.6684 3.46084ZM12.6864 21.2107H12.653C12.1237 21.2141 11.3937 21.1039 11.043 20.999L10.6204 22.1619C10.899 22.2627 11.843 22.4561 12.6704 22.4561C13.4964 22.4561 14.441 22.2627 14.719 22.1619L14.297 20.9997C13.9444 21.1039 13.2157 21.2141 12.6864 21.2107ZM15.8844 20.054C15.5697 20.2353 14.8677 20.5072 14.459 20.633L14.8017 21.5936C15.4337 21.4177 15.9557 21.2128 16.3864 20.9929L15.6744 20.7528L15.8844 20.054ZM9.45436 20.054L9.66502 20.7528L8.95236 20.9929C9.38236 21.2128 9.90636 21.4177 10.5364 21.593L10.8797 20.6324C10.4717 20.5065 9.76836 20.2353 9.45436 20.054ZM12.6684 2.3494C13.3277 2.3494 13.973 2.50972 14.4704 2.79046C14.5157 2.63622 14.579 2.44816 14.665 2.25131L14.477 2.27431L14.2804 2.2946L14.197 2.11263L13.945 1.57349L13.4877 1.81566L13.309 1.90766L13.1664 1.7656L12.6684 1.26501L12.1717 1.7656L12.0297 1.90766L11.8517 1.81566L11.3917 1.57349L11.143 2.11263L11.0584 2.29528L10.861 2.27431L10.6744 2.25131C10.7604 2.44816 10.823 2.63622 10.869 2.79046C11.3677 2.50972 12.0124 2.3494 12.6684 2.3494ZM22.725 8.58443C22.811 8.61419 22.8977 8.62772 22.9837 8.62772C23.357 8.62772 23.717 8.38216 23.8404 8.1021C23.8404 8.1021 23.157 8.06016 22.4224 7.30184C22.189 7.05695 21.941 6.98322 21.729 6.98322C21.399 6.98322 21.151 7.15978 21.151 7.15978C22.039 7.64007 22.2197 8.41125 22.725 8.58443ZM2.35502 8.62704C2.44169 8.62704 2.52836 8.61419 2.61169 8.58375C3.11836 8.41057 3.30102 7.64007 4.18702 7.16046C4.18702 7.16046 3.93902 6.98322 3.61102 6.98322C3.39769 6.98322 3.15036 7.05628 2.91569 7.30251C2.18169 8.06016 1.49902 8.10278 1.49902 8.10278C1.62169 8.38216 1.98236 8.62772 2.35502 8.62772V8.62704Z" fill="#FFFFFE"/>
<path fill-rule="evenodd" clip-rule="evenodd" d="M22.4577 14.1167C21.771 13.7717 21.3377 12.8584 21.2323 12.5297C21.119 14.3413 20.249 15.5981 19.2323 16.8077C18.7043 17.4354 18.5203 18.0456 18.5203 18.0456C18.5203 18.0456 18.6223 17.3542 19.0783 16.7914C20.027 15.6333 20.9283 14.1911 20.9957 12.5229C21.0417 11.3594 20.7477 10.4157 20.2877 9.63775C20.545 10.4475 20.5083 11.4399 19.6357 12.366C19.6357 12.366 21.3737 10.25 18.9443 8.07984C17.9723 7.25454 16.9083 6.74449 16.361 6.38325C18.339 7.03943 19.3057 6.31696 19.3057 6.31696C18.6737 6.87369 17.8557 6.86422 17.3483 6.78372C17.4863 6.85204 17.6297 6.92375 17.783 7.00696C19.4517 7.92831 20.9503 9.44428 21.2063 11.5427V11.5265C21.5937 13.5877 22.4577 14.1167 22.4577 14.1167ZM22.9657 11.7152C22.981 11.7165 22.9943 11.7165 23.0097 11.7165C23.9397 11.7165 24.2543 10.7039 24.2543 10.7039H24.2363C24.0657 10.7039 22.683 10.6633 21.7057 9.40031C21.063 8.57028 20.5357 7.84037 19.4943 7.55354L19.3917 7.5346L19.3697 7.4284C19.341 7.26672 19.4497 7.11519 19.6977 6.95216C21.1343 5.99563 20.1577 4.77528 20.1577 4.77528C20.1577 4.77528 19.7483 5.75075 18.8303 5.75075L18.7617 5.7494C18.6577 5.74399 18.557 5.7406 18.4557 5.71828L18.2863 5.68446C18.2863 5.68446 18.5483 4.96063 17.9163 4.29702C17.441 3.79507 16.8617 3.70984 16.5277 3.70984C16.359 3.70984 16.2523 3.73216 16.2523 3.73216C16.5697 4.1536 16.799 4.85375 16.4323 5.28534C16.1157 5.65604 15.3423 5.67431 15.3423 6.22766C15.3423 6.46172 15.5577 6.73501 15.9443 6.98057C17.107 7.72469 18.261 8.71234 18.741 10.0362C19.341 11.6868 18.665 12.7827 17.701 13.4111C17.701 13.4111 18.0037 13.6939 18.4417 13.7304C18.531 13.7392 18.6183 13.7432 18.6997 13.7432C19.6257 13.7432 20.1043 13.3015 20.1043 13.3015C20.1043 13.3015 20.025 13.9117 19.5443 14.4779C19.099 15.0001 18.5157 15.3086 17.6257 15.3215C17.6257 15.3215 17.5977 15.7409 17.9917 16.1048C18.2443 16.3341 18.8263 16.4092 18.8263 16.4092C18.8263 16.4092 17.7357 16.6331 17.615 18.2709C17.5497 19.1584 17.327 19.4662 17.327 19.4662H17.3463C19.877 19.4662 19.8123 17.2595 19.8123 17.2595C19.8123 17.2595 19.9883 17.913 20.6943 18.0835C20.7797 18.1065 20.871 18.1153 20.9577 18.1153C21.1843 18.1153 21.3823 18.0612 21.3823 18.0612C21.3823 18.0612 21.0123 17.2683 21.379 16.1596C21.6837 15.2389 21.6343 14.557 21.6343 14.557C21.6343 14.557 21.975 15.0813 22.821 15.086H22.8297C23.0295 15.0892 23.2269 15.0411 23.4036 14.9463C23.5802 14.8514 23.7305 14.7129 23.8403 14.5435C22.153 13.8312 22.3197 11.5332 22.3197 11.5332C22.3197 11.5332 22.5383 11.699 22.9657 11.7152ZM6.10634 16.8077C5.08967 15.5981 4.21967 14.3413 4.10501 12.5297C4.00034 12.8591 3.56767 13.7723 2.88167 14.1167C2.88167 14.1167 3.74434 13.5877 4.13167 11.5265V11.5427C4.38834 9.44428 5.88701 7.92831 7.55567 7.00763C7.70901 6.92307 7.85301 6.85204 7.98967 6.7844C7.48301 6.86422 6.66434 6.87369 6.03301 6.31763C6.03301 6.31763 6.99967 7.03943 8.97701 6.38325C8.43034 6.74449 7.36634 7.25454 6.39501 8.07984C3.96501 10.25 5.70301 12.366 5.70301 12.366C4.82967 11.4392 4.79367 10.4482 5.05101 9.63775C4.59101 10.4157 4.29634 11.3594 4.34434 12.5236C4.41034 14.1911 5.31101 15.6333 6.25767 16.7921C6.71634 17.3536 6.81967 18.0449 6.81967 18.0449C6.81967 18.0449 6.63301 17.4354 6.10634 16.8077ZM6.51301 16.4085C6.51301 16.4085 7.09501 16.3341 7.34767 16.1041C7.74101 15.7409 7.71367 15.3215 7.71367 15.3215C6.82301 15.3086 6.24034 15.0001 5.79301 14.4779C5.31434 13.9117 5.23434 13.3015 5.23434 13.3015C5.23434 13.3015 5.71301 13.7432 6.63767 13.7432C6.72101 13.7432 6.80767 13.7392 6.89634 13.7304C7.16994 13.7023 7.42879 13.591 7.63901 13.4111C6.67367 12.7827 5.99767 11.6868 6.59701 10.0355C7.07701 8.71302 8.23034 7.72469 9.39434 6.9799C9.78034 6.73502 9.99501 6.46172 9.99501 6.22766C9.99501 5.67431 9.22301 5.65604 8.90634 5.28534C8.53967 4.85375 8.76967 4.1536 9.08634 3.73216C9.08634 3.73216 8.98034 3.70984 8.81101 3.70984C8.47767 3.70984 7.89834 3.79507 7.42234 4.29702C6.78901 4.96131 7.05234 5.68513 7.05234 5.68513L6.88301 5.71896C6.78234 5.73993 6.68034 5.74399 6.57634 5.75007L6.50968 5.75075C5.58967 5.75075 5.18101 4.77596 5.18101 4.77596C5.18101 4.77596 4.20567 5.99563 5.64234 6.95216C5.88901 7.11519 5.99767 7.2674 5.96901 7.4284L5.94701 7.53393L5.84234 7.55287C4.80301 7.84037 4.27567 8.57028 3.63167 9.40031C2.65434 10.6633 1.27301 10.7039 1.10167 10.7039H1.08301C1.08301 10.7039 1.39834 11.7165 2.32901 11.7165C2.34367 11.7165 2.35701 11.7165 2.37301 11.7152C2.80034 11.6996 3.01967 11.5332 3.01967 11.5332C3.01967 11.5332 3.18501 13.8312 1.49834 14.5435C1.49834 14.5435 1.80567 15.0867 2.50967 15.0867H2.51767C3.36434 15.0813 3.70434 14.557 3.70434 14.557C3.70434 14.557 3.65501 15.2396 3.95834 16.1596C4.32501 17.269 3.95701 18.0605 3.95701 18.0605C3.95701 18.0605 4.15367 18.1146 4.38101 18.1146C4.46901 18.1146 4.55901 18.1065 4.64367 18.0835C5.34901 17.913 5.52567 17.2595 5.52567 17.2595C5.52567 17.2595 5.46101 19.4662 7.99234 19.4662H8.01101C8.01101 19.4662 7.78901 19.1584 7.72434 18.2709C7.60434 16.6338 6.51234 16.4085 6.51234 16.4085H6.51301ZM12.0977 8.27737H13.291V8.6934C13.151 8.51887 12.8777 8.55472 12.8777 8.55472V9.15475C12.8777 9.15475 12.887 9.44969 12.9897 9.57754H12.399C12.5023 9.44969 12.511 9.15475 12.511 9.15475V8.55472C12.511 8.55472 12.239 8.51887 12.0977 8.6934V8.27737ZM10.7977 8.3396C10.839 8.38493 10.8797 8.43431 10.919 8.48369C10.9283 8.49519 10.937 8.50534 10.9463 8.51887C10.983 8.56757 11.0197 8.62034 11.055 8.6731L11.079 8.70896C11.121 8.7739 11.161 8.84087 11.201 8.91054C11.5663 9.55116 12.1503 9.93404 12.6683 9.93472C13.1877 9.93404 13.771 9.55116 14.137 8.91054C14.1777 8.83952 14.2183 8.77051 14.261 8.70557C14.3097 8.62991 14.3617 8.55655 14.417 8.48572C14.4577 8.43431 14.4997 8.38425 14.5423 8.33825C14.5497 8.33149 14.5557 8.32404 14.563 8.31796C14.7497 8.12449 14.9703 7.97702 15.261 7.89516L15.1317 7.81872H15.125L14.6103 7.51566L14.083 7.20787L12.6723 7.98852L12.6683 7.98513L12.6663 7.98852L11.2557 7.20787L10.7277 7.51566L10.213 7.81872H10.207L10.077 7.89516C10.367 7.97634 10.5883 8.12246 10.775 8.3166C10.783 8.32337 10.7883 8.33284 10.7977 8.3396Z" fill="#FFFFFE"/>
<path fill-rule="evenodd" clip-rule="evenodd" d="M12.2201 5.6323V6.02465L12.1461 5.98947C12.1428 5.98677 12.0335 5.96241 11.8448 5.80953C11.5321 5.56329 11.5261 5.336 11.5261 5.336L12.2201 5.6323ZM12.5468 7.47027V5.03362L11.0215 4.50732L11.4241 6.86821L12.5468 7.47027ZM13.1201 5.6323L13.8135 5.336C13.8135 5.336 13.8081 5.56329 13.4941 5.80953C13.3055 5.96174 13.1968 5.98677 13.1935 5.98947L13.1201 6.02397V5.6323ZM13.9155 6.86888L14.3161 4.508L12.7915 5.03362V7.47027L13.9155 6.86888ZM10.3895 13.1188C10.5381 13.1729 10.7181 13.1844 10.8108 13.1844C10.8141 13.1729 10.8195 13.1587 10.8241 13.1411C10.8315 13.1141 10.8395 13.0856 10.8455 13.0559C10.8715 12.9206 10.8801 12.7684 10.8828 12.6696C10.7975 12.6182 10.7281 12.5437 10.6821 12.4545C10.6255 12.3334 10.5448 12.2766 10.4268 12.2766C10.2735 12.2766 10.1088 12.3713 10.0375 12.4146C9.98146 12.7515 10.2261 13.0572 10.3895 13.1181V13.1188ZM13.7641 11.8261C13.4815 12.1393 12.9261 12.6852 12.8995 12.7122L12.8661 12.7461L11.1128 12.7183C11.1113 12.8655 11.0925 13.012 11.0568 13.1546L11.0428 13.2108L13.1275 13.5923C13.3441 13.4381 13.9408 12.995 14.1728 12.8211C14.0041 12.5709 13.9881 12.2739 14.0261 12.0655C13.926 12.0014 13.8374 11.9204 13.7641 11.8261Z" fill="#FFFFFE"/>
<path fill-rule="evenodd" clip-rule="evenodd" d="M14.0016 9.68305C13.5976 10.0903 13.2103 10.2411 12.8643 10.2763C12.8009 10.2833 12.7373 10.2869 12.6736 10.2871H12.6649C12.5376 10.2871 12.4107 10.2735 12.2863 10.2465C12.2636 10.3379 12.2349 10.5293 12.3169 10.7106C12.3903 10.875 12.5389 10.9974 12.7563 11.0793L12.8296 11.1084L12.8303 11.1882C12.8303 11.2119 12.8476 11.7301 13.4036 11.8741C13.4943 11.7794 13.5769 11.6935 13.6369 11.6211C13.5236 11.3499 13.5836 11.0725 13.7483 10.9365C13.7416 10.9656 13.6683 11.6455 14.2049 11.8985L14.2936 11.9411L14.2669 12.0365C14.2583 12.0656 14.0796 12.7238 14.7296 12.9687L14.8443 13.0133L14.7929 13.1263C14.7816 13.1513 14.5269 13.7486 15.1269 14.0882H16.4276V13.0377C15.9649 12.9802 15.7696 12.602 15.7189 12.3341C15.5036 12.2969 15.3376 12.2029 15.2236 12.0493C14.9503 11.684 15.1849 11.3492 15.1883 11.3309C15.1876 11.3336 15.1883 11.6895 15.4043 11.91C15.5116 12.0155 15.6383 12.098 15.8309 12.1163L15.9249 12.1251L15.9329 12.2232C15.9349 12.2442 15.9863 12.7265 16.4276 12.8023L16.4269 10.6578C16.4269 10.325 16.5223 9.99084 16.6369 9.68237H14.0016V9.68305ZM10.4996 10.666L10.4649 12.0311L10.6183 12.0554L10.9916 10.7451L10.8016 10.3419L10.5003 10.666H10.4996ZM11.3089 15.7219C11.2987 15.7216 11.2886 15.7191 11.2793 15.7147C11.27 15.7103 11.2617 15.704 11.2549 15.6962C11.2481 15.6884 11.2429 15.6793 11.2397 15.6694C11.2365 15.6595 11.2353 15.6491 11.2363 15.6387C11.2368 15.6284 11.2394 15.6184 11.2439 15.6092C11.2484 15.6 11.2546 15.5917 11.2622 15.585C11.2699 15.5783 11.2788 15.5731 11.2884 15.5699C11.298 15.5667 11.3082 15.5655 11.3183 15.5663C11.3623 15.5683 11.3929 15.6069 11.3916 15.6488C11.3901 15.6696 11.3805 15.6889 11.365 15.7026C11.3496 15.7163 11.3294 15.7232 11.3089 15.7219ZM14.6169 16.9308C14.6283 16.9308 14.6416 16.9321 14.6536 16.9355C14.8869 17.0031 14.9449 17.8541 15.3523 17.9299C15.3923 17.9387 15.4296 17.9407 15.4616 17.9407C15.5796 17.9407 15.6496 17.89 15.7256 17.7987C15.7256 17.7987 15.5203 17.4719 15.3669 17.2507C15.1636 16.9612 15.0056 16.6115 14.6263 16.6115C14.6169 16.6115 14.6063 16.6115 14.5963 16.6128C14.524 16.6158 14.4541 16.6397 14.3949 16.6818C14.2683 16.5968 14.1201 16.551 13.9683 16.5499C13.7316 16.5499 13.5463 16.6608 13.4536 16.6608H13.4503L12.6036 16.5756C12.4709 16.5621 12.3663 16.4268 12.3283 16.374L12.3136 16.351C12.3136 16.3273 12.3136 16.3037 12.3123 16.2827C12.2836 15.5785 11.7476 15.2775 11.5563 15.272C11.5563 15.272 11.5789 15.1381 11.5276 15.0874L11.3409 15.3174L10.7276 15.0048L11.1649 15.5244L10.7949 15.9472C10.7483 15.9952 10.7543 16.0601 10.7736 16.0879L10.9336 16.2313L11.1363 16.1061C11.1463 16.0987 11.1649 16.096 11.1876 16.096C11.2436 16.096 11.3276 16.1109 11.4029 16.1109C11.4863 16.1109 11.5576 16.0933 11.5663 16.0141C11.5409 16.2753 11.3023 16.7292 11.4589 17.0857L11.5749 17.3549L10.8263 17.2453L10.4756 17.8467C10.3676 18.0469 10.3503 18.2634 10.4543 18.3811L10.5856 18.5482C10.5856 18.5482 10.7696 18.35 10.8103 18.2194L10.7509 18.1531C10.7009 18.097 10.7036 18.0469 10.7343 17.9867L10.9543 17.616L11.8376 17.8278L11.8843 17.7466C11.9443 17.6451 12.0309 17.6153 12.1256 17.6153C12.1649 17.6153 12.2049 17.6201 12.2463 17.6268C12.4103 17.66 12.6803 17.704 12.9503 17.704C13.2469 17.704 13.5409 17.6498 13.6976 17.4719C14.0176 17.9543 14.6669 18.0307 14.6156 18.2763L14.4449 19.1029C14.5583 19.0975 14.6669 19.09 14.7703 19.0758L14.9329 18.2161C14.9461 18.143 14.9577 18.0697 14.9676 17.9962C14.9049 17.9313 14.7536 17.7953 14.6676 17.6295C14.5536 17.4056 14.6156 17.2886 14.5089 16.9977C14.5089 16.9977 14.5423 16.9308 14.6169 16.9308Z" fill="#FFFFFE"/>
<path fill-rule="evenodd" clip-rule="evenodd" d="M10.102 17.7121C10.102 17.7121 10.3954 17.5903 10.422 17.5023L10.382 17.4036C10.3547 17.3386 10.358 17.2683 10.412 17.2304L10.728 17.0078L11.2567 17.1113C11.2567 17.1113 11.1607 16.9896 11.17 16.8272L10.666 16.719L10.19 17.0133C10.107 17.0757 10.0469 17.1647 10.0195 17.2658C9.99208 17.367 9.99883 17.4745 10.0387 17.5713L10.102 17.7121ZM13.84 19.1137C13.934 19.1096 14.0394 19.1083 14.1534 19.1083C14.1534 19.1083 14.4254 18.2999 14.4407 18.2742C14.2387 18.1786 14.0415 18.0727 13.85 17.9569C13.9307 18.0801 14.1267 18.2201 14.088 18.3283L13.84 19.1137Z" fill="#FFFFFE"/>
<path fill-rule="evenodd" clip-rule="evenodd" d="M16.4285 14.3195H8.91179V17.1938C8.91179 18.3695 9.74846 19.1049 10.9838 19.1049C12.0151 19.1049 12.2871 19.1455 12.6705 19.5331C12.9351 19.2645 13.1538 19.1651 13.6038 19.1272L13.6138 19.0832L13.8505 18.3384C13.8371 18.3215 13.4505 17.8744 13.4505 17.8744C13.2971 17.9265 13.1678 17.9352 12.9505 17.9352C12.7285 17.9352 12.4771 17.9082 12.2045 17.8568C12.1789 17.8506 12.1527 17.8474 12.1265 17.8473C12.0931 17.8473 12.0911 17.85 12.0818 17.8669L12.0351 17.9461L11.9485 18.0908L11.7865 18.0523L11.0651 17.8798L10.9658 18.0455L10.9811 18.0638L11.0685 18.1619L11.0298 18.2904C10.9765 18.4575 10.8045 18.653 10.7518 18.7071L10.5718 18.9033L10.4071 18.6929L10.2838 18.5353C10.1538 18.3878 10.1238 18.1619 10.1971 17.9251C10.195 17.9267 10.1924 17.9276 10.1898 17.9278L9.98646 18.0137L9.89513 17.8108L9.83046 17.668C9.76838 17.522 9.75721 17.3589 9.79877 17.2055C9.84034 17.0522 9.93218 16.9178 10.0591 16.8245L10.6391 16.491L11.1925 16.6012C11.2058 16.5471 11.2258 16.355 11.2411 16.3056C11.2305 16.3043 11.2205 16.3022 11.2098 16.3022L10.8911 16.4227L10.5845 16.2075C10.5845 16.2075 10.4645 16.0898 10.5731 15.9721L10.8698 15.5142L10.1165 14.5536L11.2745 15.0366L11.3518 14.9398L11.5078 14.7491L11.6851 14.9209C11.7318 14.9671 11.7642 15.0261 11.7785 15.0907C12.0971 15.2172 12.6691 15.5899 12.7198 16.196L12.5411 16.2684V16.2732C12.5818 16.3225 12.6158 16.3428 12.6265 16.3449L13.4531 16.4274C13.4745 16.4233 13.4998 16.4139 13.5291 16.4057C13.6325 16.3699 13.7865 16.3178 13.9691 16.3178C14.1185 16.3178 14.2625 16.353 14.4005 16.4193C14.4518 16.399 14.5138 16.3848 14.5871 16.38L14.6271 16.3787C15.0691 16.3787 15.2891 16.7149 15.4658 16.9835C15.4951 17.0301 15.5245 17.0734 15.5551 17.1167C15.7098 17.3386 15.9118 17.6626 15.9198 17.6768L16.0111 17.8209L15.8991 17.9535C15.8138 18.055 15.6838 18.1734 15.4625 18.1734C15.4123 18.1729 15.3623 18.1677 15.3131 18.1578C15.2678 18.149 15.2235 18.1351 15.1811 18.1165C15.1743 18.1643 15.1666 18.2119 15.1578 18.2593L15.0131 19.0284C15.8798 18.812 16.4305 18.1463 16.4305 17.1938L16.4285 14.3195ZM8.91179 14.0882H14.7585C14.4665 13.781 14.4711 13.3934 14.5451 13.1411C14.4663 13.1027 14.3929 13.0535 14.3271 12.995C14.0985 13.1661 13.4011 13.6823 13.2191 13.8122L13.1798 13.8392L10.8851 13.4171H10.8385C10.7838 13.4171 10.7031 13.4151 10.6151 13.4036C10.6057 13.4463 10.5843 13.4854 10.5534 13.5161C10.5226 13.5467 10.4836 13.5676 10.4413 13.5763C10.399 13.585 10.3551 13.581 10.315 13.5649C10.2748 13.5487 10.2401 13.5211 10.2151 13.4854C10.1976 13.461 10.185 13.4333 10.1781 13.4039C10.1712 13.3746 10.1702 13.3441 10.1751 13.3143L10.1838 13.2635C9.94779 13.0944 9.72846 12.7156 9.82579 12.3165L9.83512 12.2745L9.86846 12.2502C9.9021 12.2269 9.9368 12.2052 9.97246 12.1852L9.80579 12.1582C9.77619 12.153 9.74974 12.1364 9.73206 12.1117C9.71439 12.0871 9.70687 12.0564 9.71113 12.0263C9.72179 11.9627 9.77979 11.918 9.84179 11.9295L10.2385 11.9931L10.2751 10.5719L10.8658 9.93598L11.2351 10.7254L10.8458 12.0932L11.1965 12.1494C11.2264 12.1544 11.2532 12.1712 11.2709 12.1962C11.2887 12.2212 11.2959 12.2523 11.2911 12.2827C11.2868 12.3096 11.2732 12.3341 11.2526 12.3517C11.2321 12.3693 11.206 12.3789 11.1791 12.3787L11.1611 12.378L10.8751 12.3307C10.8791 12.3402 10.8845 12.3449 10.8885 12.3544C10.9203 12.4104 10.9682 12.4552 11.0258 12.4829L12.7745 12.512C12.8485 12.4382 13.0318 12.2556 13.2211 12.0621C13.0563 12.0008 12.9116 11.894 12.8033 11.7538C12.695 11.6137 12.6273 11.4457 12.6078 11.2686C12.3678 11.1645 12.2011 11.0089 12.1091 10.8059C11.9971 10.5543 12.0371 10.3026 12.0671 10.1802C11.8338 10.0943 11.5885 9.93598 11.3378 9.68298H8.70312C8.81646 9.99145 8.91179 10.3256 8.91179 10.6578V14.0882Z" fill="#FFE52B"/>
<path fill-rule="evenodd" clip-rule="evenodd" d="M11.3188 15.5663C11.3086 15.5654 11.2984 15.5667 11.2888 15.5699C11.2791 15.5732 11.2702 15.5784 11.2625 15.5852C11.2549 15.592 11.2487 15.6003 11.2443 15.6096C11.2398 15.6189 11.2373 15.629 11.2368 15.6393C11.236 15.6496 11.2372 15.66 11.2405 15.6698C11.2437 15.6796 11.2489 15.6887 11.2557 15.6964C11.2625 15.7041 11.2708 15.7103 11.28 15.7147C11.2892 15.7191 11.2993 15.7215 11.3095 15.7219C11.3298 15.7232 11.3499 15.7163 11.3653 15.7028C11.3808 15.6893 11.3904 15.6701 11.3921 15.6495C11.3932 15.6286 11.3861 15.6081 11.3724 15.5925C11.3586 15.5769 11.3394 15.5675 11.3188 15.5663ZM14.8028 21.5936L14.4595 20.633C14.8681 20.5065 15.5701 20.2346 15.8855 20.054L15.6755 20.7528L16.3868 20.9929C15.9561 21.2121 15.4348 21.4171 14.8028 21.5929V21.5936ZM12.6708 22.4561C11.8435 22.4561 10.8995 22.2626 10.6208 22.1618L11.0435 20.9997C11.3941 21.1039 12.1235 21.2141 12.6535 21.2107H12.6868C13.2161 21.2141 13.9448 21.1032 14.2975 20.9997L14.7195 22.1618C14.4408 22.2633 13.4968 22.4561 12.6708 22.4561ZM8.95345 20.9929L9.66545 20.7528L9.45479 20.054C9.76879 20.2346 10.4728 20.5072 10.8801 20.633L10.5368 21.5936C9.90679 21.4177 9.38345 21.2121 8.95345 20.9929ZM16.4188 20.7798L15.9855 20.6107L16.1055 20.1561L16.2368 19.6603C16.2368 19.6603 15.4701 20.0837 14.3881 20.401C14.0815 20.4903 13.8495 20.5316 13.8495 20.5316V20.8691C13.8495 20.8691 13.2708 20.9706 12.6868 20.9706H12.6535C12.0681 20.9706 11.4908 20.8691 11.4908 20.8691V20.5309C11.4908 20.5309 11.2581 20.4903 10.9515 20.401C9.87079 20.0831 9.10412 19.6603 9.10412 19.6603L9.23345 20.1561L9.35612 20.6107L8.92145 20.7798L8.43945 20.9625C8.99145 21.2337 9.75679 21.6281 10.4568 21.8229L10.2921 22.2816C10.2921 22.2816 11.1801 22.6929 12.6595 22.6969L12.6795 22.6976C14.1608 22.6936 15.0488 22.2816 15.0488 22.2816L14.8821 21.8229C15.5828 21.6281 16.3495 21.2344 16.8988 20.9625L16.4188 20.7798ZM10.8621 2.27362L11.0588 2.29526L11.1435 2.11262L11.3915 1.57347L11.8515 1.81565L12.0301 1.90832L12.6688 1.26432L13.1668 1.76491L13.3095 1.90832L13.4881 1.81565L13.9455 1.57347L14.1975 2.11262L14.2808 2.29526L14.4775 2.27362L14.6655 2.25129C14.5795 2.44815 14.5161 2.63553 14.4701 2.79112C13.9735 2.50903 13.3281 2.34938 12.6695 2.34938C12.0135 2.34938 11.3681 2.50903 10.8695 2.79112C10.8157 2.60725 10.7507 2.42696 10.6748 2.25129L10.8621 2.27362ZM12.6688 2.63012C13.5508 2.63012 14.2555 2.92776 14.6455 3.24367C14.6455 3.24367 14.7615 2.53541 15.1561 1.91103L14.4461 1.9922L14.0748 1.19059L13.3615 1.56467L12.6688 0.869263L11.9788 1.56467L11.2641 1.19059L10.8935 1.99288L10.1835 1.91035C10.5788 2.53541 10.6941 3.243 10.6941 3.243C11.0861 2.92709 11.7888 2.63012 12.6688 2.63012ZM23.8408 14.5434C23.8408 14.5434 23.5341 15.0866 22.8301 15.0866H22.8215C21.9761 15.0812 21.6348 14.557 21.6348 14.557C21.6348 14.557 21.6841 15.2389 21.3801 16.1595C21.0135 17.2689 21.3828 18.0604 21.3828 18.0604C21.3828 18.0604 21.1855 18.1152 20.9581 18.1152C20.8715 18.1152 20.7808 18.1064 20.6948 18.0834C19.9888 17.9136 19.8128 17.2601 19.8128 17.2601C19.8128 17.2601 19.8781 19.4661 17.3468 19.4661H17.3268C17.3268 19.4661 17.5501 19.1583 17.6161 18.2708C17.7361 16.6337 18.8268 16.4085 18.8268 16.4085C18.8268 16.4085 18.2448 16.3341 17.9921 16.1047C17.5981 15.7415 17.6255 15.3214 17.6255 15.3214C18.5161 15.3085 19.1001 15.0007 19.5448 14.4778C19.8313 14.1433 20.0247 13.7372 20.1048 13.3014C20.1048 13.3014 19.6261 13.7432 18.7001 13.7432C18.6188 13.7432 18.5321 13.7391 18.4428 13.7303C18.0041 13.6945 17.7015 13.411 17.7015 13.411C18.6655 12.7826 19.3415 11.686 18.7421 10.0354C18.2621 8.71294 17.1075 7.72462 15.9455 6.9805C15.5588 6.73494 15.3428 6.46165 15.3428 6.22691C15.3428 5.67423 16.1161 5.65664 16.4335 5.28526C16.8001 4.85367 16.5701 4.15353 16.2528 3.73209C16.2528 3.73209 16.3595 3.70976 16.5281 3.70976C16.8628 3.70976 17.4415 3.795 17.9175 4.29694C18.5488 4.96123 18.2868 5.68506 18.2868 5.68506L18.4561 5.71888C18.5575 5.73985 18.6581 5.74459 18.7628 5.75L18.8308 5.75067C19.7488 5.75067 20.1588 4.7752 20.1588 4.7752C20.1588 4.7752 21.1348 5.99556 19.6981 6.95209C19.4508 7.11512 19.3415 7.26732 19.3701 7.42832L19.3928 7.53453L19.4948 7.55279C20.5361 7.84029 21.0635 8.57088 21.7068 9.40023C22.6841 10.6632 24.0668 10.7038 24.2368 10.7038H24.2555C24.2555 10.7038 23.9401 11.7165 23.0101 11.7165C22.9948 11.7165 22.9815 11.7165 22.9661 11.7151C22.5395 11.6996 22.3195 11.5331 22.3195 11.5331C22.3195 11.5331 22.1535 13.8311 23.8408 14.5434ZM23.0101 12.0263C24.1501 12.0263 24.5315 10.8472 24.5475 10.7971L24.6741 10.3811L24.2475 10.3946H24.2461C24.0948 10.3946 22.8375 10.3608 21.9461 9.20879L21.8615 9.10191C21.2788 8.349 20.7261 7.63262 19.7381 7.30588C19.7776 7.2708 19.8197 7.23891 19.8641 7.2105C20.3881 6.86009 20.6935 6.43459 20.7695 5.94009C20.8821 5.19665 20.4148 4.60406 20.3948 4.5797L20.0775 4.18059L19.8788 4.65412C19.8655 4.6832 19.5321 5.44085 18.8308 5.44085H18.7788C18.7308 5.43882 18.6848 5.43679 18.6395 5.43273C18.6641 5.0945 18.6035 4.57226 18.1368 4.08115C17.5761 3.49059 16.8881 3.40197 16.5281 3.40197C16.3361 3.40197 16.2081 3.42632 16.1941 3.42767L15.7148 3.52441L16.0101 3.92014C16.2421 4.22591 16.4528 4.78941 16.2035 5.08367C16.1235 5.17838 15.9595 5.25347 15.8028 5.32991C15.4801 5.48076 15.0388 5.69182 15.0388 6.22691C15.0388 6.57326 15.3035 6.93653 15.7835 7.24432C17.2021 8.15147 18.0781 9.09853 18.4561 10.1437C19.0415 11.751 18.2781 12.6683 17.5361 13.1513L17.2041 13.3684L17.4955 13.6404C17.5348 13.6755 17.8901 13.9941 18.4161 14.0401C18.5161 14.0469 18.6115 14.0523 18.7008 14.0523C19.0375 14.0523 19.3248 13.9982 19.5581 13.9265C19.4884 14.05 19.4071 14.1664 19.3155 14.2742C18.8921 14.7734 18.3708 15.0007 17.6208 15.0129L17.3421 15.017L17.3208 15.3011C17.3181 15.3586 17.2975 15.8856 17.7875 16.3334C17.8628 16.4024 17.9535 16.4599 18.0488 16.5059C17.7155 16.8103 17.3781 17.3406 17.3128 18.2485C17.2575 19.0061 17.0795 19.2869 17.0775 19.2902L16.7695 19.7678L17.3261 19.7753C18.2455 19.7753 18.9495 19.5182 19.4368 19.0068C19.6892 18.7382 19.8776 18.4144 19.9875 18.0604C20.2582 18.2946 20.6023 18.4232 20.9581 18.423C21.2181 18.423 21.4355 18.3669 21.4595 18.3614L21.8148 18.2654L21.6581 17.9285C21.6461 17.9014 21.3501 17.225 21.6688 16.2596C21.8061 15.8423 21.8761 15.4689 21.9101 15.1773C22.1341 15.2964 22.4335 15.3938 22.8208 15.3951C23.7008 15.3951 24.0881 14.7274 24.1055 14.6997L24.2788 14.3926L23.9575 14.2586C22.9095 13.8162 22.6775 12.6284 22.6308 11.9857C22.7261 12.004 22.8341 12.0209 22.9561 12.0243L23.0101 12.0263Z" fill="#1A1919"/>
<path fill-rule="evenodd" clip-rule="evenodd" d="M21.7298 6.98321C21.9418 6.98321 22.1898 7.05695 22.4231 7.30251C23.1578 8.06015 23.8411 8.10277 23.8411 8.10277C23.7171 8.38215 23.3571 8.62771 22.9844 8.62771C22.8984 8.62771 22.8111 8.61418 22.7264 8.58374C22.2204 8.41057 22.0398 7.64007 21.1524 7.16045C21.1524 7.16045 21.3991 6.98321 21.7298 6.98321ZM21.0078 7.43374C21.4324 7.66374 21.6804 7.97289 21.8978 8.24618C22.1111 8.51339 22.3131 8.77045 22.6311 8.87733C22.7431 8.91657 22.8624 8.93551 22.9844 8.93551C23.4598 8.93551 23.9378 8.63921 24.1191 8.22927L24.3011 7.81933L23.8604 7.79227C23.8398 7.79227 23.2724 7.73883 22.6418 7.08401C22.3818 6.81477 22.0678 6.67407 21.7298 6.67407C21.3164 6.67407 21.0098 6.88377 20.9764 6.90542L20.5711 7.19562L21.0078 7.43374ZM21.2071 11.5271V11.5426C20.9511 9.44421 19.4524 7.92892 17.7838 7.00757C17.6304 6.92368 17.4871 6.85198 17.3491 6.78433C17.8564 6.86415 18.6744 6.87362 19.3064 6.31757C19.3064 6.31757 18.3398 7.03936 16.3618 6.38318C16.9084 6.74442 17.9731 7.25448 18.9451 8.07977C21.3738 10.2499 19.6364 12.3659 19.6364 12.3659C20.5098 11.4398 20.5458 10.4481 20.2884 9.63768C20.7484 10.4156 21.0418 11.3593 20.9964 12.5235C20.9298 14.191 20.0278 15.6332 19.0791 16.792C18.6231 17.3535 18.5218 18.0449 18.5218 18.0449C18.5218 18.0449 18.7058 17.4354 19.2331 16.8083C20.2498 15.5974 21.1198 14.3412 21.2331 12.5296C21.3384 12.859 21.7718 13.7723 22.4584 14.1166C22.4584 14.1166 21.5951 13.5876 21.2071 11.5271ZM7.99375 19.4661C5.46242 19.4661 5.52709 17.2602 5.52709 17.2602C5.52709 17.2602 5.34975 17.9136 4.64509 18.0834C4.55901 18.1054 4.47051 18.1161 4.38175 18.1152C4.15509 18.1152 3.95775 18.0611 3.95775 18.0611C3.95775 18.0611 4.32642 17.2683 3.95909 16.1595C3.65642 15.2395 3.70575 14.557 3.70575 14.557C3.70575 14.557 3.36509 15.0812 2.51909 15.0867H2.51042C1.80709 15.0867 1.49975 14.5434 1.49975 14.5434C3.18642 13.8311 3.02109 11.5332 3.02109 11.5332C3.02109 11.5332 2.80109 11.6996 2.37442 11.7158H2.32975C1.39909 11.7158 1.08375 10.7038 1.08375 10.7038H1.10309C1.27509 10.7038 2.65575 10.6632 3.63242 9.40024C4.27575 8.57021 4.80375 7.8403 5.84309 7.55348L5.94775 7.53454L5.96975 7.42833C5.99909 7.26733 5.88975 7.11512 5.64309 6.95209C4.20642 5.99557 5.18175 4.77589 5.18175 4.77589C5.18175 4.77589 5.58975 5.75068 6.51042 5.75068L6.57709 5.75001C6.68109 5.7446 6.78309 5.73986 6.88375 5.71821L7.05309 5.68507C7.05309 5.68507 6.79042 4.96124 7.42375 4.29695C7.89975 3.79501 8.47775 3.70977 8.81175 3.70977C8.98175 3.70977 9.08642 3.7321 9.08642 3.7321C8.77042 4.15354 8.54109 4.85368 8.90642 5.28527C9.22375 5.65665 9.99642 5.67424 9.99642 6.22692C9.99642 6.46165 9.78109 6.73495 9.39509 6.98051C8.23175 7.72462 7.07775 8.71227 6.59775 10.0361C5.99909 11.6867 6.67509 12.7826 7.63975 13.4117C7.63975 13.4117 7.33642 13.6945 6.89775 13.7303C6.81178 13.7387 6.72546 13.743 6.63909 13.7432C5.71375 13.7432 5.23509 13.3021 5.23509 13.3021C5.23509 13.3021 5.31509 13.9116 5.79375 14.4785C6.24042 15.0007 6.82375 15.3085 7.71375 15.3214C7.71375 15.3214 7.74242 15.7408 7.34842 16.1047C7.09575 16.3347 6.51375 16.4092 6.51375 16.4092C6.51375 16.4092 7.60509 16.6337 7.72509 18.2708C7.79042 19.1583 8.01175 19.4661 8.01175 19.4661H7.99375ZM8.26242 19.2902C8.26175 19.2869 8.08509 19.0061 8.02842 18.2485C7.96175 17.3407 7.62442 16.8103 7.29042 16.5059C7.38709 16.4599 7.47709 16.4024 7.55175 16.3334C8.04175 15.8856 8.02109 15.3593 8.01775 15.3011L7.99909 15.017L7.71842 15.0129C6.97042 15.0007 6.44842 14.7734 6.02509 14.2742C5.93383 14.1661 5.8526 14.0497 5.78242 13.9265C6.01575 13.9989 6.30109 14.0523 6.63909 14.0523C6.72909 14.0523 6.82375 14.0469 6.92309 14.0402C7.26335 14.0057 7.58508 13.8664 7.84509 13.641L8.13642 13.3684L7.80442 13.1519C7.06042 12.6683 6.29975 11.7517 6.88442 10.1437C7.26242 9.09854 8.13642 8.15215 9.55775 7.24433C10.0378 6.93654 10.3004 6.57327 10.3004 6.22692C10.3004 5.69183 9.86042 5.48077 9.53775 5.32992C9.38042 5.25348 9.21642 5.17771 9.13709 5.08368C8.88709 4.78942 9.09709 4.22592 9.32975 3.92015L9.62709 3.52442L9.14509 3.42768C9.13175 3.42565 9.00509 3.40198 8.81175 3.40198C8.45242 3.40198 7.76509 3.4906 7.20509 4.08115C6.73775 4.57227 6.67642 5.09518 6.70042 5.43274C6.65509 5.4368 6.60975 5.43883 6.56175 5.44086H6.51042C5.80642 5.44086 5.47442 4.68321 5.46175 4.65412L5.26375 4.1806L4.94375 4.57971C4.92575 4.60407 4.45709 5.19665 4.57175 5.9401C4.64709 6.43392 4.95242 6.86009 5.47642 7.21051C5.53375 7.24771 5.57309 7.27951 5.60175 7.30589C4.61242 7.63262 4.06109 8.34901 3.47842 9.10192L3.39442 9.2088C2.50375 10.3608 1.24309 10.3953 1.09242 10.3953L0.663086 10.3818L0.793753 10.7972C0.809086 10.8472 1.18909 12.0263 2.32975 12.0263L2.38442 12.0243C2.50509 12.0209 2.61375 12.004 2.70975 11.985C2.66309 12.6277 2.42975 13.8162 1.38175 14.258L1.06175 14.3933L1.23509 14.6997C1.25109 14.7274 1.64042 15.3951 2.52175 15.3951C2.83719 15.3983 3.14872 15.3241 3.42975 15.1787C3.46375 15.4695 3.53442 15.8423 3.67175 16.2597C3.99042 17.2243 3.69375 17.9014 3.68242 17.9285L3.52509 18.2654L3.88042 18.3608C3.90442 18.3675 4.12309 18.423 4.38175 18.423C4.73765 18.4239 5.08207 18.2953 5.35242 18.0604C5.44909 18.3628 5.61509 18.7044 5.90242 19.0068C6.39175 19.5175 7.09509 19.7753 8.01375 19.7753L8.57042 19.7678L8.26242 19.2902Z" fill="#1A1919"/>
<path fill-rule="evenodd" clip-rule="evenodd" d="M2.91635 7.30256C3.15102 7.057 3.39835 6.98259 3.61168 6.98259C3.93968 6.98259 4.18835 7.1605 4.18835 7.1605C3.30168 7.6408 3.11902 8.41062 2.61235 8.58447C2.52983 8.6135 2.44301 8.62791 2.35568 8.62709C1.98302 8.62709 1.62235 8.38221 1.49968 8.10282C1.49968 8.10282 2.18235 8.06021 2.91635 7.30256ZM2.35568 8.93556C2.47768 8.93556 2.59702 8.91662 2.71035 8.87738C3.02768 8.7705 3.23035 8.51412 3.44368 8.24624C3.66168 7.97362 3.90702 7.66447 4.33235 7.43447L4.76968 7.19568L4.36302 6.9048C4.32968 6.88382 4.02502 6.67479 3.61168 6.67479C3.27302 6.67479 2.95835 6.81482 2.69902 7.08406C2.06768 7.73956 1.50168 7.79232 1.48102 7.793L1.04102 7.81938L1.22102 8.23C1.40368 8.63927 1.88102 8.93556 2.35568 8.93556ZM4.34435 12.5236C4.29768 11.3594 4.59102 10.4157 5.05102 9.63774C4.79502 10.4481 4.82968 11.4399 5.70435 12.3666C5.70435 12.3666 3.96568 10.2493 6.39568 8.0805C7.36768 7.25453 8.43102 6.74447 8.97768 6.38324C7.00035 7.03941 6.03435 6.31694 6.03435 6.31694C6.66568 6.87368 7.48368 6.86488 7.99102 6.78371C7.85368 6.85203 7.70968 6.92306 7.55635 7.00762C5.88768 7.9283 4.38968 9.44427 4.13235 11.5427V11.5271C3.74502 13.5876 2.88235 14.1166 2.88235 14.1166C3.56902 13.7716 4.00102 12.8584 4.10635 12.5296C4.22102 14.3412 5.09035 15.5981 6.10635 16.8083C6.63435 17.4354 6.81968 18.0449 6.81968 18.0449C6.81968 18.0449 6.71702 17.3542 6.25902 16.7921C5.31235 15.6333 4.41102 14.1911 4.34435 12.5236ZM12.0983 8.27735V8.69406C12.2397 8.51885 12.5117 8.55471 12.5117 8.55471V9.15474C12.5117 9.15474 12.503 9.44968 12.3997 9.57753H12.9903C12.8877 9.44968 12.8777 9.15474 12.8777 9.15474V8.55471C12.8777 8.55471 13.151 8.51885 13.291 8.69406V8.27735H12.0983ZM11.845 5.80959C12.0337 5.96179 12.143 5.9875 12.1463 5.98953L12.2197 6.02403V5.63235L11.5263 5.33606C11.5263 5.33606 11.5323 5.56335 11.845 5.80959ZM13.4943 5.80959C13.8077 5.56335 13.8143 5.33606 13.8143 5.33606L13.1203 5.63235V6.02471L13.1937 5.98953C13.197 5.9875 13.3057 5.96179 13.4943 5.80959Z" fill="#1A1919"/>
<path fill-rule="evenodd" clip-rule="evenodd" d="M12.6692 4.76569L10.9979 4.09463C11.1399 3.75234 11.7952 3.46146 12.6692 3.46078C13.5439 3.46146 14.1992 3.75234 14.3412 4.09463L12.6692 4.76569ZM13.9152 6.86884L12.7919 7.4709V5.0329L14.3165 4.5066L13.9152 6.86748V6.86884ZM14.6112 7.51554L15.1245 7.8186H15.1319L15.2612 7.89504C14.9712 7.97622 14.7492 8.12437 14.5632 8.31784L14.5432 8.33813C14.4993 8.38562 14.4573 8.43481 14.4172 8.4856L14.3939 8.51672C14.3539 8.56881 14.3159 8.62225 14.2805 8.67772L14.2612 8.70545C14.218 8.77244 14.1768 8.8408 14.1379 8.91043C13.7712 9.55104 13.1879 9.93393 12.6692 9.93528C12.1505 9.93393 11.5665 9.55104 11.2012 8.91043C11.1624 8.84211 11.1217 8.77489 11.0792 8.70884L11.0552 8.67299C11.0204 8.62075 10.9843 8.56932 10.9472 8.51875C10.9379 8.50522 10.9292 8.49507 10.9199 8.48357C10.8807 8.43423 10.84 8.38618 10.7979 8.33948C10.7892 8.33272 10.7832 8.32393 10.7752 8.31648C10.5847 8.11409 10.3434 7.96836 10.0772 7.89504L10.2079 7.8186H10.2132L10.7285 7.51554L11.2559 7.20775L12.6665 7.9884L12.6692 7.98569L12.6732 7.9884L14.0832 7.20775L14.6112 7.51554ZM16.6379 9.68296C16.5225 9.99143 16.4272 10.3256 16.4272 10.6577L16.4285 12.8022C15.9879 12.7277 15.9352 12.2448 15.9339 12.2238L15.9259 12.1257L15.8305 12.1169C15.6689 12.1024 15.5178 12.0292 15.4052 11.9106C15.1885 11.6907 15.1885 11.3349 15.1885 11.3315C15.1859 11.3498 14.9512 11.6833 15.2232 12.0486C15.3379 12.2028 15.5045 12.2982 15.7192 12.3354C15.7699 12.6026 15.9659 12.9808 16.4285 13.0389V14.0875H15.1279C14.5279 13.7485 14.7819 13.1519 14.7939 13.1262L14.8445 13.0125L14.7299 12.9686C14.0799 12.7237 14.2592 12.0648 14.2679 12.0364L14.2945 11.9403L14.2052 11.8984C13.6692 11.6454 13.7419 10.9649 13.7492 10.9365C13.5839 11.0724 13.5245 11.3491 13.6379 11.6217C13.5765 11.6934 13.4939 11.7793 13.4039 11.874C13.2473 11.8393 13.1063 11.7533 13.0027 11.6292C12.899 11.5051 12.8385 11.3499 12.8305 11.1874L12.8299 11.1076L12.7565 11.0792C12.5399 10.998 12.3912 10.8749 12.3172 10.7105C12.2352 10.5285 12.2639 10.3385 12.2865 10.2458C12.4111 10.272 12.538 10.2856 12.6652 10.2864H12.6739C12.7385 10.2864 12.8019 10.2823 12.8645 10.2762C13.2112 10.241 13.5979 10.0902 14.0019 9.68296H16.6379ZM15.0125 19.0284L15.1579 18.2592L15.1812 18.1172C15.2709 18.1528 15.3662 18.1719 15.4625 18.1733C15.6839 18.1733 15.8132 18.0543 15.8992 17.9535L16.0099 17.8216L15.9192 17.6768C15.9112 17.6626 15.7092 17.3386 15.5545 17.1167C15.5238 17.0729 15.4942 17.0282 15.4659 16.9827C15.2892 16.7149 15.0685 16.3787 14.6259 16.3787L14.5865 16.38C14.5228 16.3835 14.4599 16.3965 14.3999 16.4186C14.2652 16.3532 14.1178 16.319 13.9685 16.3185C13.8183 16.3221 13.6698 16.3514 13.5292 16.405C13.4999 16.4138 13.4732 16.4233 13.4525 16.4274L12.6259 16.3448C12.6152 16.3421 12.5819 16.3218 12.5405 16.2731V16.2684L12.7192 16.196C12.6692 15.5899 12.0965 15.2172 11.7779 15.0907C11.7637 15.0258 11.7313 14.9666 11.6845 14.9202L11.5072 14.749L11.3512 14.9391L11.2745 15.0365L10.1159 14.5529L10.8692 15.5141L10.5725 15.9721C10.4632 16.0891 10.5839 16.2075 10.5839 16.2075L10.8905 16.4226L11.2092 16.3015C11.2199 16.3015 11.2292 16.3042 11.2405 16.3056C11.2252 16.355 11.2052 16.5478 11.1919 16.6012L10.6392 16.491L10.0592 16.8245C9.75986 17.0477 9.7192 17.4157 9.83053 17.668L9.89453 17.8114L9.98586 18.0137L10.1892 17.9285C10.1925 17.9271 10.1952 17.9264 10.1972 17.9244C10.1239 18.1618 10.1539 18.3871 10.2839 18.5352L10.4072 18.6929L10.5712 18.9039L10.7512 18.7071C10.8045 18.653 10.9765 18.4575 11.0292 18.2897L11.0679 18.1618L10.9805 18.0637L10.9659 18.0455L11.0645 17.8798L11.7859 18.0529L11.9485 18.0908L12.0352 17.9454L12.0819 17.8669C12.0905 17.85 12.0925 17.8473 12.1259 17.8473C12.1519 17.8473 12.1772 17.85 12.2045 17.8567C12.4505 17.906 12.7005 17.9321 12.9512 17.9345C13.1665 17.9345 13.2965 17.9264 13.4499 17.8743C13.4499 17.8743 13.8372 18.3208 13.8505 18.3384L13.6132 19.0825L13.6025 19.1272C13.1539 19.1644 12.9352 19.2645 12.6705 19.533C12.2865 19.1461 12.0152 19.1048 10.9839 19.1048C9.74853 19.1048 8.9112 18.3695 8.9112 17.1931V14.3195H16.4285L16.4299 17.1931C16.4299 18.1463 15.8792 18.8112 15.0125 19.0284ZM10.3825 17.4035L10.4219 17.503C10.3952 17.5895 10.1019 17.7127 10.1019 17.7127L10.0392 17.5713C9.99917 17.4744 9.99233 17.3667 10.0198 17.2654C10.0472 17.1641 10.1073 17.075 10.1905 17.0125L10.6659 16.7182L11.1705 16.8265C11.1605 16.9895 11.2565 17.1113 11.2565 17.1113L10.7285 17.0085L10.4119 17.2303C10.3585 17.2682 10.3545 17.3386 10.3825 17.4035ZM14.9325 18.2153L14.7705 19.0751C14.6665 19.09 14.5572 19.0981 14.4452 19.1021L14.6159 18.2768C14.6665 18.0306 14.0185 17.9542 13.6979 17.4718C13.5412 17.6504 13.2472 17.7039 12.9512 17.7039C12.6805 17.7039 12.4112 17.6599 12.2465 17.6267C12.2069 17.6198 12.1668 17.6159 12.1265 17.6152C12.0312 17.6152 11.9452 17.645 11.8852 17.7472L11.8385 17.8283L10.9545 17.6166L10.7345 17.9866C10.7039 18.0468 10.7012 18.0969 10.7512 18.153L10.8112 18.2193C10.7699 18.3499 10.5859 18.5481 10.5859 18.5481L10.4545 18.381C10.3505 18.2633 10.3679 18.0468 10.4759 17.8466L10.8265 17.2445L11.5752 17.3548L11.4592 17.0849C11.3025 16.7284 11.5412 16.2752 11.5665 16.014C11.5579 16.0932 11.4865 16.1108 11.4039 16.1108C11.3279 16.1108 11.2439 16.0966 11.1879 16.0966C11.1659 16.0966 11.1465 16.0986 11.1365 16.106L10.9339 16.2312L10.7739 16.0878C10.7545 16.0607 10.7485 15.9951 10.7952 15.9464L11.1659 15.5243L10.7285 15.0048L11.3405 15.318L11.5279 15.0873C11.5792 15.1387 11.5565 15.272 11.5565 15.272C11.7479 15.2774 12.2845 15.5784 12.3125 16.2819C12.3145 16.3036 12.3145 16.3272 12.3145 16.3509L12.3285 16.3739C12.3665 16.4274 12.4712 16.5633 12.6039 16.5755L13.4505 16.6608H13.4539C13.5472 16.6608 13.7319 16.5498 13.9685 16.5498C14.0985 16.5498 14.2419 16.5836 14.3952 16.6817C14.3952 16.6817 14.4725 16.6195 14.5972 16.6127C14.6065 16.6114 14.6172 16.6114 14.6259 16.6114C15.0059 16.6114 15.1639 16.9604 15.3679 17.2506C15.5212 17.4712 15.7259 17.7986 15.7259 17.7986C15.6505 17.8899 15.5799 17.9406 15.4619 17.9406C15.4252 17.9408 15.3885 17.9371 15.3525 17.9298C14.9459 17.8534 14.8865 17.003 14.6545 16.9354C14.6423 16.9321 14.6298 16.9305 14.6172 16.9307C14.5425 16.9307 14.5099 16.9983 14.5099 16.9983C14.6165 17.2885 14.5539 17.4055 14.6685 17.6295C14.7539 17.7952 14.9052 17.9312 14.9679 17.9961C14.9679 17.9961 14.9512 18.1219 14.9325 18.216V18.2153ZM14.1532 19.1082C14.0399 19.1082 13.9345 19.1096 13.8399 19.1136L14.0879 18.3282C14.1265 18.2193 13.9305 18.0793 13.8499 17.9562C13.9719 18.0347 14.2885 18.2065 14.4412 18.2741C14.3423 18.5511 14.2462 18.8292 14.1532 19.1082ZM10.4652 12.031L10.5005 10.6659L10.8019 10.3418L10.9912 10.745L10.6179 12.0553L10.4645 12.0317L10.4652 12.031ZM10.6819 12.4545C10.7276 12.5434 10.7969 12.6176 10.8819 12.6689C10.8795 12.7986 10.8673 12.928 10.8452 13.0558C10.8385 13.0856 10.8319 13.1133 10.8232 13.1411C10.8192 13.1587 10.8139 13.1729 10.8105 13.1844C10.7179 13.1844 10.5372 13.1729 10.3899 13.1181C10.2259 13.0572 9.9812 12.7514 10.0379 12.4145C10.1085 12.3706 10.2725 12.2765 10.4265 12.2765C10.5445 12.2765 10.6252 12.3334 10.6819 12.4545ZM14.1725 12.8211C13.9412 12.995 13.3439 13.438 13.1272 13.5923L11.0419 13.2107L11.0565 13.1546C11.0832 13.0443 11.1119 12.8942 11.1132 12.7176L12.8659 12.746L12.8992 12.7122C12.9259 12.6851 13.4812 12.1392 13.7639 11.826C13.8312 11.9119 13.9152 11.9931 14.0259 12.0648C13.9885 12.2745 14.0039 12.5708 14.1725 12.8211ZM11.3372 9.68296C11.5885 9.93596 11.8332 10.0936 12.0665 10.1802C12.0365 10.3019 11.9965 10.5549 12.1085 10.8059C12.2005 11.0088 12.3672 11.1644 12.6079 11.2686C12.6345 11.5189 12.7899 11.8957 13.2212 12.0621C13.0319 12.2556 12.8479 12.4382 12.7745 12.5113L11.0252 12.4835C10.9674 12.4555 10.9195 12.4102 10.8879 12.3537C10.8845 12.3449 10.8785 12.3401 10.8745 12.3307L11.1605 12.378L11.1785 12.3787C11.2054 12.3789 11.2315 12.3693 11.252 12.3517C11.2726 12.3341 11.2862 12.3096 11.2905 12.2826C11.2954 12.2523 11.2882 12.2213 11.2706 12.1964C11.253 12.1714 11.2264 12.1545 11.1965 12.1494L10.8452 12.0925L11.2345 10.7254L10.8659 9.93595L10.2745 10.5718L10.2385 11.9931L9.8412 11.9288C9.77986 11.9167 9.7212 11.9627 9.70986 12.0256C9.70542 12.056 9.71292 12.087 9.73074 12.1119C9.74856 12.1368 9.77529 12.1537 9.8052 12.1588L9.97186 12.1845C9.91186 12.219 9.87253 12.2468 9.86786 12.2502L9.83453 12.2745L9.8252 12.3165C9.72853 12.7156 9.9472 13.0944 10.1832 13.2635L10.1745 13.3142C10.1652 13.3751 10.1785 13.436 10.2145 13.4854C10.235 13.5154 10.2624 13.5398 10.2944 13.5566C10.3264 13.5733 10.3619 13.5819 10.3979 13.5815C10.4484 13.581 10.4973 13.5633 10.5366 13.5311C10.5759 13.4989 10.6034 13.4542 10.6145 13.4042C10.7025 13.4144 10.7832 13.4171 10.8379 13.4171H10.8852L13.1792 13.8385L13.2185 13.8121C13.4012 13.6823 14.0985 13.1661 14.3265 12.995C14.3899 13.0497 14.4599 13.0998 14.5445 13.1411C14.4705 13.3934 14.4659 13.781 14.7579 14.0881H8.9112V10.6584C8.9112 10.3256 8.81586 9.99143 8.70253 9.68296H11.3372ZM11.0212 4.50795L12.5472 5.03357V7.47022L11.4239 6.86816L11.0212 4.50795ZM14.7439 4.21369C14.7439 3.61907 13.7592 3.08398 12.6725 3.08398H12.6659C11.5792 3.08398 10.5952 3.61907 10.5952 4.21369L10.6165 4.35981L11.0505 6.89184L10.6145 7.1489L9.4872 7.8186H9.4912C9.4912 7.8186 9.23786 7.95119 9.11986 8.03237C8.69053 8.33543 8.5992 8.77784 8.84853 8.96048C8.90986 8.59993 9.19053 8.22313 9.7152 8.22313C10.0939 8.22313 10.3819 8.42201 10.6152 8.71898C10.6752 8.79407 10.7319 8.87457 10.7845 8.96048C10.8499 9.0694 10.9159 9.16545 10.9805 9.25745H8.0752C8.28853 9.69378 8.49186 10.1558 8.49186 10.6577V17.1938C8.49186 18.7754 9.68853 19.5303 10.9832 19.5303C11.9839 19.5303 12.1185 19.4843 12.6705 20.0431C13.2199 19.4843 13.3552 19.5303 14.3565 19.5303C15.6519 19.5303 16.8465 18.7754 16.8465 17.1938V10.6577C16.8465 10.1558 17.0499 9.69378 17.2645 9.25745H14.3579C14.4232 9.16545 14.4885 9.0694 14.5539 8.96048C14.6072 8.87457 14.6639 8.79407 14.7225 8.71898C14.9572 8.42066 15.2452 8.22313 15.6239 8.22313C16.1485 8.22313 16.4285 8.59993 16.4905 8.96048C16.7399 8.77784 16.6499 8.33543 16.2172 8.03237C16.1025 7.95119 15.8479 7.8186 15.8479 7.8186H15.8525L14.7225 7.1489L14.2892 6.89184L14.7225 4.35981L14.7439 4.21369Z" fill="#1A1919"/>
<path d="M30.4752 15.1076H32.4752V10.3858H35.2218V8.6676H27.7285V10.3858H30.4752V15.1076ZM41.2885 8.6676L37.9552 12.4152V8.6676H36.0218V15.1076H37.7285L41.0618 11.36V15.1076H42.9952V8.6676H41.2885ZM46.3932 12.7129H49.4998V15.1076H51.4332V8.6676H49.4998V11.0217H46.3932V8.6676H44.4598V15.1076H46.3932V12.7129ZM56.8172 15.1076C57.2572 15.1076 57.6572 15.067 58.0305 14.9588C59.0305 14.6747 59.6838 13.8494 59.6838 12.7264C59.6838 11.6576 59.1238 10.9135 58.2305 10.5752C57.8038 10.4129 57.2972 10.3994 56.8172 10.3994H54.8305V8.6676H52.8972V15.1076H56.8172ZM54.8305 11.9147H56.4838C56.7505 11.9147 57.0038 11.9147 57.2305 11.9958C57.5505 12.1041 57.7372 12.3747 57.7372 12.6994C57.7372 13.0376 57.5505 13.3217 57.2438 13.457C57.0305 13.5517 56.8172 13.5517 56.4838 13.5517H54.8305V11.9147ZM62.6172 12.6723H63.1505L65.4572 15.1076H68.0305L64.8172 11.7523L67.9105 8.6676H65.4838L63.1505 11.0894H62.6172V8.6676H60.6838V15.1076H62.6172V12.6723Z" fill="white"/>
<path d="M72.0086 8.49178C69.4086 8.49178 67.8486 9.98002 67.8486 11.9012C67.8486 13.8224 69.4086 15.3106 72.0086 15.3106C74.5953 15.3106 76.1553 13.8224 76.1553 11.9012C76.1553 9.98002 74.5953 8.49178 72.0086 8.49178ZM72.0086 13.7412C70.7153 13.7412 69.8886 12.9565 69.8886 11.9012C69.8886 10.8459 70.7153 10.0747 72.0086 10.0747C73.2886 10.0747 74.1286 10.8459 74.1286 11.9012C74.1286 12.9565 73.2886 13.7412 72.0086 13.7412ZM82.594 8.95178V8.30237H80.6606V8.95178C78.234 9.0059 76.7806 10.0477 76.7806 11.8877C76.7806 13.7277 78.234 14.6883 80.6606 14.7424V15.3918H82.594V14.7424C85.034 14.6883 86.4873 13.7277 86.4873 11.8877C86.4873 10.0477 85.034 9.0059 82.594 8.95178ZM80.6606 13.3624C79.3273 13.3082 78.7406 12.7535 78.7406 11.8877C78.7406 11.0218 79.3273 10.3994 80.6606 10.3453V13.3624ZM82.594 13.3624V10.3453C83.9406 10.3994 84.514 11.0218 84.514 11.8877C84.514 12.7535 83.9406 13.3082 82.594 13.3624ZM92.9193 8.95178V8.30237H90.986V8.95178C88.5593 9.0059 87.106 10.0477 87.106 11.8877C87.106 13.7277 88.5593 14.6883 90.986 14.7424V15.3918H92.9193V14.7424C95.3593 14.6883 96.8126 13.7277 96.8126 11.8877C96.8126 10.0477 95.3593 9.0059 92.9193 8.95178ZM90.986 13.3624C89.6526 13.3082 89.066 12.7535 89.066 11.8877C89.066 11.0218 89.6526 10.3994 90.986 10.3453V13.3624ZM92.9193 13.3624V10.3453C94.266 10.3994 94.8393 11.0218 94.8393 11.8877C94.8393 12.7535 94.266 13.3082 92.9193 13.3624Z" fill="white"/>
</g>
<defs>
<clipPath id="clip0_66_1894">
<rect width="97" height="23" fill="white"/>
</clipPath>
</defs>
</svg>
