<svg width="25" height="18" viewBox="0 0 25 18" fill="none" xmlns="http://www.w3.org/2000/svg">
<mask id="mask0_66_1728" style="mask-type:alpha" maskUnits="userSpaceOnUse" x="0" y="0" width="25" height="18">
<path d="M8.62742 17.1769H15.9172C19.9881 17.1769 22.0162 17.1769 23.2734 16.013C24.5231 14.8492 24.5231 12.9649 24.5231 9.21019V8.50358C24.5231 4.76272 24.5231 2.87843 23.2734 1.71461C22.0162 0.550781 19.9807 0.550781 15.9172 0.550781H8.62742C4.55644 0.550781 2.52843 0.550781 1.27122 1.71461C0.0214844 2.87843 0.0214844 4.76272 0.0214844 8.51744V9.22405C0.0214844 12.9649 0.0214844 14.8492 1.2787 16.013C2.53592 17.1769 4.57141 17.1769 8.62742 17.1769Z" fill="#D9D9D9"/>
</mask>
<g mask="url(#mask0_66_1728)">
<rect x="0.0214844" y="0.550781" width="24.825" height="5.54201" fill="white"/>
<rect x="0.0214844" y="6.09277" width="24.825" height="5.54201" fill="#434B9D"/>
<rect x="0.0214844" y="11.6348" width="24.825" height="5.54201" fill="#F84A51"/>
</g>
</svg>
