<svg width="19" height="16" viewBox="0 0 19 16" fill="none" xmlns="http://www.w3.org/2000/svg">
<path d="M1.15238 6.79662L12.3489 2.16438C13.4542 1.68186 17.2024 0.137778 17.2024 0.137778C17.2024 0.137778 18.9323 -0.537757 18.7882 1.10283C18.7401 1.77836 18.3557 4.14273 17.9712 6.70011L16.7699 14.2758C16.7699 14.2758 16.6738 15.3856 15.8569 15.5786C15.04 15.7716 13.6944 14.903 13.4542 14.71C13.262 14.5653 9.85013 12.3939 8.60073 11.3324C8.26436 11.0428 7.87992 10.4638 8.64879 9.78827C10.3787 8.19594 12.445 6.21759 13.6944 4.96303C14.2711 4.384 14.8477 3.03293 12.445 4.67351L5.66944 9.2575C5.66944 9.2575 4.90058 9.74002 3.45897 9.30575C2.01735 8.87148 0.335461 8.29245 0.335461 8.29245C0.335461 8.29245 -0.817832 7.56866 1.15238 6.79662Z" fill="#ffffff"/>
</svg>