<svg width="19" height="12" viewBox="0 0 19 12" fill="none" xmlns="http://www.w3.org/2000/svg">
<path d="M10.3262 11.8301C3.84863 11.8301 0.153945 7.38937 0 0H3.24469C3.35127 5.42361 5.74334 7.72094 7.63805 8.19462V0H10.6933V4.67757C12.5643 4.47625 14.5301 2.3447 15.1932 0H18.2484C17.9985 1.21603 17.5004 2.36742 16.7852 3.38214C16.07 4.39687 15.1531 5.2531 14.0919 5.89729C15.2765 6.4859 16.3228 7.31903 17.1617 8.34169C18.0007 9.36436 18.6132 10.5533 18.9589 11.8301H15.5958C15.2855 10.7211 14.6547 9.7284 13.7826 8.97636C12.9105 8.22432 11.8358 7.74641 10.6933 7.60253V11.8301H10.3262Z" fill="#282828"/>
</svg>
